<svg width="400" height="420" viewBox="0 0 400 420" fill="none" xmlns="http://www.w3.org/2000/svg">
<g clip-path="url(#clip0_2160_3691)">
<path fill-rule="evenodd" clip-rule="evenodd" d="M101.686 -20.7561C118.477 -20.7561 132.006 -8.54699 132.006 6.60546C132.006 21.6184 118.477 33.8479 101.686 33.8479C85.0505 33.8479 71.3669 21.6388 71.3669 6.60546C71.3669 -8.54699 85.0505 -20.7561 101.686 -20.7561ZM145.403 297.661C159.637 289.648 178.256 293.465 187.136 306.311C196.016 319.037 191.786 335.959 177.683 343.973C163.581 351.986 144.83 348.168 135.95 335.323C127.07 322.597 131.301 305.794 145.403 297.661ZM87.872 330.491C72.0731 339.399 67.4239 358.111 77.2954 372.369C87.1669 386.487 108.034 390.703 123.7 381.794C123.833 381.794 123.987 381.675 123.987 381.675C124.119 381.556 124.273 381.556 124.406 381.416C140.05 372.508 144.854 353.796 134.982 339.539C124.979 325.421 104.244 321.086 88.5771 330.113C88.4449 330.113 88.2907 330.232 88.1585 330.232L87.872 330.491ZM395.874 155.387C397.57 154.492 399.531 154.87 400.523 156.282C401.515 157.813 401.096 159.583 399.531 160.478C397.989 161.373 395.874 160.995 394.882 159.583C393.891 158.191 394.309 156.282 395.874 155.387ZM384.592 161.869C387.699 160.08 391.775 160.855 393.758 163.778C395.874 166.582 394.882 170.261 391.775 172.17C388.536 173.959 384.438 173.064 382.477 170.261C380.494 167.338 381.353 163.639 384.592 161.869ZM367.537 171.533C372.187 168.869 378.401 170.141 381.353 174.456C384.306 178.652 382.895 184.26 378.246 186.924C373.443 189.589 367.251 188.316 364.276 184.12C361.323 179.785 362.734 174.198 367.515 171.513L367.537 171.533ZM344.687 184.518C351.033 180.959 359.363 182.609 363.307 188.336C367.251 193.944 365.29 201.44 359.076 204.999C352.73 208.559 344.401 206.908 340.457 201.182C336.513 195.574 338.342 188.078 344.687 184.518ZM316.197 200.685C324.085 196.23 334.529 198.259 339.465 205.397C344.401 212.516 341.999 221.942 334.111 226.396C326.355 230.85 315.91 228.683 310.974 221.564C306.039 214.564 308.44 205.139 316.197 200.685ZM282.065 220.033C291.518 214.684 303.923 217.229 309.851 225.76C315.91 234.29 312.958 245.485 303.637 250.954C294.184 256.303 281.646 253.757 275.719 245.227C269.792 236.696 272.612 225.382 282.065 220.033ZM242.293 242.681C253.288 236.437 267.808 239.5 274.727 249.422C281.646 259.345 278.253 272.449 267.39 278.693C256.24 284.937 241.719 281.994 234.823 272.071C227.904 262.149 231.165 248.905 242.293 242.681ZM196.747 268.651C209.307 261.393 225.943 264.833 233.831 276.168C241.719 287.622 237.93 302.516 225.37 309.774C212.81 316.892 196.174 313.472 188.286 302.138C180.398 290.803 184.055 275.79 196.747 268.672V268.651ZM129.632 234.032C144.726 227.549 162.772 233.137 170.11 246.758C177.293 260.379 171.102 276.665 156.008 283.287C140.914 289.769 122.868 284.042 115.53 270.56C108.347 256.939 114.693 240.653 129.632 234.032ZM68.4179 260.757C51.6273 268.015 44.5762 286.21 52.7735 301.223C60.8162 316.375 80.8458 322.738 97.6138 315.48C97.746 315.361 97.9002 315.361 98.0324 315.222C98.0324 315.222 98.1646 315.222 98.3189 315.102C115.109 307.844 122.006 289.65 113.963 274.637C105.92 259.484 85.759 253.121 69.123 260.379C68.9908 260.498 68.8365 260.498 68.7043 260.638C68.5721 260.638 68.4179 260.638 68.4179 260.757ZM396.292 117.963C397.989 117.207 399.95 117.843 400.809 119.355C401.514 120.886 400.809 122.656 399.113 123.431C397.57 124.187 395.455 123.55 394.75 122.039C393.912 120.508 394.618 118.738 396.292 117.963ZM384.173 123.172C387.567 121.78 391.511 123.053 393.053 126.095C394.75 129.018 393.34 132.717 389.946 134.109C386.707 135.64 382.609 134.367 381.067 131.305C379.37 128.243 380.78 124.683 384.173 123.152V123.172ZM365.973 131.186C371.041 128.899 376.968 130.808 379.502 135.382C381.903 139.955 379.788 145.304 374.698 147.472C369.762 149.758 363.703 147.849 361.301 143.276C358.767 138.822 360.882 133.353 365.95 131.186H365.973ZM341.712 141.625C348.477 138.822 356.52 141.367 359.627 147.352C362.866 153.338 360.2 160.596 353.413 163.519C346.78 166.442 338.738 163.897 335.499 157.911C332.259 151.807 335.08 144.548 341.712 141.625ZM311.393 154.869C319.854 151.17 329.858 154.352 333.824 161.988C337.923 169.504 334.397 178.532 326.068 182.231C317.739 185.929 307.603 182.748 303.637 175.112C299.538 167.595 303.064 158.568 311.393 154.869ZM275.146 170.777C285.149 166.323 297.136 170.141 302.072 179.168C306.876 188.196 302.645 199.152 292.619 203.467C282.616 207.921 270.474 204.103 265.693 195.076C260.757 185.909 264.988 175.092 275.146 170.777ZM232.708 189.23C244.408 184.139 258.51 188.474 264.151 199.033C269.792 209.732 264.856 222.318 253.156 227.409C241.455 232.499 227.353 228.165 221.712 217.606C216.072 207.047 221.007 194.321 232.708 189.23ZM184.187 210.348C197.584 204.502 213.67 209.592 220.148 221.543C226.626 233.633 220.985 248.149 207.588 253.995C194.191 259.841 178.105 254.75 171.627 242.66C165.149 230.57 170.79 216.054 184.187 210.327V210.348ZM117.202 170.26C133.001 165.169 150.342 172.686 155.851 186.923C161.36 201.181 153.031 216.83 137.386 221.801C121.587 226.772 104.246 219.256 98.7374 204.998C93.2288 190.741 101.558 175.211 117.202 170.26ZM53.0375 190.503C35.5419 196.11 26.2435 213.41 32.4575 229.199C38.5168 245.107 57.8413 253.379 75.3369 247.771H75.6234C75.7556 247.652 75.9098 247.652 76.042 247.652C93.5377 242.044 102.836 224.744 96.6221 208.956C90.5627 193.048 71.3703 184.776 53.7426 190.244C53.6104 190.363 53.6104 190.363 53.4562 190.363C53.324 190.482 53.1697 190.482 53.0375 190.482V190.503ZM396.554 81.8098C398.383 81.2928 400.212 82.0683 400.917 83.7187C401.49 85.2499 400.63 87.0196 398.801 87.5366C397.105 88.1729 395.144 87.2781 394.571 85.747C393.866 84.0966 394.857 82.4461 396.554 81.8098ZM383.862 85.8862C387.388 84.7329 391.2 86.4032 392.455 89.5847C393.733 92.7663 391.882 96.2065 388.357 97.3396C384.831 98.493 381.019 96.7033 379.764 93.6411C378.486 90.4595 380.337 87.0193 383.862 85.8862ZM364.824 91.8716C370.179 90.2212 375.819 92.7664 377.648 97.4793C379.477 102.192 376.811 107.402 371.589 109.052C366.234 110.703 360.439 108.296 358.61 103.444C356.781 98.7317 359.602 93.522 364.824 91.8716ZM339.44 99.8851C346.491 97.7177 354.116 101.038 356.649 107.402C359.051 113.646 355.371 120.645 348.32 122.792C341.401 125.079 333.645 121.778 331.266 115.415C328.732 109.052 332.389 102.172 339.44 99.8851ZM307.711 109.947C316.458 107.143 326.043 111.339 329.15 119.233C332.257 127.127 327.608 135.897 318.86 138.581C310.112 141.385 300.528 137.189 297.421 129.295C294.314 121.401 298.963 112.751 307.711 109.947ZM269.635 122.037C280.079 118.736 291.625 123.687 295.305 133.232C298.963 142.658 293.476 153.077 283.032 156.398C272.455 159.699 260.887 154.748 257.229 145.203C253.572 135.777 259.058 125.358 269.635 122.037ZM225.213 136.036C237.487 132.218 250.884 138.064 255.246 149.14C259.477 160.216 252.999 172.306 240.725 176.243C228.452 180.061 215.055 174.215 210.692 163.139C206.462 152.063 212.94 139.973 225.213 136.036ZM174.446 152.202C188.416 147.748 203.773 154.37 208.709 167.096C213.645 179.704 206.175 193.563 192.205 198.017C178.103 202.471 162.723 195.73 157.942 183.123C153.006 170.397 160.343 156.657 174.446 152.202ZM108.453 106.388C124.671 103.087 140.888 112.234 144.7 127.008C148.358 141.644 138.222 156.279 121.85 159.719C105.633 163.02 89.4154 153.873 85.6033 139.098C81.9455 124.463 92.0812 109.828 108.453 106.388ZM42.0435 120.128C23.9973 123.827 12.561 140.112 16.7917 156.398C20.8901 172.823 38.9365 183.004 56.9827 179.305C57.1149 179.305 57.2692 179.186 57.4014 179.186H57.82C75.8662 175.368 87.3025 159.083 83.0719 142.797C78.9735 126.372 60.927 116.191 42.8808 119.89C42.7486 120.009 42.5944 120.009 42.4622 120.009C42.33 120.009 42.1757 120.128 42.0435 120.128ZM397 46.8347C398.828 46.4569 400.525 47.4711 400.944 49.1215C401.362 50.772 400.239 52.4224 398.542 52.8201C396.713 53.1979 394.884 52.1838 394.444 50.5333C394.025 48.8829 395.149 47.2324 396.978 46.8347H397ZM383.889 49.6385C387.415 48.8829 391.072 50.9111 391.932 54.0927C392.769 57.3936 390.522 60.7145 386.864 61.4699C383.206 62.1062 379.681 60.0779 378.821 56.8964C377.984 53.5955 380.231 50.2748 383.889 49.6385ZM364.146 53.5757C369.655 52.5616 375.009 55.604 376.265 60.4561C377.543 65.4273 374.15 70.2594 368.641 71.3925C363.286 72.5459 357.778 69.4836 356.522 64.5122C355.398 59.6802 358.77 54.7089 364.146 53.5757ZM337.925 59.044C345.263 57.5128 352.446 61.5892 354.143 68.211C355.685 74.6932 351.19 81.1959 343.985 82.7271C336.647 84.2582 329.464 80.1818 327.767 73.5601C326.225 67.0778 330.72 60.5752 337.925 59.044ZM305.204 65.7848C314.238 63.8759 323.25 69.0857 325.365 77.2385C327.348 85.3915 321.708 93.5241 312.673 95.4331C303.639 97.2227 294.627 92.1322 292.512 83.9794C290.397 75.8264 296.17 67.6938 305.204 65.7848ZM265.85 73.9378C276.713 71.651 287.576 77.875 289.955 87.6782C292.489 97.4815 285.725 107.145 274.862 109.432C263.999 111.719 253.135 105.495 250.602 95.6916C248.068 85.8885 254.964 76.2245 265.827 73.9378H265.85ZM219.886 83.3634C232.578 80.8182 245.27 87.937 248.09 99.3904C251.043 110.844 243.154 122.179 230.463 124.843C217.771 127.508 205.079 120.27 202.258 108.816C199.306 97.3624 207.194 86.0278 219.886 83.3634ZM167.422 94.1808C181.942 91.2577 196.331 99.3904 199.724 112.515C202.964 125.619 193.952 138.604 179.408 141.527C164.888 144.589 150.499 136.436 147.26 123.332C143.867 110.228 152.901 97.2432 167.422 94.1808ZM103.257 42.7563C119.893 40.9667 134.855 51.7838 136.683 66.8172C138.512 81.8302 126.68 95.3323 110.021 96.9826C93.3854 98.6331 78.4236 87.9551 76.4628 72.9217C74.634 57.9088 86.6209 44.4067 103.257 42.7563ZM35.5667 49.6367C17.1019 51.4263 3.8369 66.5586 5.95222 83.1028C8.06754 99.7661 24.7035 111.856 43.1909 109.947C43.3231 109.947 43.3231 109.947 43.4773 109.828H43.896C62.3607 107.919 75.6257 92.9059 73.5104 76.2222C71.5273 59.5589 54.8911 47.588 36.4263 49.497H36.0077C35.8755 49.497 35.7212 49.6163 35.589 49.6163L35.5667 49.6367ZM397.286 12.7304C399.269 12.6111 400.812 13.7445 401.098 15.395C401.23 17.0454 399.974 18.5765 398.145 18.835C396.317 18.9543 394.62 17.8209 394.333 16.1705C394.201 14.3808 395.457 12.9889 397.286 12.7304ZM384.021 14.1223C387.679 13.7445 390.94 16.1506 391.359 19.4714C391.777 22.7723 389.243 25.8346 385.431 26.2123C381.774 26.5901 378.512 24.1841 378.094 20.8632C377.675 17.4231 380.341 14.5001 384.021 14.1223ZM363.86 16.1506C369.5 15.5143 374.436 19.2129 375.141 24.1641C375.714 29.1353 371.748 33.7088 366.261 34.226C360.621 34.8623 355.685 31.1638 354.98 26.2125C354.407 21.2413 358.373 16.6678 363.86 16.1506ZM337.198 18.8152C344.535 18.0595 351.168 22.8916 352.005 29.5134C352.842 36.2543 347.642 42.2397 340.15 42.9952C332.812 43.7508 326.18 38.9188 325.343 32.2969C324.505 25.5561 329.706 19.5706 337.198 18.8152ZM303.771 22.2553C312.937 21.3604 321.267 27.3458 322.39 35.6179C323.382 44.0091 316.749 51.5258 307.583 52.4207C298.285 53.3155 289.955 47.3302 288.964 39.0581C287.84 30.6668 294.472 23.1502 303.771 22.2553ZM263.58 26.3316C274.73 25.1783 284.733 32.4362 286.011 42.3586C287.289 52.4206 279.247 61.4481 268.252 62.6016C257.102 63.6158 247.099 56.4971 245.82 46.4351C244.542 36.5127 252.585 27.4648 263.58 26.3316ZM216.911 31.1637C229.735 29.7717 241.458 38.1631 242.868 49.8754C244.41 61.4482 235.112 72.0273 222.133 73.3C209.155 74.6919 197.587 66.3005 196.044 54.5882C194.634 43.0154 203.932 32.4363 216.911 31.1637ZM163.323 36.5128C178.13 35.1208 191.527 44.6658 193.069 58.0284C194.766 71.2719 184.19 83.3619 169.382 84.8728C154.575 86.2647 141.31 76.7198 139.636 63.3572C137.939 50.1137 148.67 38.0237 163.323 36.5128ZM33.7131 -20.7556C15.0938 -20.7556 0 -7.13437 0 9.66843C0 26.3317 15.0938 39.953 33.7131 39.953H33.9995H34.4182C53.0375 39.953 68.1313 26.3317 68.1313 9.66843C68.1313 -7.13437 53.0375 -20.7556 34.4182 -20.7556H33.9995H33.7131ZM397.678 -20.7556C399.506 -20.7556 401.071 -19.3636 401.071 -17.6933C401.071 -16.0429 399.528 -14.6311 397.678 -14.6311C395.849 -14.6311 394.284 -16.023 394.284 -17.6933C394.284 -19.3438 395.827 -20.7556 397.678 -20.7556ZM384.281 -20.7556C387.938 -20.7556 390.913 -18.091 390.913 -14.651C390.913 -11.3501 387.96 -8.6656 384.281 -8.6656C380.469 -8.6656 377.516 -11.3302 377.516 -14.651C377.516 -18.0911 380.469 -20.7556 384.281 -20.7556ZM364.119 -20.7556C369.628 -20.7556 374.123 -16.6792 374.123 -11.5886C374.123 -6.61737 369.605 -2.56104 364.119 -2.56104C358.478 -2.56104 353.961 -6.63743 353.961 -11.5886C353.961 -16.6791 358.478 -20.7556 364.119 -20.7556ZM337.193 -20.7556C344.663 -20.7556 350.59 -15.2873 350.59 -8.6656C350.59 -1.92473 344.663 3.54351 337.193 3.54351C329.723 3.54351 323.664 -1.92473 323.664 -8.6656C323.664 -15.2873 329.723 -20.7556 337.193 -20.7556ZM303.48 -20.7556C312.778 -20.7556 320.402 -14.0147 320.402 -5.60314C320.402 2.78808 312.778 9.66843 303.48 9.66843C294.182 9.66843 286.689 2.78808 286.689 -5.60314C286.689 -13.9944 294.159 -20.7556 303.48 -20.7556ZM263.157 -20.7556C274.307 -20.7556 283.318 -12.6026 283.318 -2.56104C283.318 7.50089 274.284 15.6335 263.157 15.6335C252.007 15.6335 242.995 7.48052 242.995 -2.56104C242.995 -12.623 252.03 -20.7556 263.157 -20.7556ZM216.047 -20.7556C229.025 -20.7556 239.602 -11.2109 239.602 0.501419C239.602 12.2137 229.025 21.7584 216.047 21.7584C203.068 21.7584 192.492 12.2137 192.492 0.501419C192.492 -11.2109 203.068 -20.7556 216.047 -20.7556ZM162.172 -20.7556C177.111 -20.7556 189.098 -9.93823 189.098 3.54351C189.098 16.9061 177.111 27.8426 162.172 27.8426C147.365 27.8426 135.378 16.9061 135.378 3.54351C135.378 -9.93823 147.365 -20.7556 162.172 -20.7556Z" fill="url(#paint0_linear_2160_3691)"/>
</g>
<defs>
<linearGradient id="paint0_linear_2160_3691" x1="200.554" y1="-20.7561" x2="130.356" y2="359.748" gradientUnits="userSpaceOnUse">
<stop stop-color="#CAFF4D"/>
<stop offset="1" stop-color="#79992E"/>
</linearGradient>
<clipPath id="clip0_2160_3691">
<rect width="400" height="420" fill="white"/>
</clipPath>
</defs>
</svg>