<svg width="353" height="186" viewBox="0 0 353 186" fill="none" xmlns="http://www.w3.org/2000/svg">
<path fill-rule="evenodd" clip-rule="evenodd" d="M177.724 91.5885C186.651 96.2748 193.37 100.738 192.816 101.598C192.262 102.457 184.64 99.3951 175.713 94.7088L175.488 94.5912L175.264 94.4736C166.337 89.7873 159.618 85.3242 160.173 84.4636C160.726 83.6048 168.348 86.667 177.276 91.3533L177.5 91.4709L177.724 91.5885ZM1.76232 1.09875C0.883321 0.637351 0.0596563 0.304847 0.0051558 0.389404C-0.0493447 0.473961 0.678144 0.95568 1.55714 1.41708C2.43614 1.87848 3.2598 2.21098 3.31431 2.12643C3.36881 2.04187 2.64132 1.56015 1.76232 1.09875ZM8.37355 4.36938C6.49492 3.38326 4.9757 2.76997 4.86563 2.94074C4.75663 3.10985 6.09739 4.00002 7.97602 4.98614C9.73402 5.90894 11.2704 6.53127 11.3805 6.3605C11.4895 6.19138 10.1488 5.30121 8.37355 4.36938ZM18.1794 9.30363C15.4218 7.85611 13.1822 6.96451 13.0176 7.21985C12.853 7.47519 14.8189 8.79114 17.5767 10.2388C20.2309 11.632 22.574 12.5779 22.7386 12.3225C22.9031 12.0672 20.8338 10.697 18.1794 9.30363ZM31.1912 15.9207C27.5546 14.0118 24.4913 12.7877 24.2722 13.1276C24.0532 13.4675 26.7293 15.2561 30.3833 17.1742C33.9165 19.0288 36.9624 20.2437 37.1815 19.9038C37.4005 19.5639 34.7244 17.7753 31.1912 15.9207ZM47.3849 24.2213C42.9727 21.9053 39.1171 20.3363 38.8371 20.7706C38.5571 21.205 41.9747 23.4538 46.3868 25.7698C50.9022 28.14 54.7755 29.7183 55.0555 29.2839C55.3354 28.8495 51.9179 26.6007 47.3849 24.2213ZM66.8941 34.2489C61.603 31.4716 56.9236 29.57 56.5892 30.089C56.2536 30.6096 60.3997 33.3384 65.6908 36.1158C71.1028 38.9566 75.6613 40.7947 75.9958 40.2758C76.3313 39.7552 72.2886 37.0806 66.8941 34.2489ZM89.7125 46.0136C83.4215 42.7114 78.0404 40.5391 77.6503 41.1443C77.2603 41.7495 82.0131 44.8966 88.304 48.1988C94.474 51.4375 99.8728 53.6191 100.263 53.0139C100.653 52.4088 95.9001 49.2616 89.7125 46.0136ZM115.627 59.4169C108.457 55.6533 102.362 53.1927 101.917 53.8825C101.473 54.5722 106.856 58.137 114.026 61.9005C121.196 65.6641 127.291 68.1246 127.736 67.4349C128.18 66.7452 122.797 63.1804 115.627 59.4169ZM144.857 74.5472C136.808 70.3223 129.889 67.5292 129.39 68.3034C128.891 69.0777 135.002 73.1243 143.051 77.3492C151.1 81.5741 158.019 84.3672 158.518 83.5929C159.017 82.8187 152.906 78.7721 144.857 74.5472ZM351.43 184.642C352.309 185.104 353.037 185.585 352.982 185.67C352.928 185.755 352.104 185.422 351.225 184.961C350.346 184.499 349.619 184.018 349.673 183.933C349.728 183.848 350.551 184.181 351.43 184.642ZM345.011 181.073C346.89 182.059 348.232 182.948 348.122 183.119C348.013 183.288 346.492 182.676 344.614 181.69C342.856 180.767 341.497 179.87 341.607 179.699C341.716 179.53 343.236 180.141 345.011 181.073ZM335.411 175.821C338.168 177.268 340.134 178.584 339.97 178.84C339.805 179.095 337.566 178.203 334.808 176.756C332.154 175.363 330.084 173.992 330.249 173.737C330.413 173.482 332.756 174.427 335.411 175.821ZM322.604 168.885C326.241 170.794 328.934 172.592 328.715 172.932C328.496 173.272 325.45 172.057 321.796 170.139C318.263 168.284 315.587 166.496 315.806 166.156C316.025 165.816 319.071 167.031 322.604 168.885ZM306.603 160.286C311.015 162.602 314.432 164.851 314.152 165.286C313.872 165.72 310.017 164.151 305.605 161.835C301.089 159.465 297.654 157.207 297.934 156.772C298.214 156.338 302.07 157.907 306.603 160.286ZM287.299 149.94C292.59 152.718 296.735 155.448 296.4 155.967C296.065 156.488 291.386 154.585 286.095 151.807C280.683 148.966 276.659 146.299 276.994 145.78C277.329 145.26 281.904 147.109 287.299 149.94ZM264.685 137.857C270.976 141.16 275.729 144.307 275.339 144.912C274.949 145.517 269.568 143.345 263.277 140.043C257.107 136.804 252.337 133.647 252.727 133.042C253.117 132.437 258.498 134.609 264.685 137.857ZM238.963 124.156C246.133 127.919 251.517 131.484 251.072 132.174C250.627 132.863 244.532 130.403 237.362 126.639C230.193 122.876 224.809 119.311 225.254 118.621C225.698 117.932 231.793 120.392 238.963 124.156ZM209.938 108.707C217.987 112.932 224.098 116.978 223.599 117.753C223.1 118.527 216.181 115.734 208.132 111.509C200.083 107.284 193.972 103.237 194.471 102.463C194.97 101.689 201.889 104.482 209.938 108.707Z" fill="#CAFF4D"/>
</svg>