<svg width="121" height="266" viewBox="0 0 121 266" fill="none" xmlns="http://www.w3.org/2000/svg">
<path fill-rule="evenodd" clip-rule="evenodd" d="M62.6508 132.5C65.6894 139.194 67.3442 144.846 66.378 145.184C65.4137 145.522 62.1859 140.422 59.1473 133.728L59.071 133.56L58.9947 133.392C55.9561 126.698 54.3013 121.047 55.2675 120.708C56.2318 120.37 59.4596 125.47 62.4982 132.164L62.5745 132.332L62.6508 132.5ZM1.49402 1.7917C1.19484 1.13262 0.847093 0.580439 0.752152 0.6137C0.657211 0.646961 0.837419 1.25784 1.1366 1.91692C1.43578 2.576 1.78353 3.12818 1.87847 3.09492C1.97341 3.06166 1.7932 2.45078 1.49402 1.7917ZM3.87906 6.61803C3.23964 5.20943 2.59823 4.19094 2.40649 4.25812C2.2166 4.32464 2.54713 5.45203 3.18655 6.86064C3.78491 8.1788 4.43218 9.21018 4.62392 9.14301C4.8138 9.07649 4.48327 7.94909 3.87906 6.61803ZM7.36043 13.831C6.42184 11.7633 5.46782 10.2701 5.18111 10.3705C4.89441 10.471 5.37181 12.131 6.31047 14.1989C7.21386 16.189 8.20308 17.7598 8.48979 17.6594C8.77649 17.5589 8.26389 15.8213 7.36043 13.831ZM11.933 23.4478C10.6952 20.7211 9.39344 18.6756 9.0118 18.8093C8.63015 18.943 9.2819 21.2011 10.5256 23.9409C11.7282 26.5901 13.024 28.6224 13.4056 28.4887C13.7873 28.355 13.1355 26.097 11.933 23.4478ZM17.5795 35.4591C16.0778 32.1508 14.4584 29.5578 13.9707 29.7287C13.483 29.8995 14.3391 32.76 15.8408 36.0682C17.3777 39.4539 19.0031 42.0602 19.4908 41.8893C19.9786 41.7184 19.1224 38.858 17.5795 35.4591ZM24.3636 49.9477C22.5627 45.9804 20.5955 42.8351 20.0128 43.0393C19.4283 43.2441 20.4665 46.7147 22.2675 50.682C24.1095 54.74 26.0355 57.7946 26.6182 57.5905C27.2027 57.3857 26.1997 53.9925 24.3636 49.9477ZM32.2739 66.9175C30.1327 62.2005 27.8608 58.593 27.1813 58.8311C26.5019 59.0691 27.6792 63.0601 29.8204 67.7771C31.9204 72.4034 34.1984 76.0241 34.8778 75.7861C35.5573 75.548 34.38 71.5571 32.2739 66.9175ZM41.2292 86.2176C38.7888 80.8416 36.2154 76.7554 35.441 77.0267C34.6666 77.298 36.0001 81.8186 38.4405 87.1946C40.8808 92.5706 43.4542 96.6568 44.2287 96.3855C45.0031 96.1142 43.6695 91.5936 41.2292 86.2176ZM51.3219 107.995C48.5824 101.96 45.6612 97.3216 44.7918 97.6261C43.9225 97.9307 45.4363 103.062 48.1758 109.097C50.9153 115.132 53.8365 119.771 54.7058 119.466C55.5752 119.162 54.0614 114.03 51.3219 107.995ZM120.51 263.973C120.809 264.632 120.989 265.243 120.895 265.277C120.8 265.31 120.452 264.758 120.153 264.099C119.853 263.439 119.673 262.829 119.768 262.795C119.863 262.762 120.211 263.314 120.51 263.973ZM118.46 259.03C119.1 260.438 119.432 261.565 119.24 261.632C119.05 261.699 118.407 260.681 117.768 259.272C117.169 257.954 116.831 256.814 117.023 256.747C117.213 256.681 117.856 257.699 118.46 259.03ZM115.336 251.691C116.275 253.759 116.752 255.419 116.466 255.52C116.179 255.62 115.225 254.127 114.286 252.059C113.383 250.069 112.87 248.331 113.157 248.231C113.444 248.13 114.433 249.701 115.336 251.691ZM111.121 241.949C112.359 244.676 113.017 246.947 112.635 247.081C112.253 247.215 110.957 245.182 109.714 242.442C108.511 239.793 107.859 237.535 108.241 237.402C108.623 237.268 109.919 239.3 111.121 241.949ZM105.81 229.821C107.311 233.129 108.167 235.989 107.68 236.16C107.192 236.331 105.573 233.738 104.071 230.43C102.534 227.044 101.672 224.17 102.16 224C102.647 223.829 104.267 226.422 105.81 229.821ZM99.383 215.207C101.184 219.174 102.22 222.646 101.638 222.85C101.053 223.054 99.0878 219.909 97.2869 215.941C95.4448 211.883 94.4496 208.503 95.0323 208.298C95.6168 208.094 97.5469 211.162 99.383 215.207ZM91.8301 198.112C93.9713 202.829 95.1486 206.82 94.4691 207.058C93.7896 207.296 91.5177 203.688 89.3765 198.971C87.2765 194.345 86.0931 190.341 86.7726 190.103C87.4521 189.865 89.724 193.472 91.8301 198.112ZM83.2099 178.694C85.6503 184.07 86.9838 188.591 86.2094 188.862C85.435 189.134 82.8616 185.047 80.4212 179.671C77.9809 174.295 76.6473 169.775 77.4217 169.503C78.1962 169.232 80.7696 173.318 83.2099 178.694ZM73.4746 156.792C76.2141 162.827 77.7279 167.958 76.8586 168.263C75.9892 168.567 73.068 163.929 70.3285 157.894C67.589 151.859 66.0752 146.727 66.9446 146.423C67.8139 146.118 70.7351 150.757 73.4746 156.792Z" fill="#CAFF4D"/>
</svg>