<svg width="489" height="489" viewBox="0 0 489 489" fill="none" xmlns="http://www.w3.org/2000/svg">
<path d="M480.359 159.266C480.253 158.718 480.19 158.148 480.02 157.644C479.829 157.03 479.553 156.416 479.256 155.846C479.171 155.649 478.916 155.539 478.746 155.386C478.619 155.627 478.471 155.868 478.301 156.175C478.513 156.811 478.64 157.49 478.98 158.017C479.341 158.499 479.893 158.85 480.359 159.266Z" fill="#CAFF4D"/>
<path d="M49.1773 97.218C51.7029 97.2604 53.7404 95.2442 53.7829 92.7186C53.8254 90.1293 51.8728 88.1342 49.3047 88.113C46.7791 88.0917 44.6779 90.0868 44.6354 92.5912C44.5929 95.032 46.6941 97.1756 49.1773 97.218Z" fill="#CAFF4D"/>
<path d="M92.6436 53.8337C95.1692 53.8337 97.1642 51.7962 97.1642 49.2494C97.1642 46.6813 95.1904 44.7074 92.6011 44.7287C90.0755 44.7499 87.9955 46.8086 88.0168 49.2918C88.038 51.7326 90.1604 53.8337 92.6436 53.8337Z" fill="#CAFF4D"/>
<path d="M5.66702 183.83C8.34124 183.915 10.4636 181.941 10.5273 179.288C10.5909 176.762 8.65957 174.64 6.13396 174.491C3.48098 174.343 1.2737 176.295 1.14634 178.906C1.01899 181.559 3.03529 183.745 5.66702 183.83Z" fill="#CAFF4D"/>
<path d="M179.066 10.5794C181.635 10.6431 183.842 8.49951 183.863 5.91016C183.884 3.32086 181.741 1.13477 179.151 1.13477C176.668 1.13477 174.567 3.1935 174.482 5.69788C174.397 8.28717 176.477 10.5158 179.066 10.5794Z" fill="#CAFF4D"/>
<path d="M5.85792 304.212C3.12002 304.212 0.955224 306.334 0.912735 309.051C0.870285 311.768 2.99266 313.954 5.70931 314.017C8.55332 314.081 10.803 311.895 10.7818 309.072C10.7606 306.356 8.59581 304.212 5.85792 304.212Z" fill="#CAFF4D"/>
<path d="M309.107 10.7501C311.845 10.7501 314.01 8.62772 314.031 5.91106C314.052 3.19441 311.93 1.00837 309.213 0.944691C306.369 0.881018 304.119 3.10954 304.162 5.91106C304.204 8.64896 306.369 10.7501 309.107 10.7501Z" fill="#CAFF4D"/>
<path d="M395.551 54.2992C398.289 54.3629 400.666 52.0919 400.729 49.3328C400.793 46.5949 398.522 44.2604 395.742 44.1967C392.898 44.133 390.669 46.2979 390.627 49.1206C390.584 51.9858 392.749 54.2568 395.551 54.2992Z" fill="#CAFF4D"/>
<path d="M49.1989 390.595C46.4398 390.617 44.1264 392.951 44.1476 395.689C44.1688 398.448 46.4822 400.719 49.2626 400.719C52.0853 400.698 54.2714 398.469 54.2714 395.647C54.2502 392.803 52.0004 390.574 49.1989 390.595Z" fill="#CAFF4D"/>
<path d="M438.827 97.9131C441.671 97.8919 444.048 95.5573 444.112 92.7133C444.176 89.8268 441.671 87.3012 438.764 87.3224C435.898 87.3436 433.585 89.657 433.543 92.5435C433.5 95.5573 435.856 97.9344 438.827 97.9131Z" fill="#CAFF4D"/>
<path d="M92.5131 433.506C89.6479 433.57 87.377 435.904 87.377 438.791C87.377 441.677 89.6267 444.033 92.4919 444.097C95.4208 444.16 97.9252 441.741 97.9464 438.812C97.9464 435.904 95.442 433.442 92.5131 433.506Z" fill="#CAFF4D"/>
<path d="M179.175 476.74C176.097 476.74 173.699 479.117 173.699 482.216C173.699 485.293 176.119 487.692 179.175 487.692C182.21 487.692 184.714 485.23 184.693 482.216C184.693 479.181 182.231 476.74 179.175 476.74Z" fill="#CAFF4D"/>
<path d="M482.185 184.678C485.22 184.678 487.66 182.237 487.66 179.16C487.66 176.104 485.22 173.642 482.185 173.642C479.213 173.642 476.646 176.189 476.646 179.16C476.646 182.153 479.192 184.678 482.185 184.678Z" fill="#CAFF4D"/>
<path d="M222.195 11.5771C225.379 11.662 228.095 8.98777 228.053 5.80418C228.032 2.7267 225.421 0.116047 222.344 0.0948572C219.245 0.0736347 216.677 2.64172 216.634 5.7618C216.592 8.92415 219.076 11.4923 222.195 11.5771Z" fill="#CAFF4D"/>
<path d="M5.85833 228.062C8.957 228.041 11.5465 225.473 11.5676 222.374C11.6101 219.212 8.85099 216.495 5.71 216.58C2.61133 216.665 0.128359 219.275 0.149549 222.395C0.191994 225.536 2.75955 228.062 5.85833 228.062Z" fill="#CAFF4D"/>
<path d="M308.873 476.359C305.668 476.465 303.185 479.075 303.248 482.302C303.312 485.634 305.965 488.138 309.318 488.032C312.502 487.926 315.028 485.273 314.964 482.089C314.922 478.799 312.205 476.253 308.873 476.359Z" fill="#CAFF4D"/>
<path d="M482.142 303.254C478.916 303.276 476.369 305.78 476.327 309.027C476.284 312.359 478.874 314.97 482.227 314.949C485.453 314.927 488.021 312.38 488.063 309.197C488.106 305.907 485.453 303.254 482.142 303.254Z" fill="#CAFF4D"/>
<path d="M5.7946 259.875C2.56857 259.896 0.0428942 262.422 0.0005144 265.648C-0.0419306 268.98 2.54738 271.591 5.90054 271.569C9.12657 271.548 11.6946 269.001 11.7158 265.796C11.7583 262.507 9.12652 259.853 5.7946 259.875Z" fill="#CAFF4D"/>
<path d="M265.853 11.6838C269.057 11.6202 271.604 9.03086 271.583 5.82618C271.562 2.53648 268.888 -0.0526582 265.577 0.0109115C262.351 0.0745845 259.846 2.6427 259.867 5.86856C259.867 9.22194 262.499 11.7474 265.853 11.6838Z" fill="#CAFF4D"/>
<path d="M438.675 389.702C435.513 389.787 432.903 392.419 432.881 395.581C432.839 398.828 435.534 401.588 438.781 401.588C442.029 401.588 444.724 398.871 444.703 395.602C444.681 392.334 441.923 389.638 438.675 389.702Z" fill="#CAFF4D"/>
<path d="M395.654 432.937C392.428 432.937 389.839 435.42 389.733 438.625C389.627 441.936 392.195 444.61 395.506 444.674C398.838 444.738 401.512 442.17 401.533 438.88C401.597 435.59 398.965 432.937 395.654 432.937Z" fill="#CAFF4D"/>
<path d="M222.429 475.513C218.757 475.449 215.68 478.505 215.68 482.22C215.68 485.934 218.778 488.969 222.45 488.884C226.037 488.799 228.987 485.785 228.987 482.198C228.987 478.59 226.016 475.576 222.429 475.513Z" fill="#CAFF4D"/>
<path d="M482.353 229.013C485.94 228.929 488.89 225.872 488.869 222.285C488.847 218.698 485.855 215.685 482.268 215.642C478.596 215.6 475.519 218.677 475.54 222.37C475.561 226.084 478.66 229.098 482.353 229.013Z" fill="#CAFF4D"/>
<path d="M265.83 475.425C261.968 475.362 258.954 478.354 258.954 482.196C258.954 485.952 261.862 488.903 265.597 488.966C269.418 489.009 272.516 485.974 272.516 482.196C272.516 478.503 269.524 475.468 265.83 475.425Z" fill="#CAFF4D"/>
<path d="M482.272 258.941C478.431 258.899 475.396 261.913 475.417 265.754C475.438 269.511 478.346 272.461 482.103 272.482C485.923 272.525 489.022 269.468 489 265.669C488.979 261.998 485.965 258.984 482.272 258.941Z" fill="#CAFF4D"/>
<path d="M49.3238 143.506C53.5049 143.463 56.9641 140.004 56.9859 135.822C57.0071 131.556 53.4627 128.033 49.1755 128.076C44.9307 128.118 41.5987 131.471 41.5775 135.738C41.5351 140.089 45.0152 143.569 49.3238 143.506Z" fill="#CAFF4D"/>
<path d="M135.855 56.9514C140.079 56.9302 143.453 53.5344 143.474 49.2894C143.495 44.9597 140.036 41.479 135.727 41.5214C131.546 41.5638 128.087 45.0021 128.065 49.1834C128.002 53.4706 131.547 56.9726 135.855 56.9514Z" fill="#CAFF4D"/>
<path d="M49.221 344.134C44.679 344.155 41.1346 347.699 41.1134 352.22C41.0922 356.741 44.6153 360.328 49.1362 360.413C53.7206 360.476 57.4774 356.741 57.4133 352.199C57.3709 347.7 53.7203 344.134 49.221 344.134Z" fill="#CAFF4D"/>
<path d="M352.339 57.4181C356.818 57.3756 360.383 53.7464 360.383 49.2257C360.362 44.7263 356.754 41.097 352.276 41.0758C347.84 41.0546 344.126 44.7051 344.062 49.1622C343.999 53.6828 347.798 57.4605 352.339 57.4181Z" fill="#CAFF4D"/>
<path d="M438.594 144.249C443.39 144.334 447.21 140.641 447.231 135.865C447.274 131.175 443.623 127.397 438.975 127.333C434.221 127.249 430.338 131.005 430.274 135.717C430.252 140.323 433.988 144.164 438.594 144.249Z" fill="#CAFF4D"/>
<path d="M135.708 430.3C131.06 430.343 127.367 434.099 127.346 438.769C127.325 443.523 131.187 447.385 135.878 447.322C140.483 447.258 144.282 443.438 144.304 438.853C144.304 434.142 140.398 430.258 135.708 430.3Z" fill="#CAFF4D"/>
<path d="M92.4756 101.354C97.3359 101.418 101.262 97.6609 101.389 92.8644C101.517 87.9617 97.5904 83.9293 92.6663 83.9293C87.806 83.9081 83.9643 87.7071 83.9007 92.5672C83.8583 97.4062 87.6367 101.29 92.4756 101.354Z" fill="#CAFF4D"/>
<path d="M352.362 429.942C347.417 429.879 343.448 433.741 343.406 438.687C343.363 443.653 347.205 447.6 352.15 447.664C357.053 447.728 361.085 443.801 361.17 438.92C361.255 434.059 357.286 430.006 352.362 429.942Z" fill="#CAFF4D"/>
<path d="M438.762 343.346C433.902 343.367 429.849 347.442 429.891 352.281C429.912 357.141 433.966 361.152 438.847 361.131C443.771 361.11 447.676 357.162 447.655 352.196C447.634 347.293 443.665 343.325 438.762 343.346Z" fill="#CAFF4D"/>
<path d="M395.654 101.885C400.748 101.885 404.823 97.8946 404.95 92.8008C405.077 87.6647 400.938 83.4197 395.76 83.3773C390.56 83.3348 386.379 87.4098 386.358 92.5884C386.336 97.7669 390.454 101.906 395.654 101.885Z" fill="#CAFF4D"/>
<path d="M92.5135 386.323C87.4834 386.407 83.3659 390.546 83.3236 395.576C83.2811 400.691 87.5047 404.957 92.6194 404.978C97.7556 404.978 101.936 400.755 101.915 395.597C101.894 390.461 97.6286 386.237 92.5135 386.323Z" fill="#CAFF4D"/>
<path d="M179.213 58.9674C184.667 58.9461 188.997 54.574 188.933 49.1407C188.87 43.7922 184.582 39.5476 179.255 39.5264C173.78 39.5052 169.429 43.7925 169.429 49.226C169.408 54.6593 173.737 58.9886 179.213 58.9674Z" fill="#CAFF4D"/>
<path d="M49.1776 188.964C54.5472 189.007 59.0043 184.571 59.0043 179.18C59.0043 173.789 54.5685 169.332 49.1988 169.374C43.8929 169.417 39.5634 173.725 39.4993 179.031C39.4144 184.443 43.787 188.922 49.1776 188.964Z" fill="#CAFF4D"/>
<path d="M395.633 385.796C390.221 385.796 385.848 390.19 385.827 395.623C385.806 401.078 390.114 405.471 395.527 405.513C401.024 405.556 405.566 401.035 405.502 395.581C405.459 390.19 401.002 385.775 395.633 385.796Z" fill="#CAFF4D"/>
<path d="M49.1123 299.077C43.6154 299.183 39.2221 303.682 39.2432 309.18C39.2857 314.655 43.7852 319.155 49.2394 319.155C54.6937 319.155 59.1933 314.676 59.2356 309.18C59.2569 303.598 54.6306 298.992 49.1123 299.077Z" fill="#CAFF4D"/>
<path d="M309.166 59.289C314.642 59.2465 319.099 54.7471 319.099 49.2499C319.099 43.7742 314.642 39.2537 309.166 39.2107C303.712 39.1683 299.17 43.6466 299.106 49.1222C299.042 54.7038 303.606 59.3314 309.166 59.289Z" fill="#CAFF4D"/>
<path d="M438.653 189.601C444.49 189.664 449.117 185.165 449.202 179.371C449.308 173.577 444.766 168.844 439.014 168.759C433.093 168.674 428.339 173.258 428.296 179.116C428.296 184.868 432.902 189.537 438.653 189.601Z" fill="#CAFF4D"/>
<path d="M179.191 428.308C173.46 428.286 168.791 432.956 168.748 438.729C168.706 444.586 173.481 449.383 179.275 449.298C184.985 449.213 189.654 444.48 189.632 438.771C189.611 433.041 184.9 428.329 179.191 428.308Z" fill="#CAFF4D"/>
<path d="M309.189 428.159C303.203 428.117 298.47 432.828 298.449 438.792C298.428 444.778 303.14 449.468 309.125 449.468C315.068 449.446 319.822 444.65 319.779 438.728C319.736 432.892 315.025 428.18 309.189 428.159Z" fill="#CAFF4D"/>
<path d="M438.828 298.462C432.949 298.441 428.258 303.047 428.152 308.905C428.046 314.89 432.694 319.708 438.658 319.75C444.643 319.814 449.44 315.123 449.503 309.202C449.525 303.281 444.749 298.484 438.828 298.462Z" fill="#CAFF4D"/>
<path d="M222.299 59.9677C228.264 59.9677 233.018 55.2772 233.06 49.3347C233.103 43.3706 228.391 38.5952 222.448 38.5529C216.399 38.4892 211.497 43.3283 211.539 49.3135C211.582 55.2136 216.357 59.9465 222.299 59.9677Z" fill="#CAFF4D"/>
<path d="M49.2207 233.051C55.1848 233.072 59.9389 228.36 59.9813 222.418C60.0238 216.454 55.3121 211.678 49.3907 211.636C43.3418 211.572 38.4393 216.411 38.4817 222.397C38.5029 228.297 43.2778 233.03 49.2207 233.051Z" fill="#CAFF4D"/>
<path d="M265.7 60.0094C271.664 60.0306 276.419 55.3189 276.482 49.3976C276.546 43.3275 271.792 38.5098 265.721 38.5098C259.8 38.5098 255.003 43.2215 254.897 49.1216C254.791 55.0645 259.694 59.9882 265.7 60.0094Z" fill="#CAFF4D"/>
<path d="M49.2804 276.473C55.2234 276.452 59.9775 271.74 59.9987 265.798C60.0199 259.833 55.3719 255.058 49.4293 254.973C43.4016 254.888 38.4779 259.664 38.4143 265.649C38.3719 271.613 43.274 276.494 49.2804 276.473Z" fill="#CAFF4D"/>
<path d="M438.827 233.789C445.067 233.768 450.139 228.695 450.182 222.413C450.224 216.045 445.067 210.846 438.742 210.888C432.523 210.93 427.387 216.045 427.365 222.264C427.323 228.568 432.545 233.81 438.827 233.789Z" fill="#CAFF4D"/>
<path d="M222.467 427.351C216.185 427.245 210.9 432.445 210.879 438.77C210.858 445.095 216.1 450.316 222.382 450.252C228.643 450.188 233.673 445.116 233.695 438.833C233.737 432.551 228.749 427.457 222.467 427.351Z" fill="#CAFF4D"/>
<path d="M92.5564 147.28C98.9873 147.323 104.272 142.059 104.187 135.692C104.102 129.346 98.9447 124.273 92.5988 124.294C86.2103 124.316 81.159 129.367 81.1378 135.756C81.1166 142.144 86.1678 147.238 92.5564 147.28Z" fill="#CAFF4D"/>
<path d="M265.831 427.292C259.527 427.228 254.285 432.385 254.242 438.71C254.2 445.078 259.272 450.277 265.619 450.341C271.922 450.404 277.143 445.268 277.249 438.943C277.313 432.661 272.113 427.355 265.831 427.292Z" fill="#CAFF4D"/>
<path d="M438.675 254.188C432.351 254.272 427.257 259.472 427.321 265.818C427.363 272.143 432.584 277.279 438.909 277.216C445.213 277.152 450.391 271.867 450.307 265.585C450.222 259.281 444.958 254.124 438.675 254.188Z" fill="#CAFF4D"/>
<path d="M135.6 104.177C141.946 104.262 147.188 99.2107 147.273 92.8861C147.358 86.4129 142.243 81.1491 135.833 81.1067C129.551 81.0643 124.308 86.2429 124.224 92.5465C124.139 98.7862 129.317 104.092 135.6 104.177Z" fill="#CAFF4D"/>
<path d="M92.6436 340.375C86.0003 340.375 80.6947 345.702 80.7159 352.323C80.7371 358.946 86.0855 364.188 92.7496 364.145C99.3929 364.103 104.635 358.733 104.55 352.09C104.423 345.532 99.2017 340.375 92.6436 340.375Z" fill="#CAFF4D"/>
<path d="M352.166 104.601C358.724 104.664 364.157 99.2523 364.178 92.673C364.199 86.0726 358.808 80.6605 352.229 80.6817C345.756 80.7029 340.45 85.9665 340.344 92.4823C340.259 99.0827 345.586 104.537 352.166 104.601Z" fill="#CAFF4D"/>
<path d="M395.697 147.792C402.425 147.749 407.71 142.379 407.625 135.609C407.561 129.009 402.213 123.766 395.57 123.787C388.969 123.83 383.621 129.136 383.578 135.715C383.536 142.358 389.033 147.834 395.697 147.792Z" fill="#CAFF4D"/>
<path d="M135.709 383.674C129.108 383.717 123.76 389.044 123.739 395.623C123.696 402.266 129.193 407.721 135.879 407.678C142.607 407.636 147.87 402.245 147.785 395.475C147.7 388.853 142.331 383.632 135.709 383.674Z" fill="#CAFF4D"/>
<path d="M395.762 339.891C388.843 339.849 383.346 345.24 383.261 352.137C383.198 359.014 388.652 364.575 395.529 364.617C402.447 364.66 407.987 359.226 408.051 352.371C408.093 345.516 402.617 339.934 395.762 339.891Z" fill="#CAFF4D"/>
<path d="M352.296 383.292C345.399 383.27 339.902 388.746 339.88 395.622C339.859 402.499 345.334 407.996 352.232 408.017C359.13 408.038 364.648 402.562 364.669 395.686C364.669 388.831 359.173 383.292 352.296 383.292Z" fill="#CAFF4D"/>
<path d="M179.212 105.98C186.514 105.938 192.52 99.8888 192.498 92.5881C192.477 85.2656 186.449 79.2596 179.128 79.2808C171.784 79.302 165.863 85.2661 165.884 92.6516C165.905 100.038 171.89 106.022 179.212 105.98Z" fill="#CAFF4D"/>
<path d="M92.6002 192.468C100.007 192.489 105.886 186.631 105.886 179.203C105.908 171.796 100.029 165.896 92.6426 165.896C85.299 165.896 79.3142 171.838 79.293 179.16C79.293 186.504 85.2359 192.446 92.6002 192.468Z" fill="#CAFF4D"/>
<path d="M308.933 106.128C316.383 106.191 322.495 100.249 322.622 92.8203C322.75 85.4554 316.658 79.237 309.273 79.1523C301.802 79.0674 295.711 85.0311 295.647 92.4807C295.583 99.9727 301.505 106.064 308.933 106.128Z" fill="#CAFF4D"/>
<path d="M92.7466 295.617C85.297 295.553 79.2269 301.538 79.1633 308.988C79.1209 316.48 85.0422 322.55 92.4918 322.592C99.9414 322.634 106.033 316.649 106.139 309.221C106.245 301.878 100.153 295.68 92.7466 295.617Z" fill="#CAFF4D"/>
<path d="M179.175 381.87C171.534 381.87 165.422 387.982 165.422 395.644C165.422 403.306 171.513 409.397 179.175 409.397C186.815 409.397 192.97 403.242 192.97 395.644C192.97 388.046 186.794 381.87 179.175 381.87Z" fill="#CAFF4D"/>
<path d="M395.633 192.935C403.273 192.935 409.45 186.801 409.45 179.203C409.471 171.606 403.273 165.429 395.675 165.408C388.013 165.387 381.922 171.499 381.9 179.161C381.879 186.823 387.971 192.935 395.633 192.935Z" fill="#CAFF4D"/>
<path d="M395.675 295.104C387.907 295.082 381.561 301.45 381.625 309.196C381.689 316.943 388.056 323.162 395.867 323.098C403.55 323.013 409.662 316.773 409.62 309.027C409.556 301.301 403.38 295.125 395.675 295.104Z" fill="#CAFF4D"/>
<path d="M309.145 381.658C301.334 381.637 295.116 387.898 295.158 395.729C295.201 403.413 301.398 409.631 309.081 409.652C316.786 409.674 323.195 403.264 323.131 395.538C323.068 387.898 316.806 381.679 309.145 381.658Z" fill="#CAFF4D"/>
<path d="M135.811 149.937C143.537 149.916 149.883 143.548 149.904 135.802C149.926 127.97 143.41 121.518 135.6 121.624C127.853 121.73 121.613 128.097 121.655 135.886C121.698 143.633 128.086 149.958 135.811 149.937Z" fill="#CAFF4D"/>
<path d="M92.5137 236.529C100.366 236.635 106.776 230.268 106.819 222.394C106.84 214.456 100.558 208.152 92.6409 208.152C84.7669 208.152 78.3572 214.562 78.3996 222.394C78.4421 230.14 84.7245 236.444 92.5137 236.529Z" fill="#CAFF4D"/>
<path d="M222.342 106.852C230.216 106.831 236.52 100.464 236.478 92.5684C236.435 84.6732 230.068 78.3907 222.152 78.4755C214.362 78.5604 208.08 84.8851 208.059 92.6319C208.059 100.421 214.511 106.873 222.342 106.852Z" fill="#CAFF4D"/>
<path d="M265.7 106.961C273.532 106.982 279.92 100.572 279.962 92.7195C280.005 84.8243 273.723 78.4359 265.848 78.3299C258.059 78.2238 251.522 84.6336 251.416 92.444C251.31 100.382 257.784 106.961 265.7 106.961Z" fill="#CAFF4D"/>
<path d="M92.6435 280.059C100.475 280.038 106.864 273.649 106.885 265.775C106.906 257.902 100.603 251.492 92.7283 251.407C84.9391 251.322 78.4023 257.732 78.3387 265.564C78.2538 273.48 84.7484 280.059 92.6435 280.059Z" fill="#CAFF4D"/>
<path d="M135.812 337.767C127.789 337.724 121.21 344.325 121.252 352.326C121.295 360.222 127.81 366.737 135.727 366.758C143.75 366.801 150.265 360.264 150.223 352.178C150.202 344.197 143.813 337.809 135.812 337.767Z" fill="#CAFF4D"/>
<path d="M352.128 150.297C360.129 150.403 366.709 143.866 366.709 135.78C366.709 127.778 360.384 121.369 352.383 121.284C344.381 121.199 337.738 127.757 337.738 135.78C337.738 143.696 344.19 150.212 352.128 150.297Z" fill="#CAFF4D"/>
<path d="M395.763 237.039C403.87 236.954 410.449 230.289 410.365 222.224C410.28 214.117 403.636 207.601 395.529 207.665C387.358 207.728 380.948 214.265 380.99 222.458C381.033 230.565 387.676 237.123 395.763 237.039Z" fill="#CAFF4D"/>
<path d="M222.364 380.957C214.277 380.936 207.635 387.557 207.613 395.623C207.592 403.688 214.214 410.331 222.3 410.352C230.45 410.373 236.966 403.857 236.987 395.707C236.987 387.536 230.471 380.957 222.364 380.957Z" fill="#CAFF4D"/>
<path d="M265.679 380.891C257.571 380.891 250.971 387.449 250.906 395.535C250.864 403.749 257.464 410.371 265.7 410.371C273.871 410.371 280.365 403.897 280.429 395.726C280.493 387.492 273.934 380.891 265.679 380.891Z" fill="#CAFF4D"/>
<path d="M395.632 280.526C403.782 280.547 410.489 273.777 410.425 265.606C410.362 257.541 403.718 250.919 395.653 250.919C387.461 250.898 380.839 257.605 380.903 265.818C380.966 273.968 387.546 280.526 395.632 280.526Z" fill="#CAFF4D"/>
<path d="M352.34 337.446C344.105 337.403 337.462 343.961 337.377 352.175C337.314 360.346 343.935 367.032 352.149 367.074C360.405 367.116 367.028 360.579 367.07 352.345C367.134 344.11 360.575 337.488 352.34 337.446Z" fill="#CAFF4D"/>
<path d="M179.191 151.763C187.978 151.742 195.088 144.611 195.067 135.782C195.067 126.953 187.957 119.843 179.149 119.864C170.362 119.885 163.21 127.059 163.21 135.824C163.21 144.569 170.447 151.784 179.191 151.763Z" fill="#CAFF4D"/>
<path d="M135.855 195.143C144.663 195.079 151.709 187.948 151.688 179.098C151.645 170.269 144.514 163.159 135.706 163.222C126.92 163.286 119.788 170.48 119.81 179.246C119.852 188.012 127.132 195.206 135.855 195.143Z" fill="#CAFF4D"/>
<path d="M135.833 292.963C126.834 292.921 119.639 300.158 119.66 309.178C119.703 318.071 126.834 325.245 135.727 325.287C144.64 325.329 152.005 317.964 151.963 309.051C151.92 300.2 144.705 293.005 135.833 292.963Z" fill="#CAFF4D"/>
<path d="M309.02 151.931C318.04 151.953 325.235 144.779 325.214 135.759C325.193 126.845 318.061 119.671 309.169 119.628C300.212 119.586 292.89 126.886 292.911 135.822C292.932 144.672 300.17 151.91 309.02 151.931Z" fill="#CAFF4D"/>
<path d="M179.408 335.964C170.303 335.837 162.896 343.053 162.79 352.137C162.705 361.072 169.9 368.416 178.898 368.564C187.897 368.712 195.326 361.56 195.453 352.625C195.623 343.456 188.513 336.07 179.408 335.964Z" fill="#CAFF4D"/>
<path d="M352.34 195.479C361.36 195.437 368.555 188.221 368.576 179.222C368.597 170.201 361.424 162.964 352.425 162.879C343.32 162.816 335.933 170.074 335.912 179.137C335.87 188.2 343.256 195.522 352.34 195.479Z" fill="#CAFF4D"/>
<path d="M352.209 292.584C343.019 292.605 335.697 299.948 335.718 309.159C335.739 318.328 343.104 325.672 352.294 325.651C361.462 325.629 368.87 318.201 368.848 309.075C368.806 299.927 361.378 292.562 352.209 292.584Z" fill="#CAFF4D"/>
<path d="M309.167 335.663C300.083 335.621 292.57 343.092 292.506 352.197C292.464 361.281 299.934 368.815 309.018 368.836C318.166 368.879 325.594 361.471 325.637 352.324C325.658 343.176 318.293 335.706 309.167 335.663Z" fill="#CAFF4D"/>
<path d="M222.234 152.757C231.573 152.821 239.277 145.095 239.255 135.735C239.234 126.376 231.466 118.693 222.149 118.82C212.81 118.947 205.383 126.482 205.425 135.82C205.446 145.159 212.938 152.715 222.234 152.757Z" fill="#CAFF4D"/>
<path d="M135.6 239.222C145.087 239.286 152.643 231.836 152.685 222.37C152.727 213.01 145.256 205.455 135.961 205.391C126.516 205.327 118.876 212.862 118.833 222.243C118.791 231.56 126.304 239.158 135.6 239.222Z" fill="#CAFF4D"/>
<path d="M135.746 282.712C145.169 282.733 152.767 275.22 152.831 265.796C152.916 256.436 145.318 248.775 135.915 248.711C126.365 248.648 118.745 256.225 118.745 265.754C118.766 275.156 126.322 282.712 135.746 282.712Z" fill="#CAFF4D"/>
<path d="M265.744 152.843C275.125 152.821 282.723 145.202 282.723 135.8C282.723 126.398 275.146 118.757 265.786 118.715C256.447 118.673 248.743 126.271 248.637 135.652C248.553 145.054 256.321 152.864 265.744 152.843Z" fill="#CAFF4D"/>
<path d="M222.342 334.941C212.749 334.92 205.045 342.603 205.023 352.196C205.002 361.81 212.6 369.515 222.194 369.621C231.787 369.727 239.725 361.831 239.704 352.238C239.661 342.688 231.914 334.962 222.342 334.941Z" fill="#CAFF4D"/>
<path d="M352.399 239.669C361.95 239.606 369.591 231.859 369.548 222.245C369.505 212.673 361.78 204.969 352.208 204.99C342.7 205.011 334.889 212.8 334.868 222.308C334.847 231.902 342.742 239.733 352.399 239.669Z" fill="#CAFF4D"/>
<path d="M352.019 283.136C361.761 283.221 369.572 275.623 369.678 265.902C369.784 256.309 362.143 248.435 352.614 248.307C342.872 248.18 334.934 255.799 334.807 265.435C334.68 275.112 342.362 283.03 352.019 283.136Z" fill="#CAFF4D"/>
<path d="M265.679 334.774C256.044 334.795 248.233 342.69 248.276 352.347C248.339 362.004 256.256 369.857 265.849 369.751C275.484 369.645 283.231 361.707 283.147 352.071C283.062 342.563 275.208 334.774 265.679 334.774Z" fill="#CAFF4D"/>
<path d="M179.088 197.18C189.041 197.222 197.212 189.009 197.149 179.076C197.064 169.186 188.978 161.142 179.13 161.163C169.261 161.206 161.217 169.271 161.217 179.161C161.196 189.051 169.218 197.138 179.088 197.18Z" fill="#CAFF4D"/>
<path d="M309.21 197.371C319.291 197.307 327.441 189.094 327.335 179.076C327.25 168.994 319.079 160.951 308.976 160.993C298.873 161.036 290.83 169.186 290.872 179.31C290.936 189.391 299.086 197.435 309.21 197.371Z" fill="#CAFF4D"/>
<path d="M179.175 290.841C169.157 290.841 160.922 299.097 160.943 309.115C160.965 319.154 169.178 327.367 179.196 327.367C189.235 327.367 197.406 319.175 197.406 309.093C197.385 299.033 189.193 290.841 179.175 290.841Z" fill="#CAFF4D"/>
<path d="M309.145 290.627C298.873 290.605 290.532 298.904 290.553 309.133C290.574 319.257 298.766 327.513 308.933 327.619C319.205 327.725 327.546 319.49 327.588 309.239C327.631 298.904 319.438 290.648 309.145 290.627Z" fill="#CAFF4D"/>
<path d="M222.429 198.392C233.02 198.328 241.573 189.775 241.594 179.227C241.615 168.594 232.934 159.956 222.238 159.998C211.519 160.041 203.052 168.658 203.136 179.418C203.2 189.966 211.817 198.456 222.429 198.392Z" fill="#CAFF4D"/>
<path d="M179.256 241.581C189.804 241.559 198.357 232.964 198.379 222.373C198.4 211.782 189.868 203.144 179.341 203.08C168.708 202.995 159.942 211.676 159.921 222.288C159.879 232.9 168.602 241.602 179.256 241.581Z" fill="#CAFF4D"/>
<path d="M179.191 285.047C189.888 285.047 198.484 276.494 198.505 265.775C198.526 255.078 189.973 246.44 179.297 246.398C168.6 246.356 159.899 254.909 159.835 265.563C159.729 276.324 168.388 285.047 179.191 285.047Z" fill="#CAFF4D"/>
<path d="M265.64 198.581C276.23 198.644 285.017 189.943 285.081 179.33C285.144 168.591 276.379 159.783 265.682 159.804C255.028 159.825 246.411 168.485 246.39 179.16C246.39 189.836 254.985 198.517 265.64 198.581Z" fill="#CAFF4D"/>
<path d="M309.041 241.962C319.866 242.005 328.652 233.197 328.652 222.33C328.652 211.463 319.844 202.656 309.02 202.719C298.302 202.762 289.537 211.527 289.473 222.224C289.451 233.027 298.259 241.92 309.041 241.962Z" fill="#CAFF4D"/>
<path d="M222.212 289.48C211.388 289.565 202.643 298.437 202.707 309.261C202.771 319.936 211.6 328.723 222.276 328.744C233.1 328.765 241.887 319.936 241.866 309.091C241.866 298.203 233.036 289.417 222.212 289.48Z" fill="#CAFF4D"/>
<path d="M265.722 289.376C254.834 289.355 246.005 298.226 246.005 309.157C246.026 320.087 254.876 328.873 265.785 328.831C276.546 328.789 285.354 319.981 285.418 309.199C285.524 298.353 276.588 289.376 265.722 289.376Z" fill="#CAFF4D"/>
<path d="M309.128 285.45C319.995 285.428 328.909 276.493 328.845 265.648C328.782 254.866 319.953 246.037 309.213 245.994C298.304 245.931 289.433 254.781 289.433 265.69C289.411 276.62 298.219 285.45 309.128 285.45Z" fill="#CAFF4D"/>
<path d="M222.32 243.342C233.93 243.32 243.268 233.939 243.268 222.33C243.268 210.699 233.93 201.339 222.32 201.339C210.753 201.339 201.309 210.784 201.309 222.351C201.309 233.876 210.796 243.363 222.32 243.342Z" fill="#CAFF4D"/>
<path d="M265.51 243.511C277.311 243.574 286.904 234.066 286.925 222.329C286.925 210.699 277.417 201.148 265.786 201.127C254.092 201.106 244.605 210.508 244.563 222.202C244.52 233.939 253.858 243.447 265.51 243.511Z" fill="#CAFF4D"/>
<path d="M222.255 286.917C233.928 286.938 243.457 277.515 243.543 265.842C243.628 254.127 234.013 244.491 222.276 244.512C210.603 244.533 201.18 253.999 201.18 265.714C201.159 277.429 210.561 286.896 222.255 286.917Z" fill="#CAFF4D"/>
<path d="M265.809 287.042C277.694 286.999 287.139 277.427 287.054 265.5C286.969 253.763 277.418 244.34 265.618 244.382C253.86 244.424 244.351 253.933 244.33 265.691C244.309 277.534 253.944 287.105 265.809 287.042Z" fill="#CAFF4D"/>
</svg>