<svg width="389" height="378" viewBox="0 0 389 378" fill="none" xmlns="http://www.w3.org/2000/svg">
<ellipse opacity="0.1" cx="1.20305" cy="1.2424" rx="1.20305" ry="1.2424" transform="matrix(-1 0 0 1 194.905 174.515)" fill="#CAFF4D"/>
<ellipse opacity="0.1" cx="1.20305" cy="1.2424" rx="1.20305" ry="1.2424" transform="matrix(-1 0 0 1 169.63 174.515)" fill="#CAFF4D"/>
<ellipse opacity="0.1" cx="1.20304" cy="1.2424" rx="1.20304" ry="1.2424" transform="matrix(-1 0 0 1 144.37 174.515)" fill="#CAFF4D"/>
<ellipse opacity="0.1" cx="1.20307" cy="1.2424" rx="1.20307" ry="1.2424" transform="matrix(-1 0 0 1 119.111 174.515)" fill="#CAFF4D"/>
<ellipse opacity="0.1" cx="1.20305" cy="1.2424" rx="1.20305" ry="1.2424" transform="matrix(-1 0 0 1 93.8496 174.515)" fill="#CAFF4D"/>
<ellipse opacity="0.1" cx="1.20307" cy="1.2424" rx="1.20307" ry="1.2424" transform="matrix(-1 0 0 1 70.9854 174.515)" fill="#CAFF4D"/>
<ellipse opacity="0.1" cx="1.20307" cy="1.2424" rx="1.20307" ry="1.2424" transform="matrix(-1 0 0 1 48.1348 174.515)" fill="#CAFF4D"/>
<ellipse opacity="0.1" cx="1.20305" cy="1.2424" rx="1.20305" ry="1.2424" transform="matrix(-1 0 0 1 25.2715 174.515)" fill="#CAFF4D"/>
<ellipse opacity="0.1" cx="1.20305" cy="1.2424" rx="1.20305" ry="1.2424" transform="matrix(-1 0 0 1 194.905 150.944)" fill="#CAFF4D"/>
<ellipse opacity="0.3" cx="2.40725" cy="2.4826" rx="2.40725" ry="2.4826" transform="matrix(-1 0 0 1 170.836 149.702)" fill="#CAFF4D"/>
<ellipse opacity="0.2" cx="2.40725" cy="2.4826" rx="2.40725" ry="2.4826" transform="matrix(-1 0 0 1 145.576 149.702)" fill="#CAFF4D"/>
<ellipse opacity="0.2" cx="2.40725" cy="2.4826" rx="2.40725" ry="2.4826" transform="matrix(-1 0 0 1 120.314 149.702)" fill="#CAFF4D"/>
<ellipse opacity="0.2" cx="2.40727" cy="2.4826" rx="2.40727" ry="2.4826" transform="matrix(-1 0 0 1 95.04 149.702)" fill="#CAFF4D"/>
<ellipse opacity="0.2" cx="2.40725" cy="2.4826" rx="2.40725" ry="2.4826" transform="matrix(-1 0 0 1 72.1914 149.702)" fill="#CAFF4D"/>
<ellipse opacity="0.2" cx="2.40725" cy="2.4826" rx="2.40725" ry="2.4826" transform="matrix(-1 0 0 1 49.3252 149.702)" fill="#CAFF4D"/>
<ellipse opacity="0.2" cx="2.40725" cy="2.4826" rx="2.40725" ry="2.4826" transform="matrix(-1 0 0 1 26.4746 149.702)" fill="#CAFF4D"/>
<ellipse opacity="0.1" cx="1.20307" cy="1.2424" rx="1.20307" ry="1.2424" transform="matrix(-1 0 0 1 2.40625 150.944)" fill="#CAFF4D"/>
<ellipse opacity="0.1" cx="1.20305" cy="1.2424" rx="1.20305" ry="1.2424" transform="matrix(-1 0 0 1 194.905 127.372)" fill="#CAFF4D"/>
<ellipse opacity="0.3" cx="2.40725" cy="2.4826" rx="2.40725" ry="2.4826" transform="matrix(-1 0 0 1 170.836 126.129)" fill="#CAFF4D"/>
<ellipse opacity="0.3" cx="3.60916" cy="3.72215" rx="3.60916" ry="3.72215" transform="matrix(-1 0 0 1 146.781 124.887)" fill="#CAFF4D"/>
<ellipse opacity="0.3" cx="3.60918" cy="3.72215" rx="3.60918" ry="3.72215" transform="matrix(-1 0 0 1 121.506 124.887)" fill="#CAFF4D"/>
<ellipse opacity="0.3" cx="3.60918" cy="3.72215" rx="3.60918" ry="3.72215" transform="matrix(-1 0 0 1 96.2451 124.887)" fill="#CAFF4D"/>
<ellipse opacity="0.3" cx="3.60916" cy="3.72215" rx="3.60916" ry="3.72215" transform="matrix(-1 0 0 1 73.3965 124.887)" fill="#CAFF4D"/>
<ellipse opacity="0.3" cx="3.60918" cy="3.72215" rx="3.60918" ry="3.72215" transform="matrix(-1 0 0 1 50.5303 124.887)" fill="#CAFF4D"/>
<ellipse opacity="0.2" cx="2.40725" cy="2.4826" rx="2.40725" ry="2.4826" transform="matrix(-1 0 0 1 26.4746 126.129)" fill="#CAFF4D"/>
<ellipse opacity="0.1" cx="1.20307" cy="1.2424" rx="1.20307" ry="1.2424" transform="matrix(-1 0 0 1 2.40625 127.372)" fill="#CAFF4D"/>
<ellipse opacity="0.1" cx="1.20305" cy="1.2424" rx="1.20305" ry="1.2424" transform="matrix(-1 0 0 1 194.905 103.792)" fill="#CAFF4D"/>
<ellipse opacity="0.3" cx="2.40725" cy="2.4826" rx="2.40725" ry="2.4826" transform="matrix(-1 0 0 1 170.836 102.55)" fill="#CAFF4D"/>
<ellipse opacity="0.3" cx="3.60916" cy="3.72215" rx="3.60916" ry="3.72215" transform="matrix(-1 0 0 1 146.781 101.316)" fill="#CAFF4D"/>
<ellipse opacity="0.5" cx="4.81225" cy="4.96287" rx="4.81225" ry="4.96287" transform="matrix(-1 0 0 1 122.712 100.073)" fill="#CAFF4D"/>
<ellipse opacity="0.5" cx="4.81223" cy="4.96287" rx="4.81223" ry="4.96287" transform="matrix(-1 0 0 1 97.4502 100.073)" fill="#CAFF4D"/>
<ellipse opacity="0.5" cx="4.81223" cy="4.96287" rx="4.81223" ry="4.96287" transform="matrix(-1 0 0 1 74.6006 100.073)" fill="#CAFF4D"/>
<ellipse opacity="0.3" cx="3.60918" cy="3.72215" rx="3.60918" ry="3.72215" transform="matrix(-1 0 0 1 50.5303 101.316)" fill="#CAFF4D"/>
<ellipse opacity="0.2" cx="2.40725" cy="2.4826" rx="2.40725" ry="2.4826" transform="matrix(-1 0 0 1 26.4746 102.55)" fill="#CAFF4D"/>
<ellipse opacity="0.1" cx="1.20307" cy="1.2424" rx="1.20307" ry="1.2424" transform="matrix(-1 0 0 1 2.40625 103.792)" fill="#CAFF4D"/>
<ellipse opacity="0.1" cx="1.20305" cy="1.2424" rx="1.20305" ry="1.2424" transform="matrix(-1 0 0 1 194.905 80.2209)" fill="#CAFF4D"/>
<ellipse opacity="0.3" cx="2.40725" cy="2.48259" rx="2.40725" ry="2.48259" transform="matrix(-1 0 0 1 170.836 78.979)" fill="#CAFF4D"/>
<ellipse opacity="0.3" cx="3.60916" cy="3.72215" rx="3.60916" ry="3.72215" transform="matrix(-1 0 0 1 146.781 77.7378)" fill="#CAFF4D"/>
<ellipse opacity="0.5" cx="4.81225" cy="4.96287" rx="4.81225" ry="4.96287" transform="matrix(-1 0 0 1 122.712 76.4954)" fill="#CAFF4D"/>
<ellipse opacity="0.6" cx="6.0153" cy="6.20358" rx="6.0153" ry="6.20358" transform="matrix(-1 0 0 1 98.6553 75.26)" fill="#CAFF4D"/>
<ellipse opacity="0.5" cx="4.81223" cy="4.96287" rx="4.81223" ry="4.96287" transform="matrix(-1 0 0 1 74.6006 76.4954)" fill="#CAFF4D"/>
<ellipse opacity="0.3" cx="3.60918" cy="3.72215" rx="3.60918" ry="3.72215" transform="matrix(-1 0 0 1 50.5303 77.7378)" fill="#CAFF4D"/>
<ellipse opacity="0.2" cx="2.40725" cy="2.48259" rx="2.40725" ry="2.48259" transform="matrix(-1 0 0 1 26.4746 78.979)" fill="#CAFF4D"/>
<ellipse opacity="0.1" cx="1.20307" cy="1.2424" rx="1.20307" ry="1.2424" transform="matrix(-1 0 0 1 2.40625 80.2209)" fill="#CAFF4D"/>
<ellipse opacity="0.1" cx="1.20305" cy="1.2424" rx="1.20305" ry="1.2424" transform="matrix(-1 0 0 1 194.905 54.1655)" fill="#CAFF4D"/>
<ellipse opacity="0.3" cx="2.40725" cy="2.48259" rx="2.40725" ry="2.48259" transform="matrix(-1 0 0 1 170.836 52.925)" fill="#CAFF4D"/>
<ellipse opacity="0.3" cx="3.60916" cy="3.72215" rx="3.60916" ry="3.72215" transform="matrix(-1 0 0 1 146.781 51.6819)" fill="#CAFF4D"/>
<ellipse opacity="0.5" cx="4.81225" cy="4.96286" rx="4.81225" ry="4.96286" transform="matrix(-1 0 0 1 122.712 50.4395)" fill="#CAFF4D"/>
<ellipse opacity="0.5" cx="4.81223" cy="4.96286" rx="4.81223" ry="4.96286" transform="matrix(-1 0 0 1 97.4502 50.4395)" fill="#CAFF4D"/>
<ellipse opacity="0.5" cx="4.81223" cy="4.96286" rx="4.81223" ry="4.96286" transform="matrix(-1 0 0 1 74.6006 50.4395)" fill="#CAFF4D"/>
<ellipse opacity="0.3" cx="3.60918" cy="3.72215" rx="3.60918" ry="3.72215" transform="matrix(-1 0 0 1 50.5303 51.6819)" fill="#CAFF4D"/>
<ellipse opacity="0.2" cx="2.40725" cy="2.48259" rx="2.40725" ry="2.48259" transform="matrix(-1 0 0 1 26.4746 52.925)" fill="#CAFF4D"/>
<ellipse opacity="0.1" cx="1.20307" cy="1.2424" rx="1.20307" ry="1.2424" transform="matrix(-1 0 0 1 2.40625 54.1655)" fill="#CAFF4D"/>
<ellipse opacity="0.1" cx="1.20305" cy="1.2424" rx="1.20305" ry="1.2424" transform="matrix(-1 0 0 1 194.905 28.1104)" fill="#CAFF4D"/>
<ellipse opacity="0.3" cx="2.40725" cy="2.4826" rx="2.40725" ry="2.4826" transform="matrix(-1 0 0 1 170.836 26.8684)" fill="#CAFF4D"/>
<ellipse opacity="0.3" cx="3.60916" cy="3.72215" rx="3.60916" ry="3.72215" transform="matrix(-1 0 0 1 146.781 25.6262)" fill="#CAFF4D"/>
<ellipse opacity="0.3" cx="3.60918" cy="3.72215" rx="3.60918" ry="3.72215" transform="matrix(-1 0 0 1 121.506 25.6262)" fill="#CAFF4D"/>
<ellipse opacity="0.3" cx="3.60918" cy="3.72215" rx="3.60918" ry="3.72215" transform="matrix(-1 0 0 1 96.2451 25.6262)" fill="#CAFF4D"/>
<ellipse opacity="0.3" cx="3.60916" cy="3.72215" rx="3.60916" ry="3.72215" transform="matrix(-1 0 0 1 73.3965 25.6262)" fill="#CAFF4D"/>
<ellipse opacity="0.3" cx="3.60918" cy="3.72215" rx="3.60918" ry="3.72215" transform="matrix(-1 0 0 1 50.5303 25.6262)" fill="#CAFF4D"/>
<ellipse opacity="0.2" cx="2.40725" cy="2.4826" rx="2.40725" ry="2.4826" transform="matrix(-1 0 0 1 26.4746 26.8684)" fill="#CAFF4D"/>
<ellipse opacity="0.1" cx="1.20307" cy="1.2424" rx="1.20307" ry="1.2424" transform="matrix(-1 0 0 1 2.40625 28.1104)" fill="#CAFF4D"/>
<ellipse opacity="0.1" cx="1.20305" cy="1.2424" rx="1.20305" ry="1.2424" transform="matrix(-1 0 0 1 194.905 2.05469)" fill="#CAFF4D"/>
<ellipse opacity="0.3" cx="2.40725" cy="2.4826" rx="2.40725" ry="2.4826" transform="matrix(-1 0 0 1 170.836 0.814453)" fill="#CAFF4D"/>
<ellipse opacity="0.2" cx="2.40725" cy="2.4826" rx="2.40725" ry="2.4826" transform="matrix(-1 0 0 1 145.576 0.814453)" fill="#CAFF4D"/>
<ellipse opacity="0.2" cx="2.40725" cy="2.4826" rx="2.40725" ry="2.4826" transform="matrix(-1 0 0 1 120.314 0.814453)" fill="#CAFF4D"/>
<ellipse opacity="0.2" cx="2.40727" cy="2.4826" rx="2.40727" ry="2.4826" transform="matrix(-1 0 0 1 95.04 0.814453)" fill="#CAFF4D"/>
<ellipse opacity="0.2" cx="2.40725" cy="2.4826" rx="2.40725" ry="2.4826" transform="matrix(-1 0 0 1 72.1914 0.814453)" fill="#CAFF4D"/>
<ellipse opacity="0.2" cx="2.40725" cy="2.4826" rx="2.40725" ry="2.4826" transform="matrix(-1 0 0 1 49.3252 0.814453)" fill="#CAFF4D"/>
<ellipse opacity="0.2" cx="2.40725" cy="2.4826" rx="2.40725" ry="2.4826" transform="matrix(-1 0 0 1 26.4746 0.814453)" fill="#CAFF4D"/>
<ellipse opacity="0.1" cx="1.20307" cy="1.2424" rx="1.20307" ry="1.2424" transform="matrix(-1 0 0 1 2.40625 2.05469)" fill="#CAFF4D"/>
<ellipse opacity="0.1" cx="1.20305" cy="1.2424" rx="1.20305" ry="1.2424" transform="matrix(-1 0 0 1 389 375.515)" fill="#CAFF4D"/>
<ellipse opacity="0.1" cx="1.20305" cy="1.2424" rx="1.20305" ry="1.2424" transform="matrix(-1 0 0 1 363.725 375.515)" fill="#CAFF4D"/>
<ellipse opacity="0.1" cx="1.20304" cy="1.2424" rx="1.20304" ry="1.2424" transform="matrix(-1 0 0 1 338.465 375.515)" fill="#CAFF4D"/>
<ellipse opacity="0.1" cx="1.20307" cy="1.2424" rx="1.20307" ry="1.2424" transform="matrix(-1 0 0 1 313.206 375.515)" fill="#CAFF4D"/>
<ellipse opacity="0.1" cx="1.20305" cy="1.2424" rx="1.20305" ry="1.2424" transform="matrix(-1 0 0 1 287.944 375.515)" fill="#CAFF4D"/>
<ellipse opacity="0.1" cx="1.20307" cy="1.2424" rx="1.20307" ry="1.2424" transform="matrix(-1 0 0 1 265.08 375.515)" fill="#CAFF4D"/>
<ellipse opacity="0.1" cx="1.20307" cy="1.2424" rx="1.20307" ry="1.2424" transform="matrix(-1 0 0 1 242.229 375.515)" fill="#CAFF4D"/>
<ellipse opacity="0.1" cx="1.20305" cy="1.2424" rx="1.20305" ry="1.2424" transform="matrix(-1 0 0 1 219.366 375.515)" fill="#CAFF4D"/>
<ellipse opacity="0.1" cx="1.20305" cy="1.2424" rx="1.20305" ry="1.2424" transform="matrix(-1 0 0 1 389 351.944)" fill="#CAFF4D"/>
<ellipse opacity="0.3" cx="2.40725" cy="2.4826" rx="2.40725" ry="2.4826" transform="matrix(-1 0 0 1 364.931 350.702)" fill="#CAFF4D"/>
<ellipse opacity="0.2" cx="2.40725" cy="2.4826" rx="2.40725" ry="2.4826" transform="matrix(-1 0 0 1 339.671 350.702)" fill="#CAFF4D"/>
<ellipse opacity="0.2" cx="2.40725" cy="2.4826" rx="2.40725" ry="2.4826" transform="matrix(-1 0 0 1 314.409 350.702)" fill="#CAFF4D"/>
<ellipse opacity="0.2" cx="2.40727" cy="2.4826" rx="2.40727" ry="2.4826" transform="matrix(-1 0 0 1 289.135 350.702)" fill="#CAFF4D"/>
<ellipse opacity="0.2" cx="2.40725" cy="2.4826" rx="2.40725" ry="2.4826" transform="matrix(-1 0 0 1 266.286 350.702)" fill="#CAFF4D"/>
<ellipse opacity="0.2" cx="2.40725" cy="2.4826" rx="2.40725" ry="2.4826" transform="matrix(-1 0 0 1 243.42 350.702)" fill="#CAFF4D"/>
<ellipse opacity="0.2" cx="2.40725" cy="2.4826" rx="2.40725" ry="2.4826" transform="matrix(-1 0 0 1 220.569 350.702)" fill="#CAFF4D"/>
<ellipse opacity="0.1" cx="1.20307" cy="1.2424" rx="1.20307" ry="1.2424" transform="matrix(-1 0 0 1 196.501 351.944)" fill="#CAFF4D"/>
<ellipse opacity="0.1" cx="1.20305" cy="1.2424" rx="1.20305" ry="1.2424" transform="matrix(-1 0 0 1 389 328.372)" fill="#CAFF4D"/>
<ellipse opacity="0.3" cx="2.40725" cy="2.4826" rx="2.40725" ry="2.4826" transform="matrix(-1 0 0 1 364.931 327.129)" fill="#CAFF4D"/>
<ellipse opacity="0.3" cx="3.60916" cy="3.72215" rx="3.60916" ry="3.72215" transform="matrix(-1 0 0 1 340.876 325.887)" fill="#CAFF4D"/>
<ellipse opacity="0.3" cx="3.60918" cy="3.72215" rx="3.60918" ry="3.72215" transform="matrix(-1 0 0 1 315.602 325.887)" fill="#CAFF4D"/>
<ellipse opacity="0.3" cx="3.60918" cy="3.72215" rx="3.60918" ry="3.72215" transform="matrix(-1 0 0 1 290.34 325.887)" fill="#CAFF4D"/>
<ellipse opacity="0.3" cx="3.60916" cy="3.72215" rx="3.60916" ry="3.72215" transform="matrix(-1 0 0 1 267.491 325.887)" fill="#CAFF4D"/>
<ellipse opacity="0.3" cx="3.60918" cy="3.72215" rx="3.60918" ry="3.72215" transform="matrix(-1 0 0 1 244.625 325.887)" fill="#CAFF4D"/>
<ellipse opacity="0.2" cx="2.40725" cy="2.4826" rx="2.40725" ry="2.4826" transform="matrix(-1 0 0 1 220.569 327.129)" fill="#CAFF4D"/>
<ellipse opacity="0.1" cx="1.20307" cy="1.2424" rx="1.20307" ry="1.2424" transform="matrix(-1 0 0 1 196.501 328.372)" fill="#CAFF4D"/>
<ellipse opacity="0.1" cx="1.20305" cy="1.2424" rx="1.20305" ry="1.2424" transform="matrix(-1 0 0 1 389 304.792)" fill="#CAFF4D"/>
<ellipse opacity="0.3" cx="2.40725" cy="2.4826" rx="2.40725" ry="2.4826" transform="matrix(-1 0 0 1 364.931 303.55)" fill="#CAFF4D"/>
<ellipse opacity="0.3" cx="3.60916" cy="3.72215" rx="3.60916" ry="3.72215" transform="matrix(-1 0 0 1 340.876 302.316)" fill="#CAFF4D"/>
<ellipse opacity="0.5" cx="4.81225" cy="4.96287" rx="4.81225" ry="4.96287" transform="matrix(-1 0 0 1 316.807 301.073)" fill="#CAFF4D"/>
<ellipse opacity="0.5" cx="4.81223" cy="4.96287" rx="4.81223" ry="4.96287" transform="matrix(-1 0 0 1 291.545 301.073)" fill="#CAFF4D"/>
<ellipse opacity="0.5" cx="4.81223" cy="4.96287" rx="4.81223" ry="4.96287" transform="matrix(-1 0 0 1 268.695 301.073)" fill="#CAFF4D"/>
<ellipse opacity="0.3" cx="3.60918" cy="3.72215" rx="3.60918" ry="3.72215" transform="matrix(-1 0 0 1 244.625 302.316)" fill="#CAFF4D"/>
<ellipse opacity="0.2" cx="2.40725" cy="2.4826" rx="2.40725" ry="2.4826" transform="matrix(-1 0 0 1 220.569 303.55)" fill="#CAFF4D"/>
<ellipse opacity="0.1" cx="1.20307" cy="1.2424" rx="1.20307" ry="1.2424" transform="matrix(-1 0 0 1 196.501 304.792)" fill="#CAFF4D"/>
<ellipse opacity="0.1" cx="1.20305" cy="1.2424" rx="1.20305" ry="1.2424" transform="matrix(-1 0 0 1 389 281.221)" fill="#CAFF4D"/>
<ellipse opacity="0.3" cx="2.40725" cy="2.48259" rx="2.40725" ry="2.48259" transform="matrix(-1 0 0 1 364.931 279.979)" fill="#CAFF4D"/>
<ellipse opacity="0.3" cx="3.60916" cy="3.72215" rx="3.60916" ry="3.72215" transform="matrix(-1 0 0 1 340.876 278.738)" fill="#CAFF4D"/>
<ellipse opacity="0.5" cx="4.81225" cy="4.96287" rx="4.81225" ry="4.96287" transform="matrix(-1 0 0 1 316.807 277.495)" fill="#CAFF4D"/>
<ellipse opacity="0.6" cx="6.0153" cy="6.20358" rx="6.0153" ry="6.20358" transform="matrix(-1 0 0 1 292.75 276.26)" fill="#CAFF4D"/>
<ellipse opacity="0.5" cx="4.81223" cy="4.96287" rx="4.81223" ry="4.96287" transform="matrix(-1 0 0 1 268.695 277.495)" fill="#CAFF4D"/>
<ellipse opacity="0.3" cx="3.60918" cy="3.72215" rx="3.60918" ry="3.72215" transform="matrix(-1 0 0 1 244.625 278.738)" fill="#CAFF4D"/>
<ellipse opacity="0.2" cx="2.40725" cy="2.48259" rx="2.40725" ry="2.48259" transform="matrix(-1 0 0 1 220.569 279.979)" fill="#CAFF4D"/>
<ellipse opacity="0.1" cx="1.20307" cy="1.2424" rx="1.20307" ry="1.2424" transform="matrix(-1 0 0 1 196.501 281.221)" fill="#CAFF4D"/>
<ellipse opacity="0.1" cx="1.20305" cy="1.2424" rx="1.20305" ry="1.2424" transform="matrix(-1 0 0 1 389 255.166)" fill="#CAFF4D"/>
<ellipse opacity="0.3" cx="2.40725" cy="2.48259" rx="2.40725" ry="2.48259" transform="matrix(-1 0 0 1 364.931 253.925)" fill="#CAFF4D"/>
<ellipse opacity="0.3" cx="3.60916" cy="3.72215" rx="3.60916" ry="3.72215" transform="matrix(-1 0 0 1 340.876 252.682)" fill="#CAFF4D"/>
<ellipse opacity="0.5" cx="4.81225" cy="4.96286" rx="4.81225" ry="4.96286" transform="matrix(-1 0 0 1 316.807 251.439)" fill="#CAFF4D"/>
<ellipse opacity="0.5" cx="4.81223" cy="4.96286" rx="4.81223" ry="4.96286" transform="matrix(-1 0 0 1 291.545 251.439)" fill="#CAFF4D"/>
<ellipse opacity="0.5" cx="4.81223" cy="4.96286" rx="4.81223" ry="4.96286" transform="matrix(-1 0 0 1 268.695 251.439)" fill="#CAFF4D"/>
<ellipse opacity="0.3" cx="3.60918" cy="3.72215" rx="3.60918" ry="3.72215" transform="matrix(-1 0 0 1 244.625 252.682)" fill="#CAFF4D"/>
<ellipse opacity="0.2" cx="2.40725" cy="2.48259" rx="2.40725" ry="2.48259" transform="matrix(-1 0 0 1 220.569 253.925)" fill="#CAFF4D"/>
<ellipse opacity="0.1" cx="1.20307" cy="1.2424" rx="1.20307" ry="1.2424" transform="matrix(-1 0 0 1 196.501 255.166)" fill="#CAFF4D"/>
<ellipse opacity="0.1" cx="1.20305" cy="1.2424" rx="1.20305" ry="1.2424" transform="matrix(-1 0 0 1 389 229.11)" fill="#CAFF4D"/>
<ellipse opacity="0.3" cx="2.40725" cy="2.4826" rx="2.40725" ry="2.4826" transform="matrix(-1 0 0 1 364.931 227.868)" fill="#CAFF4D"/>
<ellipse opacity="0.3" cx="3.60916" cy="3.72215" rx="3.60916" ry="3.72215" transform="matrix(-1 0 0 1 340.876 226.626)" fill="#CAFF4D"/>
<ellipse opacity="0.3" cx="3.60918" cy="3.72215" rx="3.60918" ry="3.72215" transform="matrix(-1 0 0 1 315.602 226.626)" fill="#CAFF4D"/>
<ellipse opacity="0.3" cx="3.60918" cy="3.72215" rx="3.60918" ry="3.72215" transform="matrix(-1 0 0 1 290.34 226.626)" fill="#CAFF4D"/>
<ellipse opacity="0.3" cx="3.60916" cy="3.72215" rx="3.60916" ry="3.72215" transform="matrix(-1 0 0 1 267.491 226.626)" fill="#CAFF4D"/>
<ellipse opacity="0.3" cx="3.60918" cy="3.72215" rx="3.60918" ry="3.72215" transform="matrix(-1 0 0 1 244.625 226.626)" fill="#CAFF4D"/>
<ellipse opacity="0.2" cx="2.40725" cy="2.4826" rx="2.40725" ry="2.4826" transform="matrix(-1 0 0 1 220.569 227.868)" fill="#CAFF4D"/>
<ellipse opacity="0.1" cx="1.20307" cy="1.2424" rx="1.20307" ry="1.2424" transform="matrix(-1 0 0 1 196.501 229.11)" fill="#CAFF4D"/>
<ellipse opacity="0.1" cx="1.20305" cy="1.2424" rx="1.20305" ry="1.2424" transform="matrix(-1 0 0 1 389 203.055)" fill="#CAFF4D"/>
<ellipse opacity="0.3" cx="2.40725" cy="2.4826" rx="2.40725" ry="2.4826" transform="matrix(-1 0 0 1 364.931 201.814)" fill="#CAFF4D"/>
<ellipse opacity="0.2" cx="2.40725" cy="2.4826" rx="2.40725" ry="2.4826" transform="matrix(-1 0 0 1 339.671 201.814)" fill="#CAFF4D"/>
<ellipse opacity="0.2" cx="2.40725" cy="2.4826" rx="2.40725" ry="2.4826" transform="matrix(-1 0 0 1 314.409 201.814)" fill="#CAFF4D"/>
<ellipse opacity="0.2" cx="2.40727" cy="2.4826" rx="2.40727" ry="2.4826" transform="matrix(-1 0 0 1 289.135 201.814)" fill="#CAFF4D"/>
<ellipse opacity="0.2" cx="2.40725" cy="2.4826" rx="2.40725" ry="2.4826" transform="matrix(-1 0 0 1 266.286 201.814)" fill="#CAFF4D"/>
<ellipse opacity="0.2" cx="2.40725" cy="2.4826" rx="2.40725" ry="2.4826" transform="matrix(-1 0 0 1 243.42 201.814)" fill="#CAFF4D"/>
<ellipse opacity="0.2" cx="2.40725" cy="2.4826" rx="2.40725" ry="2.4826" transform="matrix(-1 0 0 1 220.569 201.814)" fill="#CAFF4D"/>
<ellipse opacity="0.1" cx="1.20307" cy="1.2424" rx="1.20307" ry="1.2424" transform="matrix(-1 0 0 1 196.501 203.055)" fill="#CAFF4D"/>
<ellipse opacity="0.1" cx="1.20305" cy="1.2424" rx="1.20305" ry="1.2424" transform="matrix(-1 0 0 1 363.725 177)" fill="#CAFF4D"/>
<ellipse opacity="0.1" cx="1.20304" cy="1.2424" rx="1.20304" ry="1.2424" transform="matrix(-1 0 0 1 338.465 177)" fill="#CAFF4D"/>
<ellipse opacity="0.1" cx="1.20307" cy="1.2424" rx="1.20307" ry="1.2424" transform="matrix(-1 0 0 1 313.206 177)" fill="#CAFF4D"/>
<ellipse opacity="0.1" cx="1.20305" cy="1.2424" rx="1.20305" ry="1.2424" transform="matrix(-1 0 0 1 287.944 177)" fill="#CAFF4D"/>
<ellipse opacity="0.1" cx="1.20307" cy="1.2424" rx="1.20307" ry="1.2424" transform="matrix(-1 0 0 1 265.08 177)" fill="#CAFF4D"/>
<ellipse opacity="0.1" cx="1.20307" cy="1.2424" rx="1.20307" ry="1.2424" transform="matrix(-1 0 0 1 242.229 177)" fill="#CAFF4D"/>
<ellipse opacity="0.1" cx="1.20305" cy="1.2424" rx="1.20305" ry="1.2424" transform="matrix(-1 0 0 1 219.365 177)" fill="#CAFF4D"/>
<ellipse opacity="0.1" cx="1.20305" cy="1.2424" rx="1.20305" ry="1.2424" transform="matrix(-1 0 0 1 389 174.515)" fill="#CAFF4D" fill-opacity="0.3"/>
<ellipse opacity="0.1" cx="1.20305" cy="1.2424" rx="1.20305" ry="1.2424" transform="matrix(-1 0 0 1 363.725 174.515)" fill="#CAFF4D" fill-opacity="0.3"/>
<ellipse opacity="0.1" cx="1.20304" cy="1.2424" rx="1.20304" ry="1.2424" transform="matrix(-1 0 0 1 338.465 174.515)" fill="#CAFF4D" fill-opacity="0.3"/>
<ellipse opacity="0.1" cx="1.20307" cy="1.2424" rx="1.20307" ry="1.2424" transform="matrix(-1 0 0 1 313.206 174.515)" fill="#CAFF4D" fill-opacity="0.3"/>
<ellipse opacity="0.1" cx="1.20305" cy="1.2424" rx="1.20305" ry="1.2424" transform="matrix(-1 0 0 1 287.944 174.515)" fill="#CAFF4D" fill-opacity="0.3"/>
<ellipse opacity="0.1" cx="1.20307" cy="1.2424" rx="1.20307" ry="1.2424" transform="matrix(-1 0 0 1 265.08 174.515)" fill="#CAFF4D" fill-opacity="0.3"/>
<ellipse opacity="0.1" cx="1.20307" cy="1.2424" rx="1.20307" ry="1.2424" transform="matrix(-1 0 0 1 242.229 174.515)" fill="#CAFF4D" fill-opacity="0.3"/>
<ellipse opacity="0.1" cx="1.20305" cy="1.2424" rx="1.20305" ry="1.2424" transform="matrix(-1 0 0 1 219.366 174.515)" fill="#CAFF4D" fill-opacity="0.3"/>
<ellipse opacity="0.1" cx="1.20305" cy="1.2424" rx="1.20305" ry="1.2424" transform="matrix(-1 0 0 1 389 150.944)" fill="#CAFF4D" fill-opacity="0.3"/>
<ellipse opacity="0.3" cx="2.40725" cy="2.4826" rx="2.40725" ry="2.4826" transform="matrix(-1 0 0 1 364.931 149.702)" fill="#CAFF4D" fill-opacity="0.3"/>
<ellipse opacity="0.2" cx="2.40725" cy="2.4826" rx="2.40725" ry="2.4826" transform="matrix(-1 0 0 1 339.671 149.702)" fill="#CAFF4D" fill-opacity="0.3"/>
<ellipse opacity="0.2" cx="2.40725" cy="2.4826" rx="2.40725" ry="2.4826" transform="matrix(-1 0 0 1 314.409 149.702)" fill="#CAFF4D" fill-opacity="0.3"/>
<ellipse opacity="0.2" cx="2.40727" cy="2.4826" rx="2.40727" ry="2.4826" transform="matrix(-1 0 0 1 289.135 149.702)" fill="#CAFF4D" fill-opacity="0.3"/>
<ellipse opacity="0.2" cx="2.40725" cy="2.4826" rx="2.40725" ry="2.4826" transform="matrix(-1 0 0 1 266.286 149.702)" fill="#CAFF4D" fill-opacity="0.3"/>
<ellipse opacity="0.2" cx="2.40725" cy="2.4826" rx="2.40725" ry="2.4826" transform="matrix(-1 0 0 1 243.42 149.702)" fill="#CAFF4D" fill-opacity="0.3"/>
<ellipse opacity="0.2" cx="2.40725" cy="2.4826" rx="2.40725" ry="2.4826" transform="matrix(-1 0 0 1 220.569 149.702)" fill="#CAFF4D" fill-opacity="0.3"/>
<ellipse opacity="0.1" cx="1.20307" cy="1.2424" rx="1.20307" ry="1.2424" transform="matrix(-1 0 0 1 196.501 150.944)" fill="#CAFF4D" fill-opacity="0.3"/>
<ellipse opacity="0.1" cx="1.20305" cy="1.2424" rx="1.20305" ry="1.2424" transform="matrix(-1 0 0 1 389 127.372)" fill="#CAFF4D" fill-opacity="0.3"/>
<ellipse opacity="0.3" cx="2.40725" cy="2.4826" rx="2.40725" ry="2.4826" transform="matrix(-1 0 0 1 364.931 126.129)" fill="#CAFF4D" fill-opacity="0.3"/>
<ellipse opacity="0.3" cx="3.60916" cy="3.72215" rx="3.60916" ry="3.72215" transform="matrix(-1 0 0 1 340.876 124.887)" fill="#CAFF4D" fill-opacity="0.3"/>
<ellipse opacity="0.3" cx="3.60918" cy="3.72215" rx="3.60918" ry="3.72215" transform="matrix(-1 0 0 1 315.602 124.887)" fill="#CAFF4D" fill-opacity="0.3"/>
<ellipse opacity="0.3" cx="3.60918" cy="3.72215" rx="3.60918" ry="3.72215" transform="matrix(-1 0 0 1 290.34 124.887)" fill="#CAFF4D" fill-opacity="0.3"/>
<ellipse opacity="0.3" cx="3.60916" cy="3.72215" rx="3.60916" ry="3.72215" transform="matrix(-1 0 0 1 267.491 124.887)" fill="#CAFF4D" fill-opacity="0.3"/>
<ellipse opacity="0.3" cx="3.60918" cy="3.72215" rx="3.60918" ry="3.72215" transform="matrix(-1 0 0 1 244.625 124.887)" fill="#CAFF4D" fill-opacity="0.3"/>
<ellipse opacity="0.2" cx="2.40725" cy="2.4826" rx="2.40725" ry="2.4826" transform="matrix(-1 0 0 1 220.569 126.129)" fill="#CAFF4D" fill-opacity="0.3"/>
<ellipse opacity="0.1" cx="1.20307" cy="1.2424" rx="1.20307" ry="1.2424" transform="matrix(-1 0 0 1 196.501 127.372)" fill="#CAFF4D" fill-opacity="0.3"/>
<ellipse opacity="0.1" cx="1.20305" cy="1.2424" rx="1.20305" ry="1.2424" transform="matrix(-1 0 0 1 389 103.792)" fill="#CAFF4D" fill-opacity="0.3"/>
<ellipse opacity="0.3" cx="2.40725" cy="2.4826" rx="2.40725" ry="2.4826" transform="matrix(-1 0 0 1 364.931 102.55)" fill="#CAFF4D" fill-opacity="0.3"/>
<ellipse opacity="0.3" cx="3.60916" cy="3.72215" rx="3.60916" ry="3.72215" transform="matrix(-1 0 0 1 340.876 101.316)" fill="#CAFF4D" fill-opacity="0.3"/>
<ellipse opacity="0.5" cx="4.81225" cy="4.96287" rx="4.81225" ry="4.96287" transform="matrix(-1 0 0 1 316.807 100.073)" fill="#CAFF4D" fill-opacity="0.3"/>
<ellipse opacity="0.5" cx="4.81223" cy="4.96287" rx="4.81223" ry="4.96287" transform="matrix(-1 0 0 1 291.545 100.073)" fill="#CAFF4D" fill-opacity="0.3"/>
<ellipse opacity="0.5" cx="4.81223" cy="4.96287" rx="4.81223" ry="4.96287" transform="matrix(-1 0 0 1 268.695 100.073)" fill="#CAFF4D" fill-opacity="0.3"/>
<ellipse opacity="0.3" cx="3.60918" cy="3.72215" rx="3.60918" ry="3.72215" transform="matrix(-1 0 0 1 244.625 101.316)" fill="#CAFF4D" fill-opacity="0.3"/>
<ellipse opacity="0.2" cx="2.40725" cy="2.4826" rx="2.40725" ry="2.4826" transform="matrix(-1 0 0 1 220.569 102.55)" fill="#CAFF4D" fill-opacity="0.3"/>
<ellipse opacity="0.1" cx="1.20307" cy="1.2424" rx="1.20307" ry="1.2424" transform="matrix(-1 0 0 1 196.501 103.792)" fill="#CAFF4D" fill-opacity="0.3"/>
<ellipse opacity="0.1" cx="1.20305" cy="1.2424" rx="1.20305" ry="1.2424" transform="matrix(-1 0 0 1 389 80.2209)" fill="#CAFF4D" fill-opacity="0.3"/>
<ellipse opacity="0.3" cx="2.40725" cy="2.48259" rx="2.40725" ry="2.48259" transform="matrix(-1 0 0 1 364.931 78.979)" fill="#CAFF4D" fill-opacity="0.3"/>
<ellipse opacity="0.3" cx="3.60916" cy="3.72215" rx="3.60916" ry="3.72215" transform="matrix(-1 0 0 1 340.876 77.7378)" fill="#CAFF4D" fill-opacity="0.3"/>
<ellipse opacity="0.5" cx="4.81225" cy="4.96287" rx="4.81225" ry="4.96287" transform="matrix(-1 0 0 1 316.807 76.4954)" fill="#CAFF4D" fill-opacity="0.3"/>
<ellipse opacity="0.6" cx="6.0153" cy="6.20358" rx="6.0153" ry="6.20358" transform="matrix(-1 0 0 1 292.75 75.26)" fill="#CAFF4D" fill-opacity="0.3"/>
<ellipse opacity="0.5" cx="4.81223" cy="4.96287" rx="4.81223" ry="4.96287" transform="matrix(-1 0 0 1 268.695 76.4954)" fill="#CAFF4D" fill-opacity="0.3"/>
<ellipse opacity="0.3" cx="3.60918" cy="3.72215" rx="3.60918" ry="3.72215" transform="matrix(-1 0 0 1 244.625 77.7378)" fill="#CAFF4D" fill-opacity="0.3"/>
<ellipse opacity="0.2" cx="2.40725" cy="2.48259" rx="2.40725" ry="2.48259" transform="matrix(-1 0 0 1 220.569 78.979)" fill="#CAFF4D" fill-opacity="0.3"/>
<ellipse opacity="0.1" cx="1.20307" cy="1.2424" rx="1.20307" ry="1.2424" transform="matrix(-1 0 0 1 196.501 80.2209)" fill="#CAFF4D" fill-opacity="0.3"/>
<ellipse opacity="0.1" cx="1.20305" cy="1.2424" rx="1.20305" ry="1.2424" transform="matrix(-1 0 0 1 389 54.1655)" fill="#CAFF4D" fill-opacity="0.3"/>
<ellipse opacity="0.3" cx="2.40725" cy="2.48259" rx="2.40725" ry="2.48259" transform="matrix(-1 0 0 1 364.931 52.925)" fill="#CAFF4D" fill-opacity="0.3"/>
<ellipse opacity="0.3" cx="3.60916" cy="3.72215" rx="3.60916" ry="3.72215" transform="matrix(-1 0 0 1 340.876 51.6819)" fill="#CAFF4D" fill-opacity="0.3"/>
<ellipse opacity="0.5" cx="4.81225" cy="4.96286" rx="4.81225" ry="4.96286" transform="matrix(-1 0 0 1 316.807 50.4395)" fill="#CAFF4D" fill-opacity="0.3"/>
<ellipse opacity="0.5" cx="4.81223" cy="4.96286" rx="4.81223" ry="4.96286" transform="matrix(-1 0 0 1 291.545 50.4395)" fill="#CAFF4D" fill-opacity="0.3"/>
<ellipse opacity="0.5" cx="4.81223" cy="4.96286" rx="4.81223" ry="4.96286" transform="matrix(-1 0 0 1 268.695 50.4395)" fill="#CAFF4D" fill-opacity="0.3"/>
<ellipse opacity="0.3" cx="3.60918" cy="3.72215" rx="3.60918" ry="3.72215" transform="matrix(-1 0 0 1 244.625 51.6819)" fill="#CAFF4D" fill-opacity="0.3"/>
<ellipse opacity="0.2" cx="2.40725" cy="2.48259" rx="2.40725" ry="2.48259" transform="matrix(-1 0 0 1 220.569 52.925)" fill="#CAFF4D" fill-opacity="0.3"/>
<ellipse opacity="0.1" cx="1.20307" cy="1.2424" rx="1.20307" ry="1.2424" transform="matrix(-1 0 0 1 196.501 54.1655)" fill="#CAFF4D" fill-opacity="0.3"/>
<ellipse opacity="0.1" cx="1.20305" cy="1.2424" rx="1.20305" ry="1.2424" transform="matrix(-1 0 0 1 389 28.1104)" fill="#CAFF4D" fill-opacity="0.3"/>
<ellipse opacity="0.3" cx="2.40725" cy="2.4826" rx="2.40725" ry="2.4826" transform="matrix(-1 0 0 1 364.931 26.8684)" fill="#CAFF4D" fill-opacity="0.3"/>
<ellipse opacity="0.3" cx="3.60916" cy="3.72215" rx="3.60916" ry="3.72215" transform="matrix(-1 0 0 1 340.876 25.6262)" fill="#CAFF4D" fill-opacity="0.3"/>
<ellipse opacity="0.3" cx="3.60918" cy="3.72215" rx="3.60918" ry="3.72215" transform="matrix(-1 0 0 1 315.602 25.6262)" fill="#CAFF4D" fill-opacity="0.3"/>
<ellipse opacity="0.3" cx="3.60918" cy="3.72215" rx="3.60918" ry="3.72215" transform="matrix(-1 0 0 1 290.34 25.6262)" fill="#CAFF4D" fill-opacity="0.3"/>
<ellipse opacity="0.3" cx="3.60916" cy="3.72215" rx="3.60916" ry="3.72215" transform="matrix(-1 0 0 1 267.491 25.6262)" fill="#CAFF4D" fill-opacity="0.3"/>
<ellipse opacity="0.3" cx="3.60918" cy="3.72215" rx="3.60918" ry="3.72215" transform="matrix(-1 0 0 1 244.625 25.6262)" fill="#CAFF4D" fill-opacity="0.3"/>
<ellipse opacity="0.2" cx="2.40725" cy="2.4826" rx="2.40725" ry="2.4826" transform="matrix(-1 0 0 1 220.569 26.8684)" fill="#CAFF4D" fill-opacity="0.3"/>
<ellipse opacity="0.1" cx="1.20307" cy="1.2424" rx="1.20307" ry="1.2424" transform="matrix(-1 0 0 1 196.501 28.1104)" fill="#CAFF4D" fill-opacity="0.3"/>
<ellipse opacity="0.1" cx="1.20305" cy="1.2424" rx="1.20305" ry="1.2424" transform="matrix(-1 0 0 1 389 2.05469)" fill="#CAFF4D" fill-opacity="0.3"/>
<ellipse opacity="0.3" cx="2.40725" cy="2.4826" rx="2.40725" ry="2.4826" transform="matrix(-1 0 0 1 364.931 0.814453)" fill="#CAFF4D" fill-opacity="0.3"/>
<ellipse opacity="0.2" cx="2.40725" cy="2.4826" rx="2.40725" ry="2.4826" transform="matrix(-1 0 0 1 339.671 0.814453)" fill="#CAFF4D" fill-opacity="0.3"/>
<ellipse opacity="0.2" cx="2.40725" cy="2.4826" rx="2.40725" ry="2.4826" transform="matrix(-1 0 0 1 314.409 0.814453)" fill="#CAFF4D" fill-opacity="0.3"/>
<ellipse opacity="0.2" cx="2.40727" cy="2.4826" rx="2.40727" ry="2.4826" transform="matrix(-1 0 0 1 289.135 0.814453)" fill="#CAFF4D" fill-opacity="0.3"/>
<ellipse opacity="0.2" cx="2.40725" cy="2.4826" rx="2.40725" ry="2.4826" transform="matrix(-1 0 0 1 266.286 0.814453)" fill="#CAFF4D" fill-opacity="0.3"/>
<ellipse opacity="0.2" cx="2.40725" cy="2.4826" rx="2.40725" ry="2.4826" transform="matrix(-1 0 0 1 243.42 0.814453)" fill="#CAFF4D" fill-opacity="0.3"/>
<ellipse opacity="0.2" cx="2.40725" cy="2.4826" rx="2.40725" ry="2.4826" transform="matrix(-1 0 0 1 220.569 0.814453)" fill="#CAFF4D" fill-opacity="0.3"/>
<ellipse opacity="0.1" cx="1.20307" cy="1.2424" rx="1.20307" ry="1.2424" transform="matrix(-1 0 0 1 196.501 2.05469)" fill="#CAFF4D" fill-opacity="0.3"/>
<ellipse opacity="0.1" cx="1.20305" cy="1.2424" rx="1.20305" ry="1.2424" transform="matrix(-1 0 0 1 196.905 375.515)" fill="#CAFF4D" fill-opacity="0.3"/>
<ellipse opacity="0.1" cx="1.20305" cy="1.2424" rx="1.20305" ry="1.2424" transform="matrix(-1 0 0 1 171.63 375.515)" fill="#CAFF4D" fill-opacity="0.3"/>
<ellipse opacity="0.1" cx="1.20304" cy="1.2424" rx="1.20304" ry="1.2424" transform="matrix(-1 0 0 1 146.37 375.515)" fill="#CAFF4D" fill-opacity="0.3"/>
<ellipse opacity="0.1" cx="1.20307" cy="1.2424" rx="1.20307" ry="1.2424" transform="matrix(-1 0 0 1 121.111 375.515)" fill="#CAFF4D" fill-opacity="0.3"/>
<ellipse opacity="0.1" cx="1.20305" cy="1.2424" rx="1.20305" ry="1.2424" transform="matrix(-1 0 0 1 95.8496 375.515)" fill="#CAFF4D" fill-opacity="0.3"/>
<ellipse opacity="0.1" cx="1.20307" cy="1.2424" rx="1.20307" ry="1.2424" transform="matrix(-1 0 0 1 72.9854 375.515)" fill="#CAFF4D" fill-opacity="0.3"/>
<ellipse opacity="0.1" cx="1.20307" cy="1.2424" rx="1.20307" ry="1.2424" transform="matrix(-1 0 0 1 50.1348 375.515)" fill="#CAFF4D" fill-opacity="0.3"/>
<ellipse opacity="0.1" cx="1.20305" cy="1.2424" rx="1.20305" ry="1.2424" transform="matrix(-1 0 0 1 27.2715 375.515)" fill="#CAFF4D" fill-opacity="0.3"/>
<ellipse opacity="0.1" cx="1.20305" cy="1.2424" rx="1.20305" ry="1.2424" transform="matrix(-1 0 0 1 196.905 351.944)" fill="#CAFF4D" fill-opacity="0.3"/>
<ellipse opacity="0.3" cx="2.40725" cy="2.4826" rx="2.40725" ry="2.4826" transform="matrix(-1 0 0 1 172.836 350.702)" fill="#CAFF4D" fill-opacity="0.3"/>
<ellipse opacity="0.2" cx="2.40725" cy="2.4826" rx="2.40725" ry="2.4826" transform="matrix(-1 0 0 1 147.576 350.702)" fill="#CAFF4D" fill-opacity="0.3"/>
<ellipse opacity="0.2" cx="2.40725" cy="2.4826" rx="2.40725" ry="2.4826" transform="matrix(-1 0 0 1 122.314 350.702)" fill="#CAFF4D" fill-opacity="0.3"/>
<ellipse opacity="0.2" cx="2.40727" cy="2.4826" rx="2.40727" ry="2.4826" transform="matrix(-1 0 0 1 97.04 350.702)" fill="#CAFF4D" fill-opacity="0.3"/>
<ellipse opacity="0.2" cx="2.40725" cy="2.4826" rx="2.40725" ry="2.4826" transform="matrix(-1 0 0 1 74.1914 350.702)" fill="#CAFF4D" fill-opacity="0.3"/>
<ellipse opacity="0.2" cx="2.40725" cy="2.4826" rx="2.40725" ry="2.4826" transform="matrix(-1 0 0 1 51.3252 350.702)" fill="#CAFF4D" fill-opacity="0.3"/>
<ellipse opacity="0.2" cx="2.40725" cy="2.4826" rx="2.40725" ry="2.4826" transform="matrix(-1 0 0 1 28.4746 350.702)" fill="#CAFF4D" fill-opacity="0.3"/>
<ellipse opacity="0.1" cx="1.20307" cy="1.2424" rx="1.20307" ry="1.2424" transform="matrix(-1 0 0 1 4.40625 351.944)" fill="#CAFF4D" fill-opacity="0.3"/>
<ellipse opacity="0.1" cx="1.20305" cy="1.2424" rx="1.20305" ry="1.2424" transform="matrix(-1 0 0 1 196.905 328.372)" fill="#CAFF4D" fill-opacity="0.3"/>
<ellipse opacity="0.3" cx="2.40725" cy="2.4826" rx="2.40725" ry="2.4826" transform="matrix(-1 0 0 1 172.836 327.129)" fill="#CAFF4D" fill-opacity="0.3"/>
<ellipse opacity="0.3" cx="3.60916" cy="3.72215" rx="3.60916" ry="3.72215" transform="matrix(-1 0 0 1 148.781 325.887)" fill="#CAFF4D" fill-opacity="0.3"/>
<ellipse opacity="0.3" cx="3.60918" cy="3.72215" rx="3.60918" ry="3.72215" transform="matrix(-1 0 0 1 123.506 325.887)" fill="#CAFF4D" fill-opacity="0.3"/>
<ellipse opacity="0.3" cx="3.60918" cy="3.72215" rx="3.60918" ry="3.72215" transform="matrix(-1 0 0 1 98.2451 325.887)" fill="#CAFF4D" fill-opacity="0.3"/>
<ellipse opacity="0.3" cx="3.60916" cy="3.72215" rx="3.60916" ry="3.72215" transform="matrix(-1 0 0 1 75.3965 325.887)" fill="#CAFF4D" fill-opacity="0.3"/>
<ellipse opacity="0.3" cx="3.60918" cy="3.72215" rx="3.60918" ry="3.72215" transform="matrix(-1 0 0 1 52.5303 325.887)" fill="#CAFF4D" fill-opacity="0.3"/>
<ellipse opacity="0.2" cx="2.40725" cy="2.4826" rx="2.40725" ry="2.4826" transform="matrix(-1 0 0 1 28.4746 327.129)" fill="#CAFF4D" fill-opacity="0.3"/>
<ellipse opacity="0.1" cx="1.20307" cy="1.2424" rx="1.20307" ry="1.2424" transform="matrix(-1 0 0 1 4.40625 328.372)" fill="#CAFF4D" fill-opacity="0.3"/>
<ellipse opacity="0.1" cx="1.20305" cy="1.2424" rx="1.20305" ry="1.2424" transform="matrix(-1 0 0 1 196.905 304.792)" fill="#CAFF4D" fill-opacity="0.3"/>
<ellipse opacity="0.3" cx="2.40725" cy="2.4826" rx="2.40725" ry="2.4826" transform="matrix(-1 0 0 1 172.836 303.55)" fill="#CAFF4D" fill-opacity="0.3"/>
<ellipse opacity="0.3" cx="3.60916" cy="3.72215" rx="3.60916" ry="3.72215" transform="matrix(-1 0 0 1 148.781 302.316)" fill="#CAFF4D" fill-opacity="0.3"/>
<ellipse opacity="0.5" cx="4.81225" cy="4.96287" rx="4.81225" ry="4.96287" transform="matrix(-1 0 0 1 124.712 301.073)" fill="#CAFF4D" fill-opacity="0.3"/>
<ellipse opacity="0.5" cx="4.81223" cy="4.96287" rx="4.81223" ry="4.96287" transform="matrix(-1 0 0 1 99.4502 301.073)" fill="#CAFF4D" fill-opacity="0.3"/>
<ellipse opacity="0.5" cx="4.81223" cy="4.96287" rx="4.81223" ry="4.96287" transform="matrix(-1 0 0 1 76.6006 301.073)" fill="#CAFF4D" fill-opacity="0.3"/>
<ellipse opacity="0.3" cx="3.60918" cy="3.72215" rx="3.60918" ry="3.72215" transform="matrix(-1 0 0 1 52.5303 302.316)" fill="#CAFF4D" fill-opacity="0.3"/>
<ellipse opacity="0.2" cx="2.40725" cy="2.4826" rx="2.40725" ry="2.4826" transform="matrix(-1 0 0 1 28.4746 303.55)" fill="#CAFF4D" fill-opacity="0.3"/>
<ellipse opacity="0.1" cx="1.20307" cy="1.2424" rx="1.20307" ry="1.2424" transform="matrix(-1 0 0 1 4.40625 304.792)" fill="#CAFF4D" fill-opacity="0.3"/>
<ellipse opacity="0.1" cx="1.20305" cy="1.2424" rx="1.20305" ry="1.2424" transform="matrix(-1 0 0 1 196.905 281.221)" fill="#CAFF4D" fill-opacity="0.3"/>
<ellipse opacity="0.3" cx="2.40725" cy="2.48259" rx="2.40725" ry="2.48259" transform="matrix(-1 0 0 1 172.836 279.979)" fill="#CAFF4D" fill-opacity="0.3"/>
<ellipse opacity="0.3" cx="3.60916" cy="3.72215" rx="3.60916" ry="3.72215" transform="matrix(-1 0 0 1 148.781 278.738)" fill="#CAFF4D" fill-opacity="0.3"/>
<ellipse opacity="0.5" cx="4.81225" cy="4.96287" rx="4.81225" ry="4.96287" transform="matrix(-1 0 0 1 124.712 277.495)" fill="#CAFF4D" fill-opacity="0.3"/>
<ellipse opacity="0.6" cx="6.0153" cy="6.20358" rx="6.0153" ry="6.20358" transform="matrix(-1 0 0 1 100.655 276.26)" fill="#CAFF4D" fill-opacity="0.3"/>
<ellipse opacity="0.5" cx="4.81223" cy="4.96287" rx="4.81223" ry="4.96287" transform="matrix(-1 0 0 1 76.6006 277.495)" fill="#CAFF4D" fill-opacity="0.3"/>
<ellipse opacity="0.3" cx="3.60918" cy="3.72215" rx="3.60918" ry="3.72215" transform="matrix(-1 0 0 1 52.5303 278.738)" fill="#CAFF4D" fill-opacity="0.3"/>
<ellipse opacity="0.2" cx="2.40725" cy="2.48259" rx="2.40725" ry="2.48259" transform="matrix(-1 0 0 1 28.4746 279.979)" fill="#CAFF4D" fill-opacity="0.3"/>
<ellipse opacity="0.1" cx="1.20307" cy="1.2424" rx="1.20307" ry="1.2424" transform="matrix(-1 0 0 1 4.40625 281.221)" fill="#CAFF4D" fill-opacity="0.3"/>
<ellipse opacity="0.1" cx="1.20305" cy="1.2424" rx="1.20305" ry="1.2424" transform="matrix(-1 0 0 1 196.905 255.166)" fill="#CAFF4D" fill-opacity="0.3"/>
<ellipse opacity="0.3" cx="2.40725" cy="2.48259" rx="2.40725" ry="2.48259" transform="matrix(-1 0 0 1 172.836 253.925)" fill="#CAFF4D" fill-opacity="0.3"/>
<ellipse opacity="0.3" cx="3.60916" cy="3.72215" rx="3.60916" ry="3.72215" transform="matrix(-1 0 0 1 148.781 252.682)" fill="#CAFF4D" fill-opacity="0.3"/>
<ellipse opacity="0.5" cx="4.81225" cy="4.96286" rx="4.81225" ry="4.96286" transform="matrix(-1 0 0 1 124.712 251.439)" fill="#CAFF4D" fill-opacity="0.3"/>
<ellipse opacity="0.5" cx="4.81223" cy="4.96286" rx="4.81223" ry="4.96286" transform="matrix(-1 0 0 1 99.4502 251.439)" fill="#CAFF4D" fill-opacity="0.3"/>
<ellipse opacity="0.5" cx="4.81223" cy="4.96286" rx="4.81223" ry="4.96286" transform="matrix(-1 0 0 1 76.6006 251.439)" fill="#CAFF4D" fill-opacity="0.3"/>
<ellipse opacity="0.3" cx="3.60918" cy="3.72215" rx="3.60918" ry="3.72215" transform="matrix(-1 0 0 1 52.5303 252.682)" fill="#CAFF4D" fill-opacity="0.3"/>
<ellipse opacity="0.2" cx="2.40725" cy="2.48259" rx="2.40725" ry="2.48259" transform="matrix(-1 0 0 1 28.4746 253.925)" fill="#CAFF4D" fill-opacity="0.3"/>
<ellipse opacity="0.1" cx="1.20307" cy="1.2424" rx="1.20307" ry="1.2424" transform="matrix(-1 0 0 1 4.40625 255.166)" fill="#CAFF4D" fill-opacity="0.3"/>
<ellipse opacity="0.1" cx="1.20305" cy="1.2424" rx="1.20305" ry="1.2424" transform="matrix(-1 0 0 1 196.905 229.11)" fill="#CAFF4D" fill-opacity="0.3"/>
<ellipse opacity="0.3" cx="2.40725" cy="2.4826" rx="2.40725" ry="2.4826" transform="matrix(-1 0 0 1 172.836 227.868)" fill="#CAFF4D" fill-opacity="0.3"/>
<ellipse opacity="0.3" cx="3.60916" cy="3.72215" rx="3.60916" ry="3.72215" transform="matrix(-1 0 0 1 148.781 226.626)" fill="#CAFF4D" fill-opacity="0.3"/>
<ellipse opacity="0.3" cx="3.60918" cy="3.72215" rx="3.60918" ry="3.72215" transform="matrix(-1 0 0 1 123.506 226.626)" fill="#CAFF4D" fill-opacity="0.3"/>
<ellipse opacity="0.3" cx="3.60918" cy="3.72215" rx="3.60918" ry="3.72215" transform="matrix(-1 0 0 1 98.2451 226.626)" fill="#CAFF4D" fill-opacity="0.3"/>
<ellipse opacity="0.3" cx="3.60916" cy="3.72215" rx="3.60916" ry="3.72215" transform="matrix(-1 0 0 1 75.3965 226.626)" fill="#CAFF4D" fill-opacity="0.3"/>
<ellipse opacity="0.3" cx="3.60918" cy="3.72215" rx="3.60918" ry="3.72215" transform="matrix(-1 0 0 1 52.5303 226.626)" fill="#CAFF4D" fill-opacity="0.3"/>
<ellipse opacity="0.2" cx="2.40725" cy="2.4826" rx="2.40725" ry="2.4826" transform="matrix(-1 0 0 1 28.4746 227.868)" fill="#CAFF4D" fill-opacity="0.3"/>
<ellipse opacity="0.1" cx="1.20307" cy="1.2424" rx="1.20307" ry="1.2424" transform="matrix(-1 0 0 1 4.40625 229.11)" fill="#CAFF4D" fill-opacity="0.3"/>
<ellipse opacity="0.1" cx="1.20305" cy="1.2424" rx="1.20305" ry="1.2424" transform="matrix(-1 0 0 1 196.905 203.055)" fill="#CAFF4D" fill-opacity="0.3"/>
<ellipse opacity="0.3" cx="2.40725" cy="2.4826" rx="2.40725" ry="2.4826" transform="matrix(-1 0 0 1 172.836 201.814)" fill="#CAFF4D" fill-opacity="0.3"/>
<ellipse opacity="0.2" cx="2.40725" cy="2.4826" rx="2.40725" ry="2.4826" transform="matrix(-1 0 0 1 147.576 201.814)" fill="#CAFF4D" fill-opacity="0.3"/>
<ellipse opacity="0.2" cx="2.40725" cy="2.4826" rx="2.40725" ry="2.4826" transform="matrix(-1 0 0 1 122.314 201.814)" fill="#CAFF4D" fill-opacity="0.3"/>
<ellipse opacity="0.2" cx="2.40727" cy="2.4826" rx="2.40727" ry="2.4826" transform="matrix(-1 0 0 1 97.04 201.814)" fill="#CAFF4D" fill-opacity="0.3"/>
<ellipse opacity="0.2" cx="2.40725" cy="2.4826" rx="2.40725" ry="2.4826" transform="matrix(-1 0 0 1 74.1914 201.814)" fill="#CAFF4D" fill-opacity="0.3"/>
<ellipse opacity="0.2" cx="2.40725" cy="2.4826" rx="2.40725" ry="2.4826" transform="matrix(-1 0 0 1 51.3252 201.814)" fill="#CAFF4D" fill-opacity="0.3"/>
<ellipse opacity="0.2" cx="2.40725" cy="2.4826" rx="2.40725" ry="2.4826" transform="matrix(-1 0 0 1 28.4746 201.814)" fill="#CAFF4D" fill-opacity="0.3"/>
<ellipse opacity="0.1" cx="1.20307" cy="1.2424" rx="1.20307" ry="1.2424" transform="matrix(-1 0 0 1 4.40625 203.055)" fill="#CAFF4D" fill-opacity="0.3"/>
<ellipse opacity="0.1" cx="1.20305" cy="1.2424" rx="1.20305" ry="1.2424" transform="matrix(-1 0 0 1 171.63 177)" fill="#CAFF4D" fill-opacity="0.3"/>
<ellipse opacity="0.1" cx="1.20304" cy="1.2424" rx="1.20304" ry="1.2424" transform="matrix(-1 0 0 1 146.37 177)" fill="#CAFF4D" fill-opacity="0.3"/>
<ellipse opacity="0.1" cx="1.20307" cy="1.2424" rx="1.20307" ry="1.2424" transform="matrix(-1 0 0 1 121.111 177)" fill="#CAFF4D" fill-opacity="0.3"/>
<ellipse opacity="0.1" cx="1.20305" cy="1.2424" rx="1.20305" ry="1.2424" transform="matrix(-1 0 0 1 95.8496 177)" fill="#CAFF4D" fill-opacity="0.3"/>
<ellipse opacity="0.1" cx="1.20307" cy="1.2424" rx="1.20307" ry="1.2424" transform="matrix(-1 0 0 1 72.9854 177)" fill="#CAFF4D" fill-opacity="0.3"/>
<ellipse opacity="0.1" cx="1.20307" cy="1.2424" rx="1.20307" ry="1.2424" transform="matrix(-1 0 0 1 50.1348 177)" fill="#CAFF4D" fill-opacity="0.3"/>
<ellipse opacity="0.1" cx="1.20305" cy="1.2424" rx="1.20305" ry="1.2424" transform="matrix(-1 0 0 1 27.2705 177)" fill="#CAFF4D" fill-opacity="0.3"/>
</svg>