<svg width="132" height="16" viewBox="0 0 132 16" fill="none" xmlns="http://www.w3.org/2000/svg">
<path d="M9.60498 16H2.49898L0.100977 13.602V11.05H4.36898V12.48H7.73498V10.06H2.52098L0.122977 7.662V2.998L2.52098 0.599999H9.42898L11.827 2.998V5.572H7.55898V4.12H4.39098V6.54H9.60498L12.003 8.938V13.602L9.60498 16ZM22.4667 16H18.0667V11.578L13.5347 4.032V0.599999H17.9347V3.416L20.2667 7.662L22.5987 3.416V0.599999H26.9987V4.054L22.4667 11.578V16ZM33.4743 16H29.2063V0.599999H33.4743V2.514L38.8643 8.564C38.7543 7.53 38.6663 6.122 38.6663 5.22V0.599999H42.9343V16H38.6663V14.086L33.2763 8.036C33.3863 9.07 33.4743 10.478 33.4743 11.38V16ZM55.9622 16H48.3062L45.9082 13.602V2.998L48.3062 0.599999H55.9622L58.3602 2.998V6.672H53.9602V4.56H50.3082V12.04H53.9602V9.928H58.3602V13.602L55.9622 16Z" fill="#CAFF4D"/>
<path d="M75.4149 16H65.5149V0.599999H69.9149V12.04H75.4149V16ZM80.6906 16H76.2906V13.008L80.1626 0.599999H86.2786L90.1506 12.986V16H85.7506V13.492L85.6186 12.964H80.8226L80.6906 13.492V16ZM83.2206 4.076L81.5926 9.444H84.8486L83.2206 4.076ZM99.2949 16H94.8949V11.578L90.3629 4.032V0.599999H94.7629V3.416L97.0949 7.662L99.4269 3.416V0.599999H103.827V4.054L99.2949 11.578V16ZM116.814 16H106.034V0.599999H116.682V4.56H110.434V6.694H115.054V9.994H110.434V12.04H116.814V16ZM123.862 16H119.462V0.599999H129.296L131.694 2.998V8.08L130.132 9.642L131.782 11.292V16H127.382V11.93L126.898 11.446H123.862V16ZM127.294 7.442V4.12H123.862V7.926H126.81L127.294 7.442Z" fill="white"/>
</svg>