
<svg width="535" height="554" viewBox="0 0 535 554" fill="none" xmlns="http://www.w3.org/2000/svg">
<rect width="535" height="554" fill="#070411"/>
<path fill-rule="evenodd" clip-rule="evenodd" d="M313.854 136.111C316.776 137.294 319.598 138.662 322.334 140.03C321.422 140.757 320.325 141.213 319.056 141.213C316.234 141.213 313.954 138.933 313.854 136.111ZM380.628 193.038C382.367 195.688 383.906 198.425 385.374 201.162C384.462 202.53 382.909 203.357 381.184 203.357C378.362 203.357 375.982 201.076 375.982 198.154C375.982 195.503 378.077 193.323 380.628 193.052V193.038ZM398.686 235.537C399.413 238.544 400.14 241.552 400.696 244.659C398.415 244.117 396.676 242.008 396.676 239.557C396.676 237.917 397.503 236.449 398.686 235.537ZM402.149 255.149C402.52 258.527 402.791 261.905 402.876 265.368C402.506 265.453 402.235 265.453 401.879 265.453C399.057 265.453 396.676 263.173 396.676 260.251C396.676 257.429 399.042 255.149 401.879 255.149L402.149 255.149ZM402.876 275.943C402.791 279.407 402.506 282.784 402.149 286.162H401.879C399.057 286.162 396.676 283.882 396.676 281.06C396.676 278.138 399.042 275.858 401.879 275.858C402.249 275.858 402.52 275.858 402.876 275.943ZM400.681 296.652C400.14 299.759 399.399 302.767 398.672 305.774C397.489 304.862 396.662 303.408 396.662 301.755C396.662 299.289 398.401 297.194 400.681 296.652ZM385.36 340.166C383.906 342.903 382.353 345.639 380.614 348.29C378.063 348.02 375.968 345.825 375.968 343.088C375.968 340.266 378.334 337.986 381.17 337.986C382.909 337.986 384.448 338.812 385.36 340.181V340.166ZM322.337 401.281C319.6 402.65 316.778 403.932 313.856 405.201C313.942 402.379 316.222 400.099 319.059 400.099C320.341 400.099 321.424 400.555 322.337 401.281ZM200.022 405.201C197.101 404.018 194.279 402.65 191.542 401.281C192.454 400.555 193.552 400.098 194.82 400.098C197.642 400.098 199.922 402.379 200.022 405.201ZM133.248 348.274C131.509 345.623 129.97 342.887 128.502 340.15C129.414 338.782 130.968 337.955 132.692 337.955C135.514 337.955 137.894 340.236 137.894 343.058C137.894 345.794 135.799 347.989 133.248 348.26V348.274ZM115.19 305.775C114.463 302.767 113.737 299.76 113.181 296.653C115.461 297.195 117.2 299.304 117.2 301.755C117.2 303.394 116.373 304.862 115.19 305.775ZM111.727 286.163C111.356 282.785 111.086 279.407 111 275.944C111.371 275.858 111.641 275.858 111.998 275.858C114.82 275.858 117.2 278.139 117.2 281.061C117.2 283.883 114.834 286.163 111.998 286.163L111.727 286.163ZM111 265.369C111.086 261.905 111.371 258.527 111.727 255.149H111.998C114.82 255.149 117.2 257.43 117.2 260.252C117.2 263.174 114.834 265.454 111.998 265.454C111.627 265.454 111.356 265.454 111 265.369ZM113.195 244.66C113.737 241.552 114.478 238.545 115.205 235.538C116.387 236.45 117.214 237.904 117.214 239.557C117.214 242.023 115.475 244.118 113.195 244.66ZM128.516 201.146C129.97 198.409 131.524 195.673 133.263 193.021C135.814 193.292 137.909 195.487 137.909 198.124C137.909 201.046 135.543 203.326 132.706 203.326C130.968 203.326 129.428 202.499 128.516 201.131V201.146ZM191.54 140.03C194.276 138.662 197.098 137.294 200.02 136.111C199.934 138.933 197.654 141.213 194.818 141.213C193.535 141.213 192.452 140.757 191.54 140.03ZM256.946 255.149C259.768 255.149 262.148 257.43 262.148 260.252C262.148 263.174 259.782 265.454 256.946 265.454C254.124 265.454 251.743 263.174 251.743 260.252C251.743 257.43 254.109 255.149 256.946 255.149ZM256.946 400.1C259.768 400.1 262.148 402.38 262.148 405.202C262.148 408.124 259.782 410.405 256.946 410.405C254.124 410.405 251.743 408.124 251.743 405.202C251.743 402.38 254.109 400.1 256.946 400.1ZM256.946 234.458C259.768 234.458 262.148 236.738 262.148 239.56C262.148 242.482 259.782 244.762 256.946 244.762C254.124 244.762 251.743 242.482 251.743 239.56C251.743 236.738 254.109 234.458 256.946 234.458ZM256.946 379.408C259.768 379.408 262.148 381.689 262.148 384.511C262.148 387.432 259.782 389.713 256.946 389.713C254.124 389.713 251.743 387.433 251.743 384.511C251.743 381.689 254.109 379.408 256.946 379.408ZM256.946 213.766C259.768 213.766 262.148 216.047 262.148 218.869C262.148 221.79 259.782 224.071 256.946 224.071C254.124 224.071 251.743 221.79 251.743 218.869C251.743 216.047 254.109 213.766 256.946 213.766ZM256.946 358.717C259.768 358.717 262.148 360.997 262.148 363.819C262.148 366.741 259.782 369.021 256.946 369.021C254.124 369.021 251.743 366.741 251.743 363.819C251.743 360.997 254.109 358.717 256.946 358.717ZM256.946 193.075C259.768 193.075 262.148 195.355 262.148 198.177C262.148 201.099 259.782 203.379 256.946 203.379C254.124 203.379 251.743 201.099 251.743 198.177C251.743 195.355 254.109 193.075 256.946 193.075ZM256.946 338.025C259.768 338.025 262.148 340.306 262.148 343.128C262.148 346.049 259.782 348.33 256.946 348.33C254.124 348.33 251.743 346.049 251.743 343.128C251.743 340.306 254.109 338.025 256.946 338.025ZM256.946 172.383C259.768 172.383 262.148 174.664 262.148 177.585C262.148 180.407 259.782 182.688 256.946 182.688C254.124 182.688 251.743 180.407 251.743 177.585C251.743 174.664 254.109 172.383 256.946 172.383ZM256.946 317.334C259.768 317.334 262.148 319.614 262.148 322.436C262.148 325.358 259.782 327.638 256.946 327.638C254.124 327.638 251.743 325.358 251.743 322.436C251.743 319.614 254.109 317.334 256.946 317.334ZM256.946 151.692C259.768 151.692 262.148 153.972 262.148 156.894C262.148 159.716 259.782 161.996 256.946 161.996C254.124 161.996 251.743 159.716 251.743 156.894C251.743 153.972 254.109 151.692 256.946 151.692ZM256.946 296.642C259.768 296.642 262.148 298.922 262.148 301.844C262.148 304.666 259.782 306.947 256.946 306.947C254.124 306.947 251.743 304.666 251.743 301.844C251.743 298.923 254.109 296.642 256.946 296.642ZM256.946 131C259.768 131 262.148 133.28 262.148 136.202C262.148 139.024 259.782 141.305 256.946 141.305C254.124 141.305 251.743 139.024 251.743 136.202C251.743 133.28 254.109 131 256.946 131ZM256.946 275.951C259.768 275.951 262.148 278.231 262.148 281.153C262.148 283.975 259.782 286.255 256.946 286.255C254.124 286.255 251.743 283.975 251.743 281.153C251.743 278.231 254.109 275.951 256.946 275.951ZM381.186 255.241C384.008 255.241 386.389 257.522 386.389 260.344C386.389 263.265 384.023 265.546 381.186 265.546C378.364 265.546 375.984 263.266 375.984 260.344C375.984 257.522 378.35 255.241 381.186 255.241ZM194.834 255.241C197.657 255.241 200.037 257.522 200.037 260.344C200.037 263.265 197.671 265.546 194.834 265.546C192.012 265.546 189.632 263.266 189.632 260.344C189.632 257.522 191.998 255.241 194.834 255.241ZM381.186 234.532C384.008 234.532 386.389 236.813 386.389 239.635C386.389 242.556 384.023 244.837 381.186 244.837C378.364 244.837 375.984 242.556 375.984 239.635C375.984 236.813 378.35 234.532 381.186 234.532ZM194.834 234.532C197.657 234.532 200.037 236.813 200.037 239.635C200.037 242.556 197.671 244.837 194.834 244.837C192.012 244.837 189.632 242.556 189.632 239.635C189.632 236.813 191.998 234.532 194.834 234.532ZM194.834 379.483C197.657 379.483 200.037 381.763 200.037 384.585C200.037 387.507 197.671 389.787 194.834 389.787C192.012 389.787 189.632 387.507 189.632 384.585C189.632 381.763 191.998 379.483 194.834 379.483ZM381.186 213.841C384.008 213.841 386.389 216.121 386.389 218.943C386.389 221.865 384.023 224.145 381.186 224.145C378.364 224.145 375.984 221.865 375.984 218.943C375.984 216.121 378.35 213.841 381.186 213.841ZM194.834 213.841C197.657 213.841 200.037 216.121 200.037 218.943C200.037 221.865 197.671 224.145 194.834 224.145C192.012 224.145 189.632 221.865 189.632 218.943C189.632 216.121 191.998 213.841 194.834 213.841ZM194.834 358.791C197.657 358.791 200.037 361.072 200.037 363.894C200.037 366.815 197.671 369.096 194.834 369.096C192.012 369.096 189.632 366.815 189.632 363.894C189.632 361.072 191.998 358.791 194.834 358.791ZM194.834 193.149C197.657 193.149 200.037 195.43 200.037 198.251C200.037 201.173 197.671 203.454 194.834 203.454C192.012 203.454 189.632 201.173 189.632 198.251C189.632 195.429 191.998 193.149 194.834 193.149ZM194.834 338.1C197.657 338.1 200.037 340.38 200.037 343.202C200.037 346.124 197.671 348.404 194.834 348.404C192.012 348.404 189.632 346.124 189.632 343.202C189.632 340.38 191.998 338.1 194.834 338.1ZM194.834 172.458C197.657 172.458 200.037 174.738 200.037 177.66C200.037 180.482 197.671 182.762 194.834 182.762C192.012 182.762 189.632 180.482 189.632 177.66C189.632 174.738 191.998 172.458 194.834 172.458ZM381.186 317.408C384.008 317.408 386.389 319.688 386.389 322.51C386.389 325.432 384.023 327.713 381.186 327.713C378.364 327.713 375.984 325.432 375.984 322.51C375.984 319.688 378.35 317.408 381.186 317.408ZM194.834 317.408C197.657 317.408 200.037 319.688 200.037 322.51C200.037 325.432 197.671 327.713 194.834 327.713C192.012 327.713 189.632 325.432 189.632 322.51C189.632 319.688 191.998 317.408 194.834 317.408ZM194.834 151.766C197.657 151.766 200.037 154.046 200.037 156.968C200.037 159.79 197.671 162.071 194.834 162.071C192.012 162.071 189.632 159.79 189.632 156.968C189.632 154.046 191.998 151.766 194.834 151.766ZM381.186 296.717C384.008 296.717 386.389 298.997 386.389 301.919C386.389 304.741 384.023 307.021 381.186 307.021C378.364 307.021 375.984 304.741 375.984 301.919C375.984 298.997 378.35 296.717 381.186 296.717ZM194.834 296.717C197.657 296.717 200.037 298.997 200.037 301.919C200.037 304.741 197.671 307.021 194.834 307.021C192.012 307.021 189.632 304.741 189.632 301.919C189.632 298.997 191.998 296.717 194.834 296.717ZM381.186 276.007C384.008 276.007 386.389 278.288 386.389 281.21C386.389 284.032 384.023 286.312 381.186 286.312C378.364 286.312 375.984 284.032 375.984 281.21C375.984 278.288 378.35 276.007 381.186 276.007ZM194.834 276.007C197.657 276.007 200.037 278.288 200.037 281.21C200.037 284.032 197.671 286.312 194.834 286.312C192.012 286.312 189.632 284.032 189.632 281.21C189.632 278.288 191.998 276.007 194.834 276.007ZM319.075 255.298C321.897 255.298 324.277 257.579 324.277 260.401C324.277 263.322 321.911 265.603 319.075 265.603C316.253 265.603 313.873 263.322 313.873 260.401C313.873 257.579 316.239 255.298 319.075 255.298ZM132.723 255.298C135.545 255.298 137.926 257.579 137.926 260.401C137.926 263.322 135.56 265.603 132.723 265.603C129.901 265.603 127.521 263.322 127.521 260.401C127.521 257.579 129.887 255.298 132.723 255.298ZM319.075 234.589C321.897 234.589 324.277 236.87 324.277 239.692C324.277 242.613 321.911 244.894 319.075 244.894C316.253 244.894 313.873 242.613 313.873 239.692C313.873 236.869 316.239 234.589 319.075 234.589ZM132.723 234.589C135.545 234.589 137.926 236.87 137.926 239.692C137.926 242.613 135.56 244.894 132.723 244.894C129.901 244.894 127.521 242.613 127.521 239.692C127.521 236.869 129.887 234.589 132.723 234.589ZM319.075 379.54C321.897 379.54 324.277 381.82 324.277 384.642C324.277 387.564 321.911 389.844 319.075 389.844C316.253 389.844 313.873 387.564 313.873 384.642C313.873 381.82 316.239 379.54 319.075 379.54ZM319.075 213.898C321.897 213.898 324.277 216.178 324.277 219C324.277 221.922 321.911 224.202 319.075 224.202C316.253 224.202 313.873 221.922 313.873 219C313.873 216.178 316.239 213.898 319.075 213.898ZM132.723 213.898C135.545 213.898 137.926 216.178 137.926 219C137.926 221.922 135.56 224.202 132.723 224.202C129.901 224.202 127.521 221.922 127.521 219C127.521 216.178 129.887 213.898 132.723 213.898ZM319.075 358.848C321.897 358.848 324.277 361.129 324.277 363.95C324.277 366.872 321.911 369.153 319.075 369.153C316.253 369.153 313.873 366.872 313.873 363.95C313.873 361.128 316.239 358.848 319.075 358.848ZM319.075 193.206C321.897 193.206 324.277 195.486 324.277 198.308C324.277 201.23 321.911 203.511 319.075 203.511C316.253 203.511 313.873 201.23 313.873 198.308C313.873 195.486 316.239 193.206 319.075 193.206ZM319.075 338.157C321.897 338.157 324.277 340.437 324.277 343.259C324.277 346.181 321.911 348.461 319.075 348.461C316.253 348.461 313.873 346.181 313.873 343.259C313.873 340.437 316.239 338.157 319.075 338.157ZM319.075 172.515C321.897 172.515 324.277 174.795 324.277 177.717C324.277 180.539 321.911 182.819 319.075 182.819C316.253 182.819 313.873 180.539 313.873 177.717C313.873 174.795 316.239 172.515 319.075 172.515ZM319.075 317.465C321.897 317.465 324.277 319.745 324.277 322.567C324.277 325.489 321.911 327.77 319.075 327.77C316.253 327.77 313.873 325.489 313.873 322.567C313.873 319.745 316.239 317.465 319.075 317.465ZM132.723 317.465C135.545 317.465 137.926 319.745 137.926 322.567C137.926 325.489 135.56 327.77 132.723 327.77C129.901 327.77 127.521 325.489 127.521 322.567C127.521 319.745 129.887 317.465 132.723 317.465ZM319.075 151.823C321.897 151.823 324.277 154.103 324.277 157.025C324.277 159.847 321.911 162.127 319.075 162.127C316.253 162.127 313.873 159.847 313.873 157.025C313.873 154.103 316.239 151.823 319.075 151.823ZM319.075 296.773C321.897 296.773 324.277 299.054 324.277 301.976C324.277 304.798 321.911 307.078 319.075 307.078C316.253 307.078 313.873 304.798 313.873 301.976C313.873 299.054 316.239 296.773 319.075 296.773ZM132.723 296.773C135.545 296.773 137.926 299.054 137.926 301.976C137.926 304.798 135.56 307.078 132.723 307.078C129.901 307.078 127.521 304.798 127.521 301.976C127.521 299.054 129.887 296.773 132.723 296.773ZM319.075 276.064C321.897 276.064 324.277 278.345 324.277 281.267C324.277 284.089 321.911 286.369 319.075 286.369C316.253 286.369 313.873 284.088 313.873 281.267C313.873 278.345 316.239 276.064 319.075 276.064ZM132.723 276.064C135.545 276.064 137.926 278.345 137.926 281.267C137.926 284.089 135.56 286.369 132.723 286.369C129.901 286.369 127.521 284.088 127.521 281.267C127.521 278.345 129.887 276.064 132.723 276.064ZM236.254 255.355C239.076 255.355 241.456 257.636 241.456 260.458C241.456 263.379 239.09 265.66 236.254 265.66C233.432 265.66 231.052 263.379 231.052 260.458C231.052 257.636 233.418 255.355 236.254 255.355ZM236.254 400.306C239.076 400.306 241.456 402.586 241.456 405.408C241.456 408.33 239.09 410.61 236.254 410.61C233.432 410.61 231.052 408.33 231.052 405.408C231.052 402.586 233.418 400.306 236.254 400.306ZM236.254 234.664C239.076 234.664 241.456 236.944 241.456 239.766C241.456 242.688 239.09 244.968 236.254 244.968C233.432 244.968 231.052 242.688 231.052 239.766C231.052 236.944 233.418 234.664 236.254 234.664ZM236.254 379.614C239.076 379.614 241.456 381.895 241.456 384.716C241.456 387.638 239.09 389.919 236.254 389.919C233.432 389.919 231.052 387.638 231.052 384.716C231.052 381.894 233.418 379.614 236.254 379.614ZM236.254 213.972C239.076 213.972 241.456 216.253 241.456 219.074C241.456 221.996 239.09 224.277 236.254 224.277C233.432 224.277 231.052 221.996 231.052 219.074C231.052 216.252 233.418 213.972 236.254 213.972ZM236.254 358.923C239.076 358.923 241.456 361.203 241.456 364.025C241.456 366.947 239.09 369.227 236.254 369.227C233.432 369.227 231.052 366.947 231.052 364.025C231.052 361.203 233.418 358.923 236.254 358.923ZM236.254 193.281C239.076 193.281 241.456 195.561 241.456 198.383C241.456 201.305 239.09 203.585 236.254 203.585C233.432 203.585 231.052 201.305 231.052 198.383C231.052 195.561 233.418 193.281 236.254 193.281ZM236.254 338.231C239.076 338.231 241.456 340.511 241.456 343.333C241.456 346.255 239.09 348.536 236.254 348.536C233.432 348.536 231.052 346.255 231.052 343.333C231.052 340.511 233.418 338.231 236.254 338.231ZM236.254 172.589C239.076 172.589 241.456 174.869 241.456 177.791C241.456 180.613 239.09 182.893 236.254 182.893C233.432 182.893 231.052 180.613 231.052 177.791C231.052 174.869 233.418 172.589 236.254 172.589ZM236.254 317.539C239.076 317.539 241.456 319.82 241.456 322.642C241.456 325.564 239.09 327.844 236.254 327.844C233.432 327.844 231.052 325.564 231.052 322.642C231.052 319.82 233.418 317.539 236.254 317.539ZM236.254 151.897C239.076 151.897 241.456 154.178 241.456 157.1C241.456 159.922 239.09 162.202 236.254 162.202C233.432 162.202 231.052 159.922 231.052 157.1C231.052 154.178 233.418 151.897 236.254 151.897ZM236.254 296.848C239.076 296.848 241.456 299.128 241.456 302.05C241.456 304.872 239.09 307.152 236.254 307.152C233.432 307.152 231.052 304.872 231.052 302.05C231.052 299.128 233.418 296.848 236.254 296.848ZM236.254 131.206C239.076 131.206 241.456 133.486 241.456 136.408C241.456 139.23 239.09 141.51 236.254 141.51C233.432 141.51 231.052 139.23 231.052 136.408C231.052 133.486 233.418 131.206 236.254 131.206ZM236.254 276.156C239.076 276.156 241.456 278.437 241.456 281.359C241.456 284.181 239.09 286.461 236.254 286.461C233.432 286.461 231.052 284.18 231.052 281.359C231.052 278.437 233.418 276.156 236.254 276.156ZM360.495 255.447C363.317 255.447 365.697 257.728 365.697 260.549C365.697 263.471 363.331 265.752 360.495 265.752C357.673 265.752 355.293 263.471 355.293 260.549C355.293 257.727 357.658 255.447 360.495 255.447ZM174.143 255.447C176.965 255.447 179.345 257.728 179.345 260.549C179.345 263.471 176.979 265.752 174.143 265.752C171.321 265.752 168.941 263.471 168.941 260.549C168.941 257.727 171.307 255.447 174.143 255.447ZM360.495 234.738C363.317 234.738 365.697 237.019 365.697 239.84C365.697 242.762 363.331 245.043 360.495 245.043C357.673 245.043 355.293 242.762 355.293 239.84C355.293 237.018 357.658 234.738 360.495 234.738ZM174.143 234.738C176.965 234.738 179.345 237.019 179.345 239.84C179.345 242.762 176.979 245.043 174.143 245.043C171.321 245.043 168.941 242.762 168.941 239.84C168.941 237.018 171.307 234.738 174.143 234.738ZM174.143 379.689C176.965 379.689 179.345 381.969 179.345 384.791C179.345 387.713 176.979 389.993 174.143 389.993C171.321 389.993 168.941 387.713 168.941 384.791C168.941 381.969 171.307 379.689 174.143 379.689ZM360.495 214.047C363.317 214.047 365.697 216.327 365.697 219.149C365.697 222.071 363.331 224.351 360.495 224.351C357.673 224.351 355.293 222.071 355.293 219.149C355.293 216.327 357.658 214.047 360.495 214.047ZM174.143 214.047C176.965 214.047 179.345 216.327 179.345 219.149C179.345 222.071 176.979 224.351 174.143 224.351C171.321 224.351 168.941 222.071 168.941 219.149C168.941 216.327 171.307 214.047 174.143 214.047ZM360.495 358.997C363.317 358.997 365.697 361.277 365.697 364.099C365.697 367.021 363.331 369.302 360.495 369.302C357.673 369.302 355.293 367.021 355.293 364.099C355.293 361.277 357.658 358.997 360.495 358.997ZM174.143 358.997C176.965 358.997 179.345 361.277 179.345 364.099C179.345 367.021 176.979 369.302 174.143 369.302C171.321 369.302 168.941 367.021 168.941 364.099C168.941 361.277 171.307 358.997 174.143 358.997ZM360.495 193.355C363.317 193.355 365.697 195.635 365.697 198.457C365.697 201.379 363.331 203.66 360.495 203.66C357.673 203.66 355.293 201.379 355.293 198.457C355.293 195.635 357.658 193.355 360.495 193.355ZM174.143 193.355C176.965 193.355 179.345 195.635 179.345 198.457C179.345 201.379 176.979 203.66 174.143 203.66C171.321 203.66 168.941 201.379 168.941 198.457C168.941 195.635 171.307 193.355 174.143 193.355ZM360.495 338.305C363.317 338.305 365.697 340.586 365.697 343.408C365.697 346.33 363.331 348.61 360.495 348.61C357.673 348.61 355.293 346.33 355.293 343.408C355.293 340.586 357.658 338.305 360.495 338.305ZM174.143 338.305C176.965 338.305 179.345 340.586 179.345 343.408C179.345 346.33 176.979 348.61 174.143 348.61C171.321 348.61 168.941 346.33 168.941 343.408C168.941 340.586 171.307 338.305 174.143 338.305ZM360.495 172.663C363.317 172.663 365.697 174.944 365.697 177.866C365.697 180.688 363.331 182.968 360.495 182.968C357.673 182.968 355.293 180.688 355.293 177.866C355.293 174.944 357.658 172.663 360.495 172.663ZM174.143 172.663C176.965 172.663 179.345 174.944 179.345 177.866C179.345 180.688 176.979 182.968 174.143 182.968C171.321 182.968 168.941 180.688 168.941 177.866C168.941 174.944 171.307 172.663 174.143 172.663ZM360.495 317.614C363.317 317.614 365.697 319.894 365.697 322.716C365.697 325.638 363.331 327.918 360.495 327.918C357.673 327.918 355.293 325.638 355.293 322.716C355.293 319.894 357.658 317.614 360.495 317.614ZM174.143 317.614C176.965 317.614 179.345 319.894 179.345 322.716C179.345 325.638 176.979 327.918 174.143 327.918C171.321 327.918 168.941 325.638 168.941 322.716C168.941 319.894 171.307 317.614 174.143 317.614ZM174.143 151.972C176.965 151.972 179.345 154.252 179.345 157.174C179.345 159.996 176.979 162.276 174.143 162.276C171.321 162.276 168.941 159.996 168.941 157.174C168.941 154.252 171.307 151.972 174.143 151.972ZM360.495 296.922C363.317 296.922 365.697 299.203 365.697 302.125C365.697 304.947 363.331 307.227 360.495 307.227C357.673 307.227 355.293 304.946 355.293 302.125C355.293 299.203 357.658 296.922 360.495 296.922ZM174.143 296.922C176.965 296.922 179.345 299.203 179.345 302.125C179.345 304.947 176.979 307.227 174.143 307.227C171.321 307.227 168.941 304.946 168.941 302.125C168.941 299.203 171.307 296.922 174.143 296.922ZM360.495 276.213C363.317 276.213 365.697 278.494 365.697 281.415C365.697 284.238 363.331 286.518 360.495 286.518C357.673 286.518 355.293 284.237 355.293 281.415C355.293 278.494 357.658 276.213 360.495 276.213ZM174.143 276.213C176.965 276.213 179.345 278.494 179.345 281.415C179.345 284.238 176.979 286.518 174.143 286.518C171.321 286.518 168.941 284.237 168.941 281.415C168.941 278.494 171.307 276.213 174.143 276.213ZM298.384 255.504C301.206 255.504 303.586 257.785 303.586 260.606C303.586 263.528 301.22 265.809 298.384 265.809C295.562 265.809 293.181 263.528 293.181 260.606C293.181 257.784 295.547 255.504 298.384 255.504ZM298.384 400.455C301.206 400.455 303.586 402.735 303.586 405.557C303.586 408.479 301.22 410.759 298.384 410.759C295.562 410.759 293.181 408.479 293.181 405.557C293.181 402.735 295.547 400.455 298.384 400.455ZM298.384 234.813C301.206 234.813 303.586 237.093 303.586 239.915C303.586 242.837 301.22 245.117 298.384 245.117C295.562 245.117 293.181 242.837 293.181 239.915C293.181 237.093 295.547 234.813 298.384 234.813ZM298.384 379.763C301.206 379.763 303.586 382.043 303.586 384.865C303.586 387.787 301.22 390.068 298.384 390.068C295.562 390.068 293.181 387.787 293.181 384.865C293.181 382.043 295.547 379.763 298.384 379.763ZM298.384 214.121C301.206 214.121 303.586 216.401 303.586 219.223C303.586 222.145 301.22 224.426 298.384 224.426C295.562 224.426 293.181 222.145 293.181 219.223C293.181 216.401 295.547 214.121 298.384 214.121ZM298.384 359.071C301.206 359.071 303.586 361.352 303.586 364.174C303.586 367.096 301.22 369.376 298.384 369.376C295.562 369.376 293.181 367.096 293.181 364.174C293.181 361.352 295.547 359.071 298.384 359.071ZM298.384 193.429C301.206 193.429 303.586 195.71 303.586 198.532C303.586 201.453 301.22 203.734 298.384 203.734C295.562 203.734 293.181 201.454 293.181 198.532C293.181 195.71 295.547 193.429 298.384 193.429ZM298.384 338.38C301.206 338.38 303.586 340.66 303.586 343.482C303.586 346.404 301.22 348.684 298.384 348.684C295.562 348.684 293.181 346.404 293.181 343.482C293.181 340.66 295.547 338.38 298.384 338.38ZM298.384 172.738C301.206 172.738 303.586 175.018 303.586 177.94C303.586 180.762 301.22 183.042 298.384 183.042C295.562 183.042 293.181 180.762 293.181 177.94C293.181 175.018 295.547 172.738 298.384 172.738ZM298.384 317.688C301.206 317.688 303.586 319.969 303.586 322.791C303.586 325.712 301.22 327.993 298.384 327.993C295.562 327.993 293.181 325.712 293.181 322.791C293.181 319.969 295.547 317.688 298.384 317.688ZM298.384 152.046C301.206 152.046 303.586 154.327 303.586 157.248C303.586 160.071 301.22 162.351 298.384 162.351C295.562 162.351 293.181 160.07 293.181 157.248C293.181 154.327 295.547 152.046 298.384 152.046ZM298.384 296.997C301.206 296.997 303.586 299.277 303.586 302.199C303.586 305.021 301.22 307.301 298.384 307.301C295.562 307.301 293.181 305.021 293.181 302.199C293.181 299.277 295.547 296.997 298.384 296.997ZM298.384 131.355C301.206 131.355 303.586 133.635 303.586 136.557C303.586 139.379 301.22 141.659 298.384 141.659C295.562 141.659 293.181 139.379 293.181 136.557C293.181 133.635 295.547 131.355 298.384 131.355ZM298.384 276.305C301.206 276.305 303.586 278.586 303.586 281.507C303.586 284.329 301.22 286.61 298.384 286.61C295.562 286.61 293.181 284.329 293.181 281.507C293.181 278.586 295.547 276.305 298.384 276.305ZM215.563 255.596C218.385 255.596 220.765 257.876 220.765 260.698C220.765 263.62 218.399 265.901 215.563 265.901C212.741 265.901 210.36 263.62 210.36 260.698C210.36 257.876 212.726 255.596 215.563 255.596ZM215.563 400.547C218.385 400.547 220.765 402.827 220.765 405.649C220.765 408.571 218.399 410.851 215.563 410.851C212.741 410.851 210.36 408.571 210.36 405.649C210.36 402.827 212.726 400.547 215.563 400.547ZM215.563 234.904C218.385 234.904 220.765 237.185 220.765 240.007C220.765 242.929 218.399 245.209 215.563 245.209C212.741 245.209 210.36 242.929 210.36 240.007C210.36 237.185 212.726 234.904 215.563 234.904ZM215.563 379.855C218.385 379.855 220.765 382.135 220.765 384.957C220.765 387.879 218.399 390.16 215.563 390.16C212.741 390.16 210.36 387.879 210.36 384.957C210.36 382.135 212.726 379.855 215.563 379.855ZM215.563 214.213C218.385 214.213 220.765 216.493 220.765 219.315C220.765 222.237 218.399 224.517 215.563 224.517C212.741 224.517 210.36 222.237 210.36 219.315C210.36 216.493 212.726 214.213 215.563 214.213ZM215.563 359.163C218.385 359.163 220.765 361.444 220.765 364.266C220.765 367.187 218.399 369.468 215.563 369.468C212.741 369.468 210.36 367.188 210.36 364.266C210.36 361.444 212.726 359.163 215.563 359.163ZM215.563 193.521C218.385 193.521 220.765 195.802 220.765 198.624C220.765 201.545 218.399 203.826 215.563 203.826C212.741 203.826 210.36 201.545 210.36 198.624C210.36 195.802 212.726 193.521 215.563 193.521ZM215.563 338.472C218.385 338.472 220.765 340.752 220.765 343.574C220.765 346.496 218.399 348.776 215.563 348.776C212.741 348.776 210.36 346.496 210.36 343.574C210.36 340.752 212.726 338.472 215.563 338.472ZM215.563 172.83C218.385 172.83 220.765 175.11 220.765 178.032C220.765 180.854 218.399 183.134 215.563 183.134C212.741 183.134 210.36 180.854 210.36 178.032C210.36 175.11 212.726 172.83 215.563 172.83ZM215.563 317.78C218.385 317.78 220.765 320.061 220.765 322.883C220.765 325.804 218.399 328.085 215.563 328.085C212.741 328.085 210.36 325.804 210.36 322.883C210.36 320.061 212.726 317.78 215.563 317.78ZM215.563 152.138C218.385 152.138 220.765 154.419 220.765 157.34C220.765 160.162 218.399 162.443 215.563 162.443C212.741 162.443 210.36 160.162 210.36 157.34C210.36 154.419 212.726 152.138 215.563 152.138ZM215.563 297.089C218.385 297.089 220.765 299.369 220.765 302.291C220.765 305.113 218.399 307.393 215.563 307.393C212.741 307.393 210.36 305.113 210.36 302.291C210.36 299.369 212.726 297.089 215.563 297.089ZM215.563 131.447C218.385 131.447 220.765 133.727 220.765 136.649C220.765 139.471 218.399 141.751 215.563 141.751C212.741 141.751 210.36 139.471 210.36 136.649C210.36 133.727 212.726 131.447 215.563 131.447ZM215.563 276.397C218.385 276.397 220.765 278.678 220.765 281.599C220.765 284.421 218.399 286.702 215.563 286.702C212.741 286.702 210.36 284.421 210.36 281.599C210.36 278.678 212.726 276.397 215.563 276.397ZM339.803 255.688C342.625 255.688 345.005 257.968 345.005 260.79C345.005 263.712 342.64 265.993 339.803 265.993C336.981 265.993 334.601 263.712 334.601 260.79C334.601 257.968 336.967 255.688 339.803 255.688ZM153.451 255.688C156.273 255.688 158.654 257.968 158.654 260.79C158.654 263.712 156.288 265.993 153.451 265.993C150.629 265.993 148.249 263.712 148.249 260.79C148.249 257.968 150.615 255.688 153.451 255.688ZM339.803 234.979C342.625 234.979 345.005 237.259 345.005 240.081C345.005 243.003 342.64 245.283 339.803 245.283C336.981 245.283 334.601 243.003 334.601 240.081C334.601 237.259 336.967 234.979 339.803 234.979ZM153.451 234.979C156.273 234.979 158.654 237.259 158.654 240.081C158.654 243.003 156.288 245.283 153.451 245.283C150.629 245.283 148.249 243.003 148.249 240.081C148.249 237.259 150.615 234.979 153.451 234.979ZM339.803 379.929C342.625 379.929 345.005 382.21 345.005 385.032C345.005 387.953 342.64 390.234 339.803 390.234C336.981 390.234 334.601 387.954 334.601 385.032C334.601 382.21 336.967 379.929 339.803 379.929ZM339.803 214.287C342.625 214.287 345.005 216.568 345.005 219.39C345.005 222.311 342.64 224.592 339.803 224.592C336.981 224.592 334.601 222.311 334.601 219.39C334.601 216.568 336.967 214.287 339.803 214.287ZM153.451 214.287C156.273 214.287 158.654 216.568 158.654 219.39C158.654 222.311 156.288 224.592 153.451 224.592C150.629 224.592 148.249 222.311 148.249 219.39C148.249 216.568 150.615 214.287 153.451 214.287ZM339.803 359.238C342.625 359.238 345.005 361.518 345.005 364.34C345.005 367.262 342.64 369.542 339.803 369.542C336.981 369.542 334.601 367.262 334.601 364.34C334.601 361.518 336.967 359.238 339.803 359.238ZM153.451 359.238C156.273 359.238 158.654 361.518 158.654 364.34C158.654 367.262 156.288 369.542 153.451 369.542C150.629 369.542 148.249 367.262 148.249 364.34C148.249 361.518 150.615 359.238 153.451 359.238ZM339.803 193.596C342.625 193.596 345.005 195.876 345.005 198.698C345.005 201.62 342.64 203.9 339.803 203.9C336.981 203.9 334.601 201.62 334.601 198.698C334.601 195.876 336.967 193.596 339.803 193.596ZM153.451 193.596C156.273 193.596 158.654 195.876 158.654 198.698C158.654 201.62 156.288 203.9 153.451 203.9C150.629 203.9 148.249 201.62 148.249 198.698C148.249 195.876 150.615 193.596 153.451 193.596ZM339.803 338.546C342.625 338.546 345.005 340.827 345.005 343.649C345.005 346.57 342.64 348.851 339.803 348.851C336.981 348.851 334.601 346.57 334.601 343.649C334.601 340.827 336.967 338.546 339.803 338.546ZM153.451 338.546C156.273 338.546 158.654 340.827 158.654 343.649C158.654 346.57 156.288 348.851 153.451 348.851C150.629 348.851 148.249 346.57 148.249 343.649C148.249 340.827 150.615 338.546 153.451 338.546ZM339.803 172.904C342.625 172.904 345.005 175.185 345.005 178.106C345.005 180.928 342.64 183.209 339.803 183.209C336.981 183.209 334.601 180.928 334.601 178.106C334.601 175.185 336.967 172.904 339.803 172.904ZM153.451 172.904C156.273 172.904 158.654 175.185 158.654 178.106C158.654 180.928 156.288 183.209 153.451 183.209C150.629 183.209 148.249 180.928 148.249 178.106C148.249 175.185 150.615 172.904 153.451 172.904ZM339.803 317.855C342.625 317.855 345.005 320.135 345.005 322.957C345.005 325.879 342.64 328.159 339.803 328.159C336.981 328.159 334.601 325.879 334.601 322.957C334.601 320.135 336.967 317.855 339.803 317.855ZM153.451 317.855C156.273 317.855 158.654 320.135 158.654 322.957C158.654 325.879 156.288 328.159 153.451 328.159C150.629 328.159 148.249 325.879 148.249 322.957C148.249 320.135 150.615 317.855 153.451 317.855ZM339.803 152.213C342.625 152.213 345.005 154.493 345.005 157.415C345.005 160.237 342.64 162.517 339.803 162.517C336.981 162.517 334.601 160.237 334.601 157.415C334.601 154.493 336.967 152.213 339.803 152.213ZM339.803 297.163C342.625 297.163 345.005 299.444 345.005 302.365C345.005 305.187 342.64 307.468 339.803 307.468C336.981 307.468 334.601 305.187 334.601 302.365C334.601 299.444 336.967 297.163 339.803 297.163ZM153.451 297.163C156.273 297.163 158.654 299.444 158.654 302.365C158.654 305.187 156.288 307.468 153.451 307.468C150.629 307.468 148.249 305.187 148.249 302.365C148.249 299.444 150.615 297.163 153.451 297.163ZM339.803 276.454C342.625 276.454 345.005 278.734 345.005 281.656C345.005 284.478 342.64 286.759 339.803 286.759C336.981 286.759 334.601 284.478 334.601 281.656C334.601 278.734 336.967 276.454 339.803 276.454ZM153.451 276.454C156.273 276.454 158.654 278.734 158.654 281.656C158.654 284.478 156.288 286.759 153.451 286.759C150.629 286.759 148.249 284.478 148.249 281.656C148.249 278.734 150.615 276.454 153.451 276.454ZM277.692 255.745C280.514 255.745 282.894 258.025 282.894 260.847C282.894 263.769 280.528 266.049 277.692 266.049C274.87 266.049 272.49 263.769 272.49 260.847C272.49 258.025 274.856 255.745 277.692 255.745ZM277.692 400.695C280.514 400.695 282.894 402.976 282.894 405.798C282.894 408.72 280.528 411 277.692 411C274.87 411 272.49 408.72 272.49 405.798C272.49 402.976 274.856 400.695 277.692 400.695ZM277.692 235.053C280.514 235.053 282.894 237.334 282.894 240.156C282.894 243.077 280.528 245.358 277.692 245.358C274.87 245.358 272.49 243.077 272.49 240.156C272.49 237.334 274.856 235.053 277.692 235.053ZM277.692 380.004C280.514 380.004 282.894 382.284 282.894 385.106C282.894 388.028 280.528 390.308 277.692 390.308C274.87 390.308 272.49 388.028 272.49 385.106C272.49 382.284 274.856 380.004 277.692 380.004ZM277.692 214.362C280.514 214.362 282.894 216.642 282.894 219.464C282.894 222.386 280.528 224.666 277.692 224.666C274.87 224.666 272.49 222.386 272.49 219.464C272.49 216.642 274.856 214.362 277.692 214.362ZM277.692 359.312C280.514 359.312 282.894 361.593 282.894 364.415C282.894 367.336 280.528 369.617 277.692 369.617C274.87 369.617 272.49 367.336 272.49 364.415C272.49 361.593 274.856 359.312 277.692 359.312ZM277.692 193.67C280.514 193.67 282.894 195.951 282.894 198.772C282.894 201.694 280.528 203.975 277.692 203.975C274.87 203.975 272.49 201.694 272.49 198.772C272.49 195.95 274.856 193.67 277.692 193.67ZM277.692 338.621C280.514 338.621 282.894 340.901 282.894 343.723C282.894 346.645 280.528 348.925 277.692 348.925C274.87 348.925 272.49 346.645 272.49 343.723C272.49 340.901 274.856 338.621 277.692 338.621ZM277.692 172.979C280.514 172.979 282.894 175.259 282.894 178.181C282.894 181.003 280.528 183.283 277.692 183.283C274.87 183.283 272.49 181.003 272.49 178.181C272.49 175.259 274.856 172.979 277.692 172.979ZM277.692 317.929C280.514 317.929 282.894 320.21 282.894 323.031C282.894 325.953 280.528 328.234 277.692 328.234C274.87 328.234 272.49 325.953 272.49 323.031C272.49 320.209 274.856 317.929 277.692 317.929ZM277.692 152.287C280.514 152.287 282.894 154.567 282.894 157.489C282.894 160.311 280.528 162.592 277.692 162.592C274.87 162.592 272.49 160.311 272.49 157.489C272.49 154.568 274.856 152.287 277.692 152.287ZM277.692 297.238C280.514 297.238 282.894 299.518 282.894 302.44C282.894 305.262 280.528 307.542 277.692 307.542C274.87 307.542 272.49 305.262 272.49 302.44C272.49 299.518 274.856 297.238 277.692 297.238ZM277.692 131.595C280.514 131.595 282.894 133.876 282.894 136.798C282.894 139.62 280.528 141.9 277.692 141.9C274.87 141.9 272.49 139.62 272.49 136.798C272.49 133.876 274.856 131.595 277.692 131.595ZM277.692 276.546C280.514 276.546 282.894 278.826 282.894 281.748C282.894 284.57 280.528 286.851 277.692 286.851C274.87 286.851 272.49 284.57 272.49 281.748C272.49 278.826 274.856 276.546 277.692 276.546Z" fill="url(#paint0_radial_2160_2450)"/>
<rect x="231" y="234" width="52" height="53" fill="#CAFF4D"/>
<rect x="245.227" y="248.5" width="23.5472" height="24" fill="#070411"/>
<rect x="251.113" y="254.5" width="11.7736" height="12" fill="#CAFF4D"/>
<defs>
<radialGradient id="paint0_radial_2160_2450" cx="0" cy="0" r="1" gradientUnits="userSpaceOnUse" gradientTransform="translate(256.938 271) rotate(90) scale(140 145.938)">
<stop stop-color="#CAFF4D"/>
<stop offset="1" stop-color="#CAFF4D" stop-opacity="0"/>
</radialGradient>
</defs>
</svg>