<svg width="535" height="554" viewBox="0 0 535 554" fill="none" xmlns="http://www.w3.org/2000/svg">
<rect width="535" height="554" fill="#070411"/>
<ellipse opacity="0.1" cx="1.6759" cy="1.73071" rx="1.6759" ry="1.73071" transform="matrix(-1 0 0 1 404.114 413.039)" fill="#CAFF4D"/>
<ellipse opacity="0.1" cx="1.6759" cy="1.73071" rx="1.6759" ry="1.73071" transform="matrix(-1 0 0 1 368.904 413.039)" fill="#CAFF4D"/>
<ellipse opacity="0.1" cx="1.67587" cy="1.73071" rx="1.67587" ry="1.73071" transform="matrix(-1 0 0 1 333.718 413.039)" fill="#CAFF4D"/>
<ellipse opacity="0.1" cx="1.67592" cy="1.73071" rx="1.67592" ry="1.73071" transform="matrix(-1 0 0 1 298.531 413.039)" fill="#CAFF4D"/>
<ellipse opacity="0.1" cx="1.6759" cy="1.73071" rx="1.6759" ry="1.73071" transform="matrix(-1 0 0 1 263.341 413.039)" fill="#CAFF4D"/>
<ellipse opacity="0.1" cx="1.67592" cy="1.73071" rx="1.67592" ry="1.73071" transform="matrix(-1 0 0 1 231.489 413.039)" fill="#CAFF4D"/>
<ellipse opacity="0.1" cx="1.67592" cy="1.73071" rx="1.67592" ry="1.73071" transform="matrix(-1 0 0 1 199.658 413.039)" fill="#CAFF4D"/>
<ellipse opacity="0.1" cx="1.6759" cy="1.73071" rx="1.6759" ry="1.73071" transform="matrix(-1 0 0 1 167.809 413.039)" fill="#CAFF4D"/>
<ellipse opacity="0.1" cx="1.6759" cy="1.7307" rx="1.6759" ry="1.7307" transform="matrix(-1 0 0 1 404.114 380.203)" fill="#CAFF4D"/>
<ellipse opacity="0.3" cx="3.35338" cy="3.45835" rx="3.35338" ry="3.45835" transform="matrix(-1 0 0 1 370.585 378.473)" fill="#CAFF4D"/>
<ellipse opacity="0.2" cx="3.35338" cy="3.45835" rx="3.35338" ry="3.45835" transform="matrix(-1 0 0 1 335.396 378.473)" fill="#CAFF4D"/>
<ellipse opacity="0.2" cx="3.35338" cy="3.45835" rx="3.35338" ry="3.45835" transform="matrix(-1 0 0 1 300.207 378.473)" fill="#CAFF4D"/>
<ellipse opacity="0.2" cx="3.35341" cy="3.45835" rx="3.35341" ry="3.45835" transform="matrix(-1 0 0 1 264.998 378.473)" fill="#CAFF4D"/>
<ellipse opacity="0.2" cx="3.35338" cy="3.45835" rx="3.35338" ry="3.45835" transform="matrix(-1 0 0 1 233.169 378.473)" fill="#CAFF4D"/>
<ellipse opacity="0.2" cx="3.35338" cy="3.45835" rx="3.35338" ry="3.45835" transform="matrix(-1 0 0 1 201.316 378.473)" fill="#CAFF4D"/>
<ellipse opacity="0.2" cx="3.35338" cy="3.45835" rx="3.35338" ry="3.45835" transform="matrix(-1 0 0 1 169.485 378.473)" fill="#CAFF4D"/>
<ellipse opacity="0.1" cx="1.67592" cy="1.7307" rx="1.67592" ry="1.7307" transform="matrix(-1 0 0 1 135.956 380.203)" fill="#CAFF4D"/>
<ellipse opacity="0.1" cx="1.6759" cy="1.73071" rx="1.6759" ry="1.73071" transform="matrix(-1 0 0 1 404.114 347.366)" fill="#CAFF4D"/>
<ellipse opacity="0.3" cx="3.35338" cy="3.45835" rx="3.35338" ry="3.45835" transform="matrix(-1 0 0 1 370.585 345.635)" fill="#CAFF4D"/>
<ellipse opacity="0.3" cx="5.02769" cy="5.18508" rx="5.02769" ry="5.18508" transform="matrix(-1 0 0 1 337.075 343.905)" fill="#CAFF4D"/>
<ellipse opacity="0.3" cx="5.02771" cy="5.18508" rx="5.02771" ry="5.18508" transform="matrix(-1 0 0 1 301.867 343.905)" fill="#CAFF4D"/>
<ellipse opacity="0.3" cx="5.02771" cy="5.18508" rx="5.02771" ry="5.18508" transform="matrix(-1 0 0 1 266.677 343.905)" fill="#CAFF4D"/>
<ellipse opacity="0.3" cx="5.02769" cy="5.18508" rx="5.02769" ry="5.18508" transform="matrix(-1 0 0 1 234.848 343.905)" fill="#CAFF4D"/>
<ellipse opacity="0.3" cx="5.02771" cy="5.18508" rx="5.02771" ry="5.18508" transform="matrix(-1 0 0 1 202.995 343.905)" fill="#CAFF4D"/>
<ellipse opacity="0.2" cx="3.35338" cy="3.45835" rx="3.35338" ry="3.45835" transform="matrix(-1 0 0 1 169.485 345.635)" fill="#CAFF4D"/>
<ellipse opacity="0.1" cx="1.67592" cy="1.73071" rx="1.67592" ry="1.73071" transform="matrix(-1 0 0 1 135.956 347.366)" fill="#CAFF4D"/>
<ellipse opacity="0.1" cx="1.6759" cy="1.7307" rx="1.6759" ry="1.7307" transform="matrix(-1 0 0 1 404.114 314.519)" fill="#CAFF4D"/>
<ellipse opacity="0.3" cx="3.35338" cy="3.45835" rx="3.35338" ry="3.45835" transform="matrix(-1 0 0 1 370.585 312.789)" fill="#CAFF4D"/>
<ellipse opacity="0.3" cx="5.02769" cy="5.18508" rx="5.02769" ry="5.18508" transform="matrix(-1 0 0 1 337.075 311.069)" fill="#CAFF4D"/>
<ellipse opacity="0.5" cx="6.70363" cy="6.91344" rx="6.70363" ry="6.91344" transform="matrix(-1 0 0 1 303.546 309.339)" fill="#CAFF4D"/>
<ellipse opacity="0.5" cx="6.70361" cy="6.91344" rx="6.70361" ry="6.91344" transform="matrix(-1 0 0 1 268.355 309.339)" fill="#CAFF4D"/>
<ellipse opacity="0.5" cx="6.70361" cy="6.91344" rx="6.70361" ry="6.91344" transform="matrix(-1 0 0 1 236.525 309.339)" fill="#CAFF4D"/>
<ellipse opacity="0.3" cx="5.02771" cy="5.18508" rx="5.02771" ry="5.18508" transform="matrix(-1 0 0 1 202.995 311.069)" fill="#CAFF4D"/>
<ellipse opacity="0.2" cx="3.35338" cy="3.45835" rx="3.35338" ry="3.45835" transform="matrix(-1 0 0 1 169.485 312.789)" fill="#CAFF4D"/>
<ellipse opacity="0.1" cx="1.67592" cy="1.7307" rx="1.67592" ry="1.7307" transform="matrix(-1 0 0 1 135.956 314.519)" fill="#CAFF4D"/>
<ellipse opacity="0.1" cx="1.6759" cy="1.7307" rx="1.6759" ry="1.7307" transform="matrix(-1 0 0 1 404.114 281.684)" fill="#CAFF4D"/>
<ellipse opacity="0.3" cx="3.35338" cy="3.45834" rx="3.35338" ry="3.45834" transform="matrix(-1 0 0 1 370.585 279.953)" fill="#CAFF4D"/>
<ellipse opacity="0.3" cx="5.02769" cy="5.18508" rx="5.02769" ry="5.18508" transform="matrix(-1 0 0 1 337.075 278.224)" fill="#CAFF4D"/>
<ellipse opacity="0.5" cx="6.70363" cy="6.91344" rx="6.70363" ry="6.91344" transform="matrix(-1 0 0 1 303.546 276.494)" fill="#CAFF4D"/>
<ellipse opacity="0.6" cx="8.37953" cy="8.6418" rx="8.37953" ry="8.6418" transform="matrix(-1 0 0 1 270.035 274.773)" fill="#CAFF4D"/>
<ellipse opacity="0.5" cx="6.70361" cy="6.91344" rx="6.70361" ry="6.91344" transform="matrix(-1 0 0 1 236.525 276.494)" fill="#CAFF4D"/>
<ellipse opacity="0.3" cx="5.02771" cy="5.18508" rx="5.02771" ry="5.18508" transform="matrix(-1 0 0 1 202.995 278.224)" fill="#CAFF4D"/>
<ellipse opacity="0.2" cx="3.35338" cy="3.45834" rx="3.35338" ry="3.45834" transform="matrix(-1 0 0 1 169.485 279.953)" fill="#CAFF4D"/>
<ellipse opacity="0.1" cx="1.67592" cy="1.7307" rx="1.67592" ry="1.7307" transform="matrix(-1 0 0 1 135.956 281.684)" fill="#CAFF4D"/>
<ellipse opacity="0.1" cx="1.6759" cy="1.73071" rx="1.6759" ry="1.73071" transform="matrix(-1 0 0 1 404.114 245.387)" fill="#CAFF4D"/>
<ellipse opacity="0.3" cx="3.35338" cy="3.45834" rx="3.35338" ry="3.45834" transform="matrix(-1 0 0 1 370.585 243.659)" fill="#CAFF4D"/>
<ellipse opacity="0.3" cx="5.02769" cy="5.18508" rx="5.02769" ry="5.18508" transform="matrix(-1 0 0 1 337.075 241.928)" fill="#CAFF4D"/>
<ellipse opacity="0.5" cx="6.70363" cy="6.91344" rx="6.70363" ry="6.91344" transform="matrix(-1 0 0 1 303.546 240.197)" fill="#CAFF4D"/>
<ellipse opacity="0.5" cx="6.70361" cy="6.91344" rx="6.70361" ry="6.91344" transform="matrix(-1 0 0 1 268.355 240.197)" fill="#CAFF4D"/>
<ellipse opacity="0.5" cx="6.70361" cy="6.91344" rx="6.70361" ry="6.91344" transform="matrix(-1 0 0 1 236.525 240.197)" fill="#CAFF4D"/>
<ellipse opacity="0.3" cx="5.02771" cy="5.18508" rx="5.02771" ry="5.18508" transform="matrix(-1 0 0 1 202.995 241.928)" fill="#CAFF4D"/>
<ellipse opacity="0.2" cx="3.35338" cy="3.45834" rx="3.35338" ry="3.45834" transform="matrix(-1 0 0 1 169.485 243.659)" fill="#CAFF4D"/>
<ellipse opacity="0.1" cx="1.67592" cy="1.73071" rx="1.67592" ry="1.73071" transform="matrix(-1 0 0 1 135.956 245.387)" fill="#CAFF4D"/>
<ellipse opacity="0.1" cx="1.6759" cy="1.73071" rx="1.6759" ry="1.73071" transform="matrix(-1 0 0 1 404.114 209.092)" fill="#CAFF4D"/>
<ellipse opacity="0.3" cx="3.35338" cy="3.45834" rx="3.35338" ry="3.45834" transform="matrix(-1 0 0 1 370.585 207.362)" fill="#CAFF4D"/>
<ellipse opacity="0.3" cx="5.02769" cy="5.18508" rx="5.02769" ry="5.18508" transform="matrix(-1 0 0 1 337.075 205.631)" fill="#CAFF4D"/>
<ellipse opacity="0.3" cx="5.02771" cy="5.18508" rx="5.02771" ry="5.18508" transform="matrix(-1 0 0 1 301.867 205.631)" fill="#CAFF4D"/>
<ellipse opacity="0.3" cx="5.02771" cy="5.18508" rx="5.02771" ry="5.18508" transform="matrix(-1 0 0 1 266.677 205.631)" fill="#CAFF4D"/>
<ellipse opacity="0.3" cx="5.02769" cy="5.18508" rx="5.02769" ry="5.18508" transform="matrix(-1 0 0 1 234.848 205.631)" fill="#CAFF4D"/>
<ellipse opacity="0.3" cx="5.02771" cy="5.18508" rx="5.02771" ry="5.18508" transform="matrix(-1 0 0 1 202.995 205.631)" fill="#CAFF4D"/>
<ellipse opacity="0.2" cx="3.35338" cy="3.45834" rx="3.35338" ry="3.45834" transform="matrix(-1 0 0 1 169.485 207.362)" fill="#CAFF4D"/>
<ellipse opacity="0.1" cx="1.67592" cy="1.73071" rx="1.67592" ry="1.73071" transform="matrix(-1 0 0 1 135.956 209.092)" fill="#CAFF4D"/>
<ellipse opacity="0.1" cx="1.6759" cy="1.73071" rx="1.6759" ry="1.73071" transform="matrix(-1 0 0 1 404.114 172.795)" fill="#CAFF4D"/>
<ellipse opacity="0.3" cx="3.35338" cy="3.45834" rx="3.35338" ry="3.45834" transform="matrix(-1 0 0 1 370.585 171.068)" fill="#CAFF4D"/>
<ellipse opacity="0.2" cx="3.35338" cy="3.45834" rx="3.35338" ry="3.45834" transform="matrix(-1 0 0 1 335.396 171.068)" fill="#CAFF4D"/>
<ellipse opacity="0.2" cx="3.35338" cy="3.45834" rx="3.35338" ry="3.45834" transform="matrix(-1 0 0 1 300.207 171.068)" fill="#CAFF4D"/>
<ellipse opacity="0.2" cx="3.35341" cy="3.45834" rx="3.35341" ry="3.45834" transform="matrix(-1 0 0 1 264.998 171.068)" fill="#CAFF4D"/>
<ellipse opacity="0.2" cx="3.35338" cy="3.45834" rx="3.35338" ry="3.45834" transform="matrix(-1 0 0 1 233.169 171.068)" fill="#CAFF4D"/>
<ellipse opacity="0.2" cx="3.35338" cy="3.45834" rx="3.35338" ry="3.45834" transform="matrix(-1 0 0 1 201.316 171.068)" fill="#CAFF4D"/>
<ellipse opacity="0.2" cx="3.35338" cy="3.45834" rx="3.35338" ry="3.45834" transform="matrix(-1 0 0 1 169.485 171.068)" fill="#CAFF4D"/>
<ellipse opacity="0.1" cx="1.67592" cy="1.73071" rx="1.67592" ry="1.73071" transform="matrix(-1 0 0 1 135.956 172.795)" fill="#CAFF4D"/>
<ellipse opacity="0.1" cx="1.6759" cy="1.73071" rx="1.6759" ry="1.73071" transform="matrix(-1 0 0 1 368.905 136.5)" fill="#CAFF4D"/>
<ellipse opacity="0.1" cx="1.67587" cy="1.73071" rx="1.67587" ry="1.73071" transform="matrix(-1 0 0 1 333.717 136.5)" fill="#CAFF4D"/>
<ellipse opacity="0.1" cx="1.67592" cy="1.73071" rx="1.67592" ry="1.73071" transform="matrix(-1 0 0 1 298.531 136.5)" fill="#CAFF4D"/>
<ellipse opacity="0.1" cx="1.6759" cy="1.73071" rx="1.6759" ry="1.73071" transform="matrix(-1 0 0 1 263.341 136.5)" fill="#CAFF4D"/>
<ellipse opacity="0.1" cx="1.67592" cy="1.73071" rx="1.67592" ry="1.73071" transform="matrix(-1 0 0 1 231.489 136.5)" fill="#CAFF4D"/>
<ellipse opacity="0.1" cx="1.67592" cy="1.73071" rx="1.67592" ry="1.73071" transform="matrix(-1 0 0 1 199.658 136.5)" fill="#CAFF4D"/>
<ellipse opacity="0.1" cx="1.6759" cy="1.73071" rx="1.6759" ry="1.73071" transform="matrix(-1 0 0 1 167.808 136.5)" fill="#CAFF4D"/>
</svg>