<svg width="368" height="328" viewBox="0 0 368 328" fill="none" xmlns="http://www.w3.org/2000/svg">
<ellipse opacity="0.1" cx="1.20305" cy="1.2424" rx="1.20305" ry="1.2424" transform="matrix(-1 0 0 1 173.905 148.889)" fill="#CAFF4D"/>
<ellipse opacity="0.1" cx="1.20305" cy="1.2424" rx="1.20305" ry="1.2424" transform="matrix(-1 0 0 1 148.63 148.889)" fill="#CAFF4D"/>
<ellipse opacity="0.1" cx="1.20304" cy="1.2424" rx="1.20304" ry="1.2424" transform="matrix(-1 0 0 1 123.37 148.889)" fill="#CAFF4D"/>
<ellipse opacity="0.1" cx="1.20307" cy="1.2424" rx="1.20307" ry="1.2424" transform="matrix(-1 0 0 1 98.1113 148.889)" fill="#CAFF4D"/>
<ellipse opacity="0.1" cx="1.20305" cy="1.2424" rx="1.20305" ry="1.2424" transform="matrix(-1 0 0 1 72.8496 148.889)" fill="#CAFF4D"/>
<ellipse opacity="0.1" cx="1.20307" cy="1.2424" rx="1.20307" ry="1.2424" transform="matrix(-1 0 0 1 49.9844 148.889)" fill="#CAFF4D"/>
<ellipse opacity="0.1" cx="1.20307" cy="1.2424" rx="1.20307" ry="1.2424" transform="matrix(-1 0 0 1 27.1348 148.889)" fill="#CAFF4D"/>
<ellipse opacity="0.1" cx="1.20305" cy="1.2424" rx="1.20305" ry="1.2424" transform="matrix(-1 0 0 1 4.27051 148.889)" fill="#CAFF4D"/>
<ellipse opacity="0.1" cx="1.20305" cy="1.2424" rx="1.20305" ry="1.2424" transform="matrix(-1 0 0 1 342.725 151.374)" fill="#CAFF4D"/>
<ellipse opacity="0.1" cx="1.20304" cy="1.2424" rx="1.20304" ry="1.2424" transform="matrix(-1 0 0 1 317.465 151.374)" fill="#CAFF4D"/>
<ellipse opacity="0.1" cx="1.20307" cy="1.2424" rx="1.20307" ry="1.2424" transform="matrix(-1 0 0 1 292.206 151.374)" fill="#CAFF4D"/>
<ellipse opacity="0.1" cx="1.20305" cy="1.2424" rx="1.20305" ry="1.2424" transform="matrix(-1 0 0 1 266.944 151.374)" fill="#CAFF4D"/>
<ellipse opacity="0.1" cx="1.20307" cy="1.2424" rx="1.20307" ry="1.2424" transform="matrix(-1 0 0 1 244.08 151.374)" fill="#CAFF4D"/>
<ellipse opacity="0.1" cx="1.20307" cy="1.2424" rx="1.20307" ry="1.2424" transform="matrix(-1 0 0 1 221.229 151.374)" fill="#CAFF4D"/>
<ellipse opacity="0.1" cx="1.20305" cy="1.2424" rx="1.20305" ry="1.2424" transform="matrix(-1 0 0 1 198.365 151.374)" fill="#CAFF4D"/>
<ellipse opacity="0.1" cx="1.20305" cy="1.2424" rx="1.20305" ry="1.2424" transform="matrix(-1 0 0 1 368 148.889)" fill="#CAFF4D" fill-opacity="0.3"/>
<ellipse opacity="0.1" cx="1.20305" cy="1.2424" rx="1.20305" ry="1.2424" transform="matrix(-1 0 0 1 342.725 148.889)" fill="#CAFF4D" fill-opacity="0.3"/>
<ellipse opacity="0.1" cx="1.20304" cy="1.2424" rx="1.20304" ry="1.2424" transform="matrix(-1 0 0 1 317.465 148.889)" fill="#CAFF4D" fill-opacity="0.3"/>
<ellipse opacity="0.1" cx="1.20307" cy="1.2424" rx="1.20307" ry="1.2424" transform="matrix(-1 0 0 1 292.206 148.889)" fill="#CAFF4D" fill-opacity="0.3"/>
<ellipse opacity="0.1" cx="1.20305" cy="1.2424" rx="1.20305" ry="1.2424" transform="matrix(-1 0 0 1 266.944 148.889)" fill="#CAFF4D" fill-opacity="0.3"/>
<ellipse opacity="0.1" cx="1.20307" cy="1.2424" rx="1.20307" ry="1.2424" transform="matrix(-1 0 0 1 244.079 148.889)" fill="#CAFF4D" fill-opacity="0.3"/>
<ellipse opacity="0.1" cx="1.20307" cy="1.2424" rx="1.20307" ry="1.2424" transform="matrix(-1 0 0 1 221.229 148.889)" fill="#CAFF4D" fill-opacity="0.3"/>
<ellipse opacity="0.1" cx="1.20305" cy="1.2424" rx="1.20305" ry="1.2424" transform="matrix(-1 0 0 1 198.365 148.889)" fill="#CAFF4D" fill-opacity="0.3"/>
<ellipse opacity="0.1" cx="1.20305" cy="1.2424" rx="1.20305" ry="1.2424" transform="matrix(-1 0 0 1 368 125.318)" fill="#CAFF4D" fill-opacity="0.3"/>
<ellipse opacity="0.1" cx="1.20305" cy="1.2424" rx="1.20305" ry="1.2424" transform="matrix(-1 0 0 1 368 101.746)" fill="#CAFF4D" fill-opacity="0.3"/>
<ellipse opacity="0.1" cx="1.20305" cy="1.2424" rx="1.20305" ry="1.2424" transform="matrix(-1 0 0 1 368 78.1665)" fill="#CAFF4D" fill-opacity="0.3"/>
<ellipse opacity="0.1" cx="1.20305" cy="1.2424" rx="1.20305" ry="1.2424" transform="matrix(-1 0 0 1 368 54.5947)" fill="#CAFF4D" fill-opacity="0.3"/>
<ellipse opacity="0.1" cx="1.20305" cy="1.2424" rx="1.20305" ry="1.2424" transform="matrix(-1 0 0 1 368 28.5396)" fill="#CAFF4D" fill-opacity="0.3"/>
<ellipse opacity="0.1" cx="1.20305" cy="1.2424" rx="1.20305" ry="1.2424" transform="matrix(-1 0 0 1 368 2.48438)" fill="#CAFF4D" fill-opacity="0.3"/>
<ellipse opacity="0.1" cx="1.20305" cy="1.2424" rx="1.20305" ry="1.2424" transform="matrix(-1 0 0 1 173.905 125.318)" fill="#CAFF4D"/>
<ellipse opacity="0.3" cx="2.40725" cy="2.4826" rx="2.40725" ry="2.4826" transform="matrix(-1 0 0 1 149.835 124.076)" fill="#CAFF4D"/>
<ellipse opacity="0.2" cx="2.40725" cy="2.4826" rx="2.40725" ry="2.4826" transform="matrix(-1 0 0 1 124.575 124.076)" fill="#CAFF4D"/>
<ellipse opacity="0.2" cx="2.40725" cy="2.4826" rx="2.40725" ry="2.4826" transform="matrix(-1 0 0 1 99.3145 124.076)" fill="#CAFF4D"/>
<ellipse opacity="0.2" cx="2.40727" cy="2.4826" rx="2.40727" ry="2.4826" transform="matrix(-1 0 0 1 74.0391 124.076)" fill="#CAFF4D"/>
<ellipse opacity="0.2" cx="2.40725" cy="2.4826" rx="2.40725" ry="2.4826" transform="matrix(-1 0 0 1 51.1904 124.076)" fill="#CAFF4D"/>
<ellipse opacity="0.2" cx="2.40725" cy="2.4826" rx="2.40725" ry="2.4826" transform="matrix(-1 0 0 1 28.3252 124.076)" fill="#CAFF4D"/>
<ellipse opacity="0.2" cx="2.40725" cy="2.4826" rx="2.40725" ry="2.4826" transform="matrix(-1 0 0 1 5.47461 124.076)" fill="#CAFF4D"/>
<ellipse opacity="0.1" cx="1.20305" cy="1.2424" rx="1.20305" ry="1.2424" transform="matrix(-1 0 0 1 173.905 101.746)" fill="#CAFF4D"/>
<ellipse opacity="0.3" cx="2.40725" cy="2.4826" rx="2.40725" ry="2.4826" transform="matrix(-1 0 0 1 149.835 100.503)" fill="#CAFF4D"/>
<ellipse opacity="0.3" cx="3.60916" cy="3.72215" rx="3.60916" ry="3.72215" transform="matrix(-1 0 0 1 125.78 99.2612)" fill="#CAFF4D"/>
<ellipse opacity="0.3" cx="3.60918" cy="3.72215" rx="3.60918" ry="3.72215" transform="matrix(-1 0 0 1 100.506 99.2612)" fill="#CAFF4D"/>
<ellipse opacity="0.3" cx="3.60918" cy="3.72215" rx="3.60918" ry="3.72215" transform="matrix(-1 0 0 1 75.2441 99.2612)" fill="#CAFF4D"/>
<ellipse opacity="0.3" cx="3.60916" cy="3.72215" rx="3.60916" ry="3.72215" transform="matrix(-1 0 0 1 52.3955 99.2612)" fill="#CAFF4D"/>
<ellipse opacity="0.3" cx="3.60918" cy="3.72215" rx="3.60918" ry="3.72215" transform="matrix(-1 0 0 1 29.5303 99.2612)" fill="#CAFF4D"/>
<ellipse opacity="0.2" cx="2.40725" cy="2.4826" rx="2.40725" ry="2.4826" transform="matrix(-1 0 0 1 5.47461 100.503)" fill="#CAFF4D"/>
<ellipse opacity="0.1" cx="1.20305" cy="1.2424" rx="1.20305" ry="1.2424" transform="matrix(-1 0 0 1 173.905 78.1665)" fill="#CAFF4D"/>
<ellipse opacity="0.3" cx="2.40725" cy="2.4826" rx="2.40725" ry="2.4826" transform="matrix(-1 0 0 1 149.835 76.9238)" fill="#CAFF4D"/>
<ellipse opacity="0.3" cx="3.60916" cy="3.72215" rx="3.60916" ry="3.72215" transform="matrix(-1 0 0 1 125.78 75.6899)" fill="#CAFF4D"/>
<ellipse opacity="0.5" cx="4.81225" cy="4.96287" rx="4.81225" ry="4.96287" transform="matrix(-1 0 0 1 101.711 74.4473)" fill="#CAFF4D"/>
<ellipse opacity="0.5" cx="4.81223" cy="4.96287" rx="4.81223" ry="4.96287" transform="matrix(-1 0 0 1 76.4502 74.4473)" fill="#CAFF4D"/>
<ellipse opacity="0.5" cx="4.81223" cy="4.96287" rx="4.81223" ry="4.96287" transform="matrix(-1 0 0 1 53.6006 74.4473)" fill="#CAFF4D"/>
<ellipse opacity="0.3" cx="3.60918" cy="3.72215" rx="3.60918" ry="3.72215" transform="matrix(-1 0 0 1 29.5303 75.6899)" fill="#CAFF4D"/>
<ellipse opacity="0.2" cx="2.40725" cy="2.4826" rx="2.40725" ry="2.4826" transform="matrix(-1 0 0 1 5.47461 76.9238)" fill="#CAFF4D"/>
<ellipse opacity="0.1" cx="1.20305" cy="1.2424" rx="1.20305" ry="1.2424" transform="matrix(-1 0 0 1 173.905 54.5947)" fill="#CAFF4D"/>
<ellipse opacity="0.3" cx="2.40725" cy="2.48259" rx="2.40725" ry="2.48259" transform="matrix(-1 0 0 1 149.835 53.353)" fill="#CAFF4D"/>
<ellipse opacity="0.3" cx="3.60916" cy="3.72215" rx="3.60916" ry="3.72215" transform="matrix(-1 0 0 1 125.78 52.1118)" fill="#CAFF4D"/>
<ellipse opacity="0.5" cx="4.81225" cy="4.96287" rx="4.81225" ry="4.96287" transform="matrix(-1 0 0 1 101.711 50.8691)" fill="#CAFF4D"/>
<ellipse opacity="0.6" cx="6.0153" cy="6.20358" rx="6.0153" ry="6.20358" transform="matrix(-1 0 0 1 77.6553 49.6338)" fill="#CAFF4D"/>
<ellipse opacity="0.5" cx="4.81223" cy="4.96287" rx="4.81223" ry="4.96287" transform="matrix(-1 0 0 1 53.6006 50.8691)" fill="#CAFF4D"/>
<ellipse opacity="0.3" cx="3.60918" cy="3.72215" rx="3.60918" ry="3.72215" transform="matrix(-1 0 0 1 29.5303 52.1118)" fill="#CAFF4D"/>
<ellipse opacity="0.2" cx="2.40725" cy="2.48259" rx="2.40725" ry="2.48259" transform="matrix(-1 0 0 1 5.47461 53.353)" fill="#CAFF4D"/>
<ellipse opacity="0.1" cx="1.20305" cy="1.2424" rx="1.20305" ry="1.2424" transform="matrix(-1 0 0 1 173.905 28.5396)" fill="#CAFF4D"/>
<ellipse opacity="0.3" cx="2.40725" cy="2.48259" rx="2.40725" ry="2.48259" transform="matrix(-1 0 0 1 149.835 27.2988)" fill="#CAFF4D"/>
<ellipse opacity="0.3" cx="3.60916" cy="3.72215" rx="3.60916" ry="3.72215" transform="matrix(-1 0 0 1 125.78 26.0557)" fill="#CAFF4D"/>
<ellipse opacity="0.5" cx="4.81225" cy="4.96286" rx="4.81225" ry="4.96286" transform="matrix(-1 0 0 1 101.711 24.8135)" fill="#CAFF4D"/>
<ellipse opacity="0.5" cx="4.81223" cy="4.96286" rx="4.81223" ry="4.96286" transform="matrix(-1 0 0 1 76.4502 24.8135)" fill="#CAFF4D"/>
<ellipse opacity="0.5" cx="4.81223" cy="4.96286" rx="4.81223" ry="4.96286" transform="matrix(-1 0 0 1 53.6006 24.8135)" fill="#CAFF4D"/>
<ellipse opacity="0.3" cx="3.60918" cy="3.72215" rx="3.60918" ry="3.72215" transform="matrix(-1 0 0 1 29.5303 26.0557)" fill="#CAFF4D"/>
<ellipse opacity="0.2" cx="2.40725" cy="2.48259" rx="2.40725" ry="2.48259" transform="matrix(-1 0 0 1 5.47461 27.2988)" fill="#CAFF4D"/>
<ellipse opacity="0.1" cx="1.20305" cy="1.2424" rx="1.20305" ry="1.2424" transform="matrix(-1 0 0 1 173.905 2.48438)" fill="#CAFF4D"/>
<ellipse opacity="0.3" cx="2.40725" cy="2.4826" rx="2.40725" ry="2.4826" transform="matrix(-1 0 0 1 149.835 1.24219)" fill="#CAFF4D"/>
<ellipse opacity="0.3" cx="3.60916" cy="3.72215" rx="3.60916" ry="3.72215" transform="matrix(-1 0 0 1 125.78 0)" fill="#CAFF4D"/>
<ellipse opacity="0.3" cx="3.60918" cy="3.72215" rx="3.60918" ry="3.72215" transform="matrix(-1 0 0 1 100.506 0)" fill="#CAFF4D"/>
<ellipse opacity="0.3" cx="3.60918" cy="3.72215" rx="3.60918" ry="3.72215" transform="matrix(-1 0 0 1 75.2441 0)" fill="#CAFF4D"/>
<ellipse opacity="0.3" cx="3.60916" cy="3.72215" rx="3.60916" ry="3.72215" transform="matrix(-1 0 0 1 52.3955 0)" fill="#CAFF4D"/>
<ellipse opacity="0.3" cx="3.60918" cy="3.72215" rx="3.60918" ry="3.72215" transform="matrix(-1 0 0 1 29.5303 0)" fill="#CAFF4D"/>
<ellipse opacity="0.2" cx="2.40725" cy="2.4826" rx="2.40725" ry="2.4826" transform="matrix(-1 0 0 1 5.47461 1.24219)" fill="#CAFF4D"/>
<ellipse opacity="0.3" cx="2.40725" cy="2.4826" rx="2.40725" ry="2.4826" transform="matrix(-1 0 0 1 343.931 124.076)" fill="#CAFF4D" fill-opacity="0.3"/>
<ellipse opacity="0.2" cx="2.40725" cy="2.4826" rx="2.40725" ry="2.4826" transform="matrix(-1 0 0 1 318.67 124.076)" fill="#CAFF4D" fill-opacity="0.3"/>
<ellipse opacity="0.2" cx="2.40725" cy="2.4826" rx="2.40725" ry="2.4826" transform="matrix(-1 0 0 1 293.409 124.076)" fill="#CAFF4D" fill-opacity="0.3"/>
<ellipse opacity="0.2" cx="2.40727" cy="2.4826" rx="2.40727" ry="2.4826" transform="matrix(-1 0 0 1 268.134 124.076)" fill="#CAFF4D" fill-opacity="0.3"/>
<ellipse opacity="0.2" cx="2.40725" cy="2.4826" rx="2.40725" ry="2.4826" transform="matrix(-1 0 0 1 245.285 124.076)" fill="#CAFF4D" fill-opacity="0.3"/>
<ellipse opacity="0.2" cx="2.40725" cy="2.4826" rx="2.40725" ry="2.4826" transform="matrix(-1 0 0 1 222.42 124.076)" fill="#CAFF4D" fill-opacity="0.3"/>
<ellipse opacity="0.2" cx="2.40725" cy="2.4826" rx="2.40725" ry="2.4826" transform="matrix(-1 0 0 1 199.569 124.076)" fill="#CAFF4D" fill-opacity="0.3"/>
<ellipse opacity="0.1" cx="1.20307" cy="1.2424" rx="1.20307" ry="1.2424" transform="matrix(-1 0 0 1 175.501 125.318)" fill="#CAFF4D" fill-opacity="0.3"/>
<ellipse opacity="0.3" cx="2.40725" cy="2.4826" rx="2.40725" ry="2.4826" transform="matrix(-1 0 0 1 343.931 100.503)" fill="#CAFF4D" fill-opacity="0.3"/>
<ellipse opacity="0.3" cx="3.60916" cy="3.72215" rx="3.60916" ry="3.72215" transform="matrix(-1 0 0 1 319.876 99.2612)" fill="#CAFF4D" fill-opacity="0.3"/>
<ellipse opacity="0.3" cx="3.60918" cy="3.72215" rx="3.60918" ry="3.72215" transform="matrix(-1 0 0 1 294.601 99.2612)" fill="#CAFF4D" fill-opacity="0.3"/>
<ellipse opacity="0.3" cx="3.60918" cy="3.72215" rx="3.60918" ry="3.72215" transform="matrix(-1 0 0 1 269.339 99.2612)" fill="#CAFF4D" fill-opacity="0.3"/>
<ellipse opacity="0.3" cx="3.60916" cy="3.72215" rx="3.60916" ry="3.72215" transform="matrix(-1 0 0 1 246.49 99.2612)" fill="#CAFF4D" fill-opacity="0.3"/>
<ellipse opacity="0.3" cx="3.60918" cy="3.72215" rx="3.60918" ry="3.72215" transform="matrix(-1 0 0 1 223.625 99.2612)" fill="#CAFF4D" fill-opacity="0.3"/>
<ellipse opacity="0.2" cx="2.40725" cy="2.4826" rx="2.40725" ry="2.4826" transform="matrix(-1 0 0 1 199.569 100.503)" fill="#CAFF4D" fill-opacity="0.3"/>
<ellipse opacity="0.1" cx="1.20307" cy="1.2424" rx="1.20307" ry="1.2424" transform="matrix(-1 0 0 1 175.501 101.746)" fill="#CAFF4D" fill-opacity="0.3"/>
<ellipse opacity="0.3" cx="2.40725" cy="2.4826" rx="2.40725" ry="2.4826" transform="matrix(-1 0 0 1 343.931 76.9238)" fill="#CAFF4D" fill-opacity="0.3"/>
<ellipse opacity="0.3" cx="3.60916" cy="3.72215" rx="3.60916" ry="3.72215" transform="matrix(-1 0 0 1 319.876 75.6899)" fill="#CAFF4D" fill-opacity="0.3"/>
<ellipse opacity="0.5" cx="4.81225" cy="4.96287" rx="4.81225" ry="4.96287" transform="matrix(-1 0 0 1 295.806 74.4473)" fill="#CAFF4D" fill-opacity="0.3"/>
<ellipse opacity="0.5" cx="4.81223" cy="4.96287" rx="4.81223" ry="4.96287" transform="matrix(-1 0 0 1 270.545 74.4473)" fill="#CAFF4D" fill-opacity="0.3"/>
<ellipse opacity="0.5" cx="4.81223" cy="4.96287" rx="4.81223" ry="4.96287" transform="matrix(-1 0 0 1 247.695 74.4473)" fill="#CAFF4D" fill-opacity="0.3"/>
<ellipse opacity="0.3" cx="3.60918" cy="3.72215" rx="3.60918" ry="3.72215" transform="matrix(-1 0 0 1 223.625 75.6899)" fill="#CAFF4D" fill-opacity="0.3"/>
<ellipse opacity="0.2" cx="2.40725" cy="2.4826" rx="2.40725" ry="2.4826" transform="matrix(-1 0 0 1 199.569 76.9238)" fill="#CAFF4D" fill-opacity="0.3"/>
<ellipse opacity="0.1" cx="1.20307" cy="1.2424" rx="1.20307" ry="1.2424" transform="matrix(-1 0 0 1 175.501 78.1665)" fill="#CAFF4D" fill-opacity="0.3"/>
<ellipse opacity="0.3" cx="2.40725" cy="2.48259" rx="2.40725" ry="2.48259" transform="matrix(-1 0 0 1 343.931 53.353)" fill="#CAFF4D" fill-opacity="0.3"/>
<ellipse opacity="0.3" cx="3.60916" cy="3.72215" rx="3.60916" ry="3.72215" transform="matrix(-1 0 0 1 319.876 52.1118)" fill="#CAFF4D" fill-opacity="0.3"/>
<ellipse opacity="0.5" cx="4.81225" cy="4.96287" rx="4.81225" ry="4.96287" transform="matrix(-1 0 0 1 295.806 50.8691)" fill="#CAFF4D" fill-opacity="0.3"/>
<ellipse opacity="0.6" cx="6.0153" cy="6.20358" rx="6.0153" ry="6.20358" transform="matrix(-1 0 0 1 271.75 49.6338)" fill="#CAFF4D" fill-opacity="0.3"/>
<ellipse opacity="0.5" cx="4.81223" cy="4.96287" rx="4.81223" ry="4.96287" transform="matrix(-1 0 0 1 247.695 50.8691)" fill="#CAFF4D" fill-opacity="0.3"/>
<ellipse opacity="0.3" cx="3.60918" cy="3.72215" rx="3.60918" ry="3.72215" transform="matrix(-1 0 0 1 223.625 52.1118)" fill="#CAFF4D" fill-opacity="0.3"/>
<ellipse opacity="0.2" cx="2.40725" cy="2.48259" rx="2.40725" ry="2.48259" transform="matrix(-1 0 0 1 199.569 53.353)" fill="#CAFF4D" fill-opacity="0.3"/>
<ellipse opacity="0.1" cx="1.20307" cy="1.2424" rx="1.20307" ry="1.2424" transform="matrix(-1 0 0 1 175.501 54.5947)" fill="#CAFF4D" fill-opacity="0.3"/>
<ellipse opacity="0.3" cx="2.40725" cy="2.48259" rx="2.40725" ry="2.48259" transform="matrix(-1 0 0 1 343.931 27.2988)" fill="#CAFF4D" fill-opacity="0.3"/>
<ellipse opacity="0.3" cx="3.60916" cy="3.72215" rx="3.60916" ry="3.72215" transform="matrix(-1 0 0 1 319.876 26.0557)" fill="#CAFF4D" fill-opacity="0.3"/>
<ellipse opacity="0.5" cx="4.81225" cy="4.96286" rx="4.81225" ry="4.96286" transform="matrix(-1 0 0 1 295.806 24.8135)" fill="#CAFF4D" fill-opacity="0.3"/>
<ellipse opacity="0.5" cx="4.81223" cy="4.96286" rx="4.81223" ry="4.96286" transform="matrix(-1 0 0 1 270.545 24.8135)" fill="#CAFF4D" fill-opacity="0.3"/>
<ellipse opacity="0.5" cx="4.81223" cy="4.96286" rx="4.81223" ry="4.96286" transform="matrix(-1 0 0 1 247.695 24.8135)" fill="#CAFF4D" fill-opacity="0.3"/>
<ellipse opacity="0.3" cx="3.60918" cy="3.72215" rx="3.60918" ry="3.72215" transform="matrix(-1 0 0 1 223.625 26.0557)" fill="#CAFF4D" fill-opacity="0.3"/>
<ellipse opacity="0.2" cx="2.40725" cy="2.48259" rx="2.40725" ry="2.48259" transform="matrix(-1 0 0 1 199.569 27.2988)" fill="#CAFF4D" fill-opacity="0.3"/>
<ellipse opacity="0.1" cx="1.20307" cy="1.2424" rx="1.20307" ry="1.2424" transform="matrix(-1 0 0 1 175.501 28.5396)" fill="#CAFF4D" fill-opacity="0.3"/>
<ellipse opacity="0.3" cx="2.40725" cy="2.4826" rx="2.40725" ry="2.4826" transform="matrix(-1 0 0 1 343.931 1.24219)" fill="#CAFF4D" fill-opacity="0.3"/>
<ellipse opacity="0.3" cx="3.60916" cy="3.72215" rx="3.60916" ry="3.72215" transform="matrix(-1 0 0 1 319.876 0)" fill="#CAFF4D" fill-opacity="0.3"/>
<ellipse opacity="0.3" cx="3.60918" cy="3.72215" rx="3.60918" ry="3.72215" transform="matrix(-1 0 0 1 294.601 0)" fill="#CAFF4D" fill-opacity="0.3"/>
<ellipse opacity="0.3" cx="3.60918" cy="3.72215" rx="3.60918" ry="3.72215" transform="matrix(-1 0 0 1 269.339 0)" fill="#CAFF4D" fill-opacity="0.3"/>
<ellipse opacity="0.3" cx="3.60916" cy="3.72215" rx="3.60916" ry="3.72215" transform="matrix(-1 0 0 1 246.49 0)" fill="#CAFF4D" fill-opacity="0.3"/>
<ellipse opacity="0.3" cx="3.60918" cy="3.72215" rx="3.60918" ry="3.72215" transform="matrix(-1 0 0 1 223.625 0)" fill="#CAFF4D" fill-opacity="0.3"/>
<ellipse opacity="0.2" cx="2.40725" cy="2.4826" rx="2.40725" ry="2.4826" transform="matrix(-1 0 0 1 199.569 1.24219)" fill="#CAFF4D" fill-opacity="0.3"/>
<ellipse opacity="0.1" cx="1.20307" cy="1.2424" rx="1.20307" ry="1.2424" transform="matrix(-1 0 0 1 175.501 2.48438)" fill="#CAFF4D" fill-opacity="0.3"/>
<ellipse opacity="0.1" cx="1.20305" cy="1.2424" rx="1.20305" ry="1.2424" transform="matrix(-1 0 0 1 150.63 151.374)" fill="#CAFF4D" fill-opacity="0.3"/>
<ellipse opacity="0.1" cx="1.20304" cy="1.2424" rx="1.20304" ry="1.2424" transform="matrix(-1 0 0 1 125.37 151.374)" fill="#CAFF4D" fill-opacity="0.3"/>
<ellipse opacity="0.1" cx="1.20307" cy="1.2424" rx="1.20307" ry="1.2424" transform="matrix(-1 0 0 1 100.111 151.374)" fill="#CAFF4D" fill-opacity="0.3"/>
<ellipse opacity="0.1" cx="1.20305" cy="1.2424" rx="1.20305" ry="1.2424" transform="matrix(-1 0 0 1 74.8496 151.374)" fill="#CAFF4D" fill-opacity="0.3"/>
<ellipse opacity="0.1" cx="1.20307" cy="1.2424" rx="1.20307" ry="1.2424" transform="matrix(-1 0 0 1 51.9854 151.374)" fill="#CAFF4D" fill-opacity="0.3"/>
<ellipse opacity="0.1" cx="1.20307" cy="1.2424" rx="1.20307" ry="1.2424" transform="matrix(-1 0 0 1 29.1348 151.374)" fill="#CAFF4D" fill-opacity="0.3"/>
<ellipse opacity="0.1" cx="1.20305" cy="1.2424" rx="1.20305" ry="1.2424" transform="matrix(-1 0 0 1 6.27051 151.374)" fill="#CAFF4D" fill-opacity="0.3"/>
<ellipse opacity="0.1" cx="1.20305" cy="1.2424" rx="1.20305" ry="1.2424" transform="matrix(-1 0 0 1 368 323.988)" fill="#CAFF4D"/>
<ellipse opacity="0.3" cx="2.40725" cy="2.4826" rx="2.40725" ry="2.4826" transform="matrix(-1 0 0 1 343.931 322.746)" fill="#CAFF4D"/>
<ellipse opacity="0.2" cx="2.40725" cy="2.4826" rx="2.40725" ry="2.4826" transform="matrix(-1 0 0 1 318.67 322.746)" fill="#CAFF4D"/>
<ellipse opacity="0.2" cx="2.40725" cy="2.4826" rx="2.40725" ry="2.4826" transform="matrix(-1 0 0 1 293.409 322.746)" fill="#CAFF4D"/>
<ellipse opacity="0.2" cx="2.40727" cy="2.4826" rx="2.40727" ry="2.4826" transform="matrix(-1 0 0 1 268.134 322.746)" fill="#CAFF4D"/>
<ellipse opacity="0.2" cx="2.40725" cy="2.4826" rx="2.40725" ry="2.4826" transform="matrix(-1 0 0 1 245.285 322.746)" fill="#CAFF4D"/>
<ellipse opacity="0.2" cx="2.40725" cy="2.4826" rx="2.40725" ry="2.4826" transform="matrix(-1 0 0 1 222.42 322.746)" fill="#CAFF4D"/>
<ellipse opacity="0.2" cx="2.40725" cy="2.4826" rx="2.40725" ry="2.4826" transform="matrix(-1 0 0 1 199.569 322.746)" fill="#CAFF4D"/>
<ellipse opacity="0.1" cx="1.20307" cy="1.2424" rx="1.20307" ry="1.2424" transform="matrix(-1 0 0 1 175.501 323.988)" fill="#CAFF4D"/>
<ellipse opacity="0.1" cx="1.20305" cy="1.2424" rx="1.20305" ry="1.2424" transform="matrix(-1 0 0 1 368 300.416)" fill="#CAFF4D"/>
<ellipse opacity="0.3" cx="2.40725" cy="2.4826" rx="2.40725" ry="2.4826" transform="matrix(-1 0 0 1 343.931 299.173)" fill="#CAFF4D"/>
<ellipse opacity="0.3" cx="3.60916" cy="3.72215" rx="3.60916" ry="3.72215" transform="matrix(-1 0 0 1 319.876 297.932)" fill="#CAFF4D"/>
<ellipse opacity="0.3" cx="3.60918" cy="3.72215" rx="3.60918" ry="3.72215" transform="matrix(-1 0 0 1 294.601 297.932)" fill="#CAFF4D"/>
<ellipse opacity="0.3" cx="3.60918" cy="3.72215" rx="3.60918" ry="3.72215" transform="matrix(-1 0 0 1 269.339 297.932)" fill="#CAFF4D"/>
<ellipse opacity="0.3" cx="3.60916" cy="3.72215" rx="3.60916" ry="3.72215" transform="matrix(-1 0 0 1 246.49 297.932)" fill="#CAFF4D"/>
<ellipse opacity="0.3" cx="3.60918" cy="3.72215" rx="3.60918" ry="3.72215" transform="matrix(-1 0 0 1 223.625 297.932)" fill="#CAFF4D"/>
<ellipse opacity="0.2" cx="2.40725" cy="2.4826" rx="2.40725" ry="2.4826" transform="matrix(-1 0 0 1 199.569 299.173)" fill="#CAFF4D"/>
<ellipse opacity="0.1" cx="1.20307" cy="1.2424" rx="1.20307" ry="1.2424" transform="matrix(-1 0 0 1 175.501 300.416)" fill="#CAFF4D"/>
<ellipse opacity="0.1" cx="1.20305" cy="1.2424" rx="1.20305" ry="1.2424" transform="matrix(-1 0 0 1 368 276.837)" fill="#CAFF4D"/>
<ellipse opacity="0.3" cx="2.40725" cy="2.4826" rx="2.40725" ry="2.4826" transform="matrix(-1 0 0 1 343.931 275.594)" fill="#CAFF4D"/>
<ellipse opacity="0.3" cx="3.60916" cy="3.72215" rx="3.60916" ry="3.72215" transform="matrix(-1 0 0 1 319.876 274.36)" fill="#CAFF4D"/>
<ellipse opacity="0.5" cx="4.81225" cy="4.96287" rx="4.81225" ry="4.96287" transform="matrix(-1 0 0 1 295.806 273.118)" fill="#CAFF4D"/>
<ellipse opacity="0.5" cx="4.81223" cy="4.96287" rx="4.81223" ry="4.96287" transform="matrix(-1 0 0 1 270.545 273.118)" fill="#CAFF4D"/>
<ellipse opacity="0.5" cx="4.81223" cy="4.96287" rx="4.81223" ry="4.96287" transform="matrix(-1 0 0 1 247.695 273.118)" fill="#CAFF4D"/>
<ellipse opacity="0.3" cx="3.60918" cy="3.72215" rx="3.60918" ry="3.72215" transform="matrix(-1 0 0 1 223.625 274.36)" fill="#CAFF4D"/>
<ellipse opacity="0.2" cx="2.40725" cy="2.4826" rx="2.40725" ry="2.4826" transform="matrix(-1 0 0 1 199.569 275.594)" fill="#CAFF4D"/>
<ellipse opacity="0.1" cx="1.20307" cy="1.2424" rx="1.20307" ry="1.2424" transform="matrix(-1 0 0 1 175.501 276.837)" fill="#CAFF4D"/>
<ellipse opacity="0.1" cx="1.20305" cy="1.2424" rx="1.20305" ry="1.2424" transform="matrix(-1 0 0 1 368 253.265)" fill="#CAFF4D"/>
<ellipse opacity="0.3" cx="2.40725" cy="2.48259" rx="2.40725" ry="2.48259" transform="matrix(-1 0 0 1 343.931 252.023)" fill="#CAFF4D"/>
<ellipse opacity="0.3" cx="3.60916" cy="3.72215" rx="3.60916" ry="3.72215" transform="matrix(-1 0 0 1 319.876 250.782)" fill="#CAFF4D"/>
<ellipse opacity="0.5" cx="4.81225" cy="4.96287" rx="4.81225" ry="4.96287" transform="matrix(-1 0 0 1 295.806 249.54)" fill="#CAFF4D"/>
<ellipse opacity="0.6" cx="6.0153" cy="6.20358" rx="6.0153" ry="6.20358" transform="matrix(-1 0 0 1 271.75 248.304)" fill="#CAFF4D"/>
<ellipse opacity="0.5" cx="4.81223" cy="4.96287" rx="4.81223" ry="4.96287" transform="matrix(-1 0 0 1 247.695 249.54)" fill="#CAFF4D"/>
<ellipse opacity="0.3" cx="3.60918" cy="3.72215" rx="3.60918" ry="3.72215" transform="matrix(-1 0 0 1 223.625 250.782)" fill="#CAFF4D"/>
<ellipse opacity="0.2" cx="2.40725" cy="2.48259" rx="2.40725" ry="2.48259" transform="matrix(-1 0 0 1 199.569 252.023)" fill="#CAFF4D"/>
<ellipse opacity="0.1" cx="1.20307" cy="1.2424" rx="1.20307" ry="1.2424" transform="matrix(-1 0 0 1 175.501 253.265)" fill="#CAFF4D"/>
<ellipse opacity="0.1" cx="1.20305" cy="1.2424" rx="1.20305" ry="1.2424" transform="matrix(-1 0 0 1 368 227.21)" fill="#CAFF4D"/>
<ellipse opacity="0.3" cx="2.40725" cy="2.48259" rx="2.40725" ry="2.48259" transform="matrix(-1 0 0 1 343.931 225.969)" fill="#CAFF4D"/>
<ellipse opacity="0.3" cx="3.60916" cy="3.72215" rx="3.60916" ry="3.72215" transform="matrix(-1 0 0 1 319.876 224.726)" fill="#CAFF4D"/>
<ellipse opacity="0.5" cx="4.81225" cy="4.96286" rx="4.81225" ry="4.96286" transform="matrix(-1 0 0 1 295.806 223.484)" fill="#CAFF4D"/>
<ellipse opacity="0.5" cx="4.81223" cy="4.96286" rx="4.81223" ry="4.96286" transform="matrix(-1 0 0 1 270.545 223.484)" fill="#CAFF4D"/>
<ellipse opacity="0.5" cx="4.81223" cy="4.96286" rx="4.81223" ry="4.96286" transform="matrix(-1 0 0 1 247.695 223.484)" fill="#CAFF4D"/>
<ellipse opacity="0.3" cx="3.60918" cy="3.72215" rx="3.60918" ry="3.72215" transform="matrix(-1 0 0 1 223.625 224.726)" fill="#CAFF4D"/>
<ellipse opacity="0.2" cx="2.40725" cy="2.48259" rx="2.40725" ry="2.48259" transform="matrix(-1 0 0 1 199.569 225.969)" fill="#CAFF4D"/>
<ellipse opacity="0.1" cx="1.20307" cy="1.2424" rx="1.20307" ry="1.2424" transform="matrix(-1 0 0 1 175.501 227.21)" fill="#CAFF4D"/>
<ellipse opacity="0.1" cx="1.20305" cy="1.2424" rx="1.20305" ry="1.2424" transform="matrix(-1 0 0 1 368 201.155)" fill="#CAFF4D"/>
<ellipse opacity="0.3" cx="2.40725" cy="2.4826" rx="2.40725" ry="2.4826" transform="matrix(-1 0 0 1 343.931 199.913)" fill="#CAFF4D"/>
<ellipse opacity="0.3" cx="3.60916" cy="3.72215" rx="3.60916" ry="3.72215" transform="matrix(-1 0 0 1 319.876 198.67)" fill="#CAFF4D"/>
<ellipse opacity="0.3" cx="3.60918" cy="3.72215" rx="3.60918" ry="3.72215" transform="matrix(-1 0 0 1 294.601 198.67)" fill="#CAFF4D"/>
<ellipse opacity="0.3" cx="3.60918" cy="3.72215" rx="3.60918" ry="3.72215" transform="matrix(-1 0 0 1 269.339 198.67)" fill="#CAFF4D"/>
<ellipse opacity="0.3" cx="3.60916" cy="3.72215" rx="3.60916" ry="3.72215" transform="matrix(-1 0 0 1 246.49 198.67)" fill="#CAFF4D"/>
<ellipse opacity="0.3" cx="3.60918" cy="3.72215" rx="3.60918" ry="3.72215" transform="matrix(-1 0 0 1 223.625 198.67)" fill="#CAFF4D"/>
<ellipse opacity="0.2" cx="2.40725" cy="2.4826" rx="2.40725" ry="2.4826" transform="matrix(-1 0 0 1 199.569 199.913)" fill="#CAFF4D"/>
<ellipse opacity="0.1" cx="1.20307" cy="1.2424" rx="1.20307" ry="1.2424" transform="matrix(-1 0 0 1 175.501 201.155)" fill="#CAFF4D"/>
<ellipse opacity="0.1" cx="1.20305" cy="1.2424" rx="1.20305" ry="1.2424" transform="matrix(-1 0 0 1 368 175.099)" fill="#CAFF4D"/>
<ellipse opacity="0.3" cx="2.40725" cy="2.4826" rx="2.40725" ry="2.4826" transform="matrix(-1 0 0 1 343.931 173.859)" fill="#CAFF4D"/>
<ellipse opacity="0.2" cx="2.40725" cy="2.4826" rx="2.40725" ry="2.4826" transform="matrix(-1 0 0 1 318.67 173.859)" fill="#CAFF4D"/>
<ellipse opacity="0.2" cx="2.40725" cy="2.4826" rx="2.40725" ry="2.4826" transform="matrix(-1 0 0 1 293.409 173.859)" fill="#CAFF4D"/>
<ellipse opacity="0.2" cx="2.40727" cy="2.4826" rx="2.40727" ry="2.4826" transform="matrix(-1 0 0 1 268.134 173.859)" fill="#CAFF4D"/>
<ellipse opacity="0.2" cx="2.40725" cy="2.4826" rx="2.40725" ry="2.4826" transform="matrix(-1 0 0 1 245.285 173.859)" fill="#CAFF4D"/>
<ellipse opacity="0.2" cx="2.40725" cy="2.4826" rx="2.40725" ry="2.4826" transform="matrix(-1 0 0 1 222.42 173.859)" fill="#CAFF4D"/>
<ellipse opacity="0.2" cx="2.40725" cy="2.4826" rx="2.40725" ry="2.4826" transform="matrix(-1 0 0 1 199.569 173.859)" fill="#CAFF4D"/>
<ellipse opacity="0.1" cx="1.20307" cy="1.2424" rx="1.20307" ry="1.2424" transform="matrix(-1 0 0 1 175.501 175.099)" fill="#CAFF4D"/>
<ellipse opacity="0.1" cx="1.20305" cy="1.2424" rx="1.20305" ry="1.2424" transform="matrix(-1 0 0 1 175.905 323.988)" fill="#CAFF4D" fill-opacity="0.3"/>
<ellipse opacity="0.3" cx="2.40725" cy="2.4826" rx="2.40725" ry="2.4826" transform="matrix(-1 0 0 1 151.835 322.746)" fill="#CAFF4D" fill-opacity="0.3"/>
<ellipse opacity="0.2" cx="2.40725" cy="2.4826" rx="2.40725" ry="2.4826" transform="matrix(-1 0 0 1 126.575 322.746)" fill="#CAFF4D" fill-opacity="0.3"/>
<ellipse opacity="0.2" cx="2.40725" cy="2.4826" rx="2.40725" ry="2.4826" transform="matrix(-1 0 0 1 101.314 322.746)" fill="#CAFF4D" fill-opacity="0.3"/>
<ellipse opacity="0.2" cx="2.40727" cy="2.4826" rx="2.40727" ry="2.4826" transform="matrix(-1 0 0 1 76.0391 322.746)" fill="#CAFF4D" fill-opacity="0.3"/>
<ellipse opacity="0.2" cx="2.40725" cy="2.4826" rx="2.40725" ry="2.4826" transform="matrix(-1 0 0 1 53.1904 322.746)" fill="#CAFF4D" fill-opacity="0.3"/>
<ellipse opacity="0.2" cx="2.40725" cy="2.4826" rx="2.40725" ry="2.4826" transform="matrix(-1 0 0 1 30.3252 322.746)" fill="#CAFF4D" fill-opacity="0.3"/>
<ellipse opacity="0.2" cx="2.40725" cy="2.4826" rx="2.40725" ry="2.4826" transform="matrix(-1 0 0 1 7.47461 322.746)" fill="#CAFF4D" fill-opacity="0.3"/>
<ellipse opacity="0.1" cx="1.20305" cy="1.2424" rx="1.20305" ry="1.2424" transform="matrix(-1 0 0 1 175.905 300.416)" fill="#CAFF4D" fill-opacity="0.3"/>
<ellipse opacity="0.3" cx="2.40725" cy="2.4826" rx="2.40725" ry="2.4826" transform="matrix(-1 0 0 1 151.835 299.173)" fill="#CAFF4D" fill-opacity="0.3"/>
<ellipse opacity="0.3" cx="3.60916" cy="3.72215" rx="3.60916" ry="3.72215" transform="matrix(-1 0 0 1 127.78 297.932)" fill="#CAFF4D" fill-opacity="0.3"/>
<ellipse opacity="0.3" cx="3.60918" cy="3.72215" rx="3.60918" ry="3.72215" transform="matrix(-1 0 0 1 102.506 297.932)" fill="#CAFF4D" fill-opacity="0.3"/>
<ellipse opacity="0.3" cx="3.60918" cy="3.72215" rx="3.60918" ry="3.72215" transform="matrix(-1 0 0 1 77.2441 297.932)" fill="#CAFF4D" fill-opacity="0.3"/>
<ellipse opacity="0.3" cx="3.60916" cy="3.72215" rx="3.60916" ry="3.72215" transform="matrix(-1 0 0 1 54.3955 297.932)" fill="#CAFF4D" fill-opacity="0.3"/>
<ellipse opacity="0.3" cx="3.60918" cy="3.72215" rx="3.60918" ry="3.72215" transform="matrix(-1 0 0 1 31.5303 297.932)" fill="#CAFF4D" fill-opacity="0.3"/>
<ellipse opacity="0.2" cx="2.40725" cy="2.4826" rx="2.40725" ry="2.4826" transform="matrix(-1 0 0 1 7.47461 299.173)" fill="#CAFF4D" fill-opacity="0.3"/>
<ellipse opacity="0.1" cx="1.20305" cy="1.2424" rx="1.20305" ry="1.2424" transform="matrix(-1 0 0 1 175.905 276.837)" fill="#CAFF4D" fill-opacity="0.3"/>
<ellipse opacity="0.3" cx="2.40725" cy="2.4826" rx="2.40725" ry="2.4826" transform="matrix(-1 0 0 1 151.835 275.594)" fill="#CAFF4D" fill-opacity="0.3"/>
<ellipse opacity="0.3" cx="3.60916" cy="3.72215" rx="3.60916" ry="3.72215" transform="matrix(-1 0 0 1 127.78 274.36)" fill="#CAFF4D" fill-opacity="0.3"/>
<ellipse opacity="0.5" cx="4.81225" cy="4.96287" rx="4.81225" ry="4.96287" transform="matrix(-1 0 0 1 103.711 273.118)" fill="#CAFF4D" fill-opacity="0.3"/>
<ellipse opacity="0.5" cx="4.81223" cy="4.96287" rx="4.81223" ry="4.96287" transform="matrix(-1 0 0 1 78.4502 273.118)" fill="#CAFF4D" fill-opacity="0.3"/>
<ellipse opacity="0.5" cx="4.81223" cy="4.96287" rx="4.81223" ry="4.96287" transform="matrix(-1 0 0 1 55.6006 273.118)" fill="#CAFF4D" fill-opacity="0.3"/>
<ellipse opacity="0.3" cx="3.60918" cy="3.72215" rx="3.60918" ry="3.72215" transform="matrix(-1 0 0 1 31.5303 274.36)" fill="#CAFF4D" fill-opacity="0.3"/>
<ellipse opacity="0.2" cx="2.40725" cy="2.4826" rx="2.40725" ry="2.4826" transform="matrix(-1 0 0 1 7.47461 275.594)" fill="#CAFF4D" fill-opacity="0.3"/>
<ellipse opacity="0.1" cx="1.20305" cy="1.2424" rx="1.20305" ry="1.2424" transform="matrix(-1 0 0 1 175.905 253.265)" fill="#CAFF4D" fill-opacity="0.3"/>
<ellipse opacity="0.3" cx="2.40725" cy="2.48259" rx="2.40725" ry="2.48259" transform="matrix(-1 0 0 1 151.835 252.023)" fill="#CAFF4D" fill-opacity="0.3"/>
<ellipse opacity="0.3" cx="3.60916" cy="3.72215" rx="3.60916" ry="3.72215" transform="matrix(-1 0 0 1 127.78 250.782)" fill="#CAFF4D" fill-opacity="0.3"/>
<ellipse opacity="0.5" cx="4.81225" cy="4.96287" rx="4.81225" ry="4.96287" transform="matrix(-1 0 0 1 103.711 249.54)" fill="#CAFF4D" fill-opacity="0.3"/>
<ellipse opacity="0.6" cx="6.0153" cy="6.20358" rx="6.0153" ry="6.20358" transform="matrix(-1 0 0 1 79.6553 248.304)" fill="#CAFF4D" fill-opacity="0.3"/>
<ellipse opacity="0.5" cx="4.81223" cy="4.96287" rx="4.81223" ry="4.96287" transform="matrix(-1 0 0 1 55.6006 249.54)" fill="#CAFF4D" fill-opacity="0.3"/>
<ellipse opacity="0.3" cx="3.60918" cy="3.72215" rx="3.60918" ry="3.72215" transform="matrix(-1 0 0 1 31.5303 250.782)" fill="#CAFF4D" fill-opacity="0.3"/>
<ellipse opacity="0.2" cx="2.40725" cy="2.48259" rx="2.40725" ry="2.48259" transform="matrix(-1 0 0 1 7.47461 252.023)" fill="#CAFF4D" fill-opacity="0.3"/>
<ellipse opacity="0.1" cx="1.20305" cy="1.2424" rx="1.20305" ry="1.2424" transform="matrix(-1 0 0 1 175.905 227.21)" fill="#CAFF4D" fill-opacity="0.3"/>
<ellipse opacity="0.3" cx="2.40725" cy="2.48259" rx="2.40725" ry="2.48259" transform="matrix(-1 0 0 1 151.835 225.969)" fill="#CAFF4D" fill-opacity="0.3"/>
<ellipse opacity="0.3" cx="3.60916" cy="3.72215" rx="3.60916" ry="3.72215" transform="matrix(-1 0 0 1 127.78 224.726)" fill="#CAFF4D" fill-opacity="0.3"/>
<ellipse opacity="0.5" cx="4.81225" cy="4.96286" rx="4.81225" ry="4.96286" transform="matrix(-1 0 0 1 103.711 223.484)" fill="#CAFF4D" fill-opacity="0.3"/>
<ellipse opacity="0.5" cx="4.81223" cy="4.96286" rx="4.81223" ry="4.96286" transform="matrix(-1 0 0 1 78.4502 223.484)" fill="#CAFF4D" fill-opacity="0.3"/>
<ellipse opacity="0.5" cx="4.81223" cy="4.96286" rx="4.81223" ry="4.96286" transform="matrix(-1 0 0 1 55.6006 223.484)" fill="#CAFF4D" fill-opacity="0.3"/>
<ellipse opacity="0.3" cx="3.60918" cy="3.72215" rx="3.60918" ry="3.72215" transform="matrix(-1 0 0 1 31.5303 224.726)" fill="#CAFF4D" fill-opacity="0.3"/>
<ellipse opacity="0.2" cx="2.40725" cy="2.48259" rx="2.40725" ry="2.48259" transform="matrix(-1 0 0 1 7.47461 225.969)" fill="#CAFF4D" fill-opacity="0.3"/>
<ellipse opacity="0.1" cx="1.20305" cy="1.2424" rx="1.20305" ry="1.2424" transform="matrix(-1 0 0 1 175.905 201.155)" fill="#CAFF4D" fill-opacity="0.3"/>
<ellipse opacity="0.3" cx="2.40725" cy="2.4826" rx="2.40725" ry="2.4826" transform="matrix(-1 0 0 1 151.835 199.913)" fill="#CAFF4D" fill-opacity="0.3"/>
<ellipse opacity="0.3" cx="3.60916" cy="3.72215" rx="3.60916" ry="3.72215" transform="matrix(-1 0 0 1 127.78 198.67)" fill="#CAFF4D" fill-opacity="0.3"/>
<ellipse opacity="0.3" cx="3.60918" cy="3.72215" rx="3.60918" ry="3.72215" transform="matrix(-1 0 0 1 102.506 198.67)" fill="#CAFF4D" fill-opacity="0.3"/>
<ellipse opacity="0.3" cx="3.60918" cy="3.72215" rx="3.60918" ry="3.72215" transform="matrix(-1 0 0 1 77.2441 198.67)" fill="#CAFF4D" fill-opacity="0.3"/>
<ellipse opacity="0.3" cx="3.60916" cy="3.72215" rx="3.60916" ry="3.72215" transform="matrix(-1 0 0 1 54.3955 198.67)" fill="#CAFF4D" fill-opacity="0.3"/>
<ellipse opacity="0.3" cx="3.60918" cy="3.72215" rx="3.60918" ry="3.72215" transform="matrix(-1 0 0 1 31.5303 198.67)" fill="#CAFF4D" fill-opacity="0.3"/>
<ellipse opacity="0.2" cx="2.40725" cy="2.4826" rx="2.40725" ry="2.4826" transform="matrix(-1 0 0 1 7.47461 199.913)" fill="#CAFF4D" fill-opacity="0.3"/>
<ellipse opacity="0.1" cx="1.20305" cy="1.2424" rx="1.20305" ry="1.2424" transform="matrix(-1 0 0 1 175.905 175.099)" fill="#CAFF4D" fill-opacity="0.3"/>
<ellipse opacity="0.3" cx="2.40725" cy="2.4826" rx="2.40725" ry="2.4826" transform="matrix(-1 0 0 1 151.835 173.859)" fill="#CAFF4D" fill-opacity="0.3"/>
<ellipse opacity="0.2" cx="2.40725" cy="2.4826" rx="2.40725" ry="2.4826" transform="matrix(-1 0 0 1 126.575 173.859)" fill="#CAFF4D" fill-opacity="0.3"/>
<ellipse opacity="0.2" cx="2.40725" cy="2.4826" rx="2.40725" ry="2.4826" transform="matrix(-1 0 0 1 101.314 173.859)" fill="#CAFF4D" fill-opacity="0.3"/>
<ellipse opacity="0.2" cx="2.40727" cy="2.4826" rx="2.40727" ry="2.4826" transform="matrix(-1 0 0 1 76.0391 173.859)" fill="#CAFF4D" fill-opacity="0.3"/>
<ellipse opacity="0.2" cx="2.40725" cy="2.4826" rx="2.40725" ry="2.4826" transform="matrix(-1 0 0 1 53.1904 173.859)" fill="#CAFF4D" fill-opacity="0.3"/>
<ellipse opacity="0.2" cx="2.40725" cy="2.4826" rx="2.40725" ry="2.4826" transform="matrix(-1 0 0 1 30.3252 173.859)" fill="#CAFF4D" fill-opacity="0.3"/>
<ellipse opacity="0.2" cx="2.40725" cy="2.4826" rx="2.40725" ry="2.4826" transform="matrix(-1 0 0 1 7.47461 173.859)" fill="#CAFF4D" fill-opacity="0.3"/>
<rect x="73" y="49" width="205" height="234" fill="#CAFF4D"/>
<path d="M174.385 149.367C175.137 148.185 176.863 148.185 177.616 149.367L179.793 152.788C182.201 156.571 185.409 159.78 189.192 162.187L192.613 164.364C193.796 165.117 193.796 166.843 192.613 167.596L189.192 169.773C185.409 172.181 182.201 175.389 179.793 179.172L177.616 182.593C176.863 183.776 175.137 183.776 174.385 182.593L172.207 179.172C169.8 175.389 166.591 172.181 162.808 169.773L159.387 167.596C158.204 166.843 158.204 165.117 159.387 164.364L162.808 162.187C166.591 159.78 169.8 156.571 172.207 152.788L174.385 149.367Z" stroke="black" stroke-width="7.5" stroke-linejoin="round"/>
<path d="M135.534 132.419C150.357 133.492 159.916 118.486 176.131 118.486C192.104 118.167 199.92 132.62 216.295 132.62C225.074 177.303 206.811 205.372 176.265 213.481C147.95 206.75 126.674 178.394 135.534 132.419Z" stroke="black" stroke-width="7.5" stroke-linejoin="round"/>
</svg>