<svg width="1161" height="155" viewBox="0 0 1161 155" fill="none" xmlns="http://www.w3.org/2000/svg">
<ellipse opacity="0.1" cx="1.20305" cy="1.2424" rx="1.20305" ry="1.2424" transform="matrix(-1 0 0 1 387 150.841)" fill="#CAFF4D"/>
<ellipse opacity="0.3" cx="2.40725" cy="2.4826" rx="2.40725" ry="2.4826" transform="matrix(-1 0 0 1 362.931 149.599)" fill="#CAFF4D"/>
<ellipse opacity="0.2" cx="2.40725" cy="2.4826" rx="2.40725" ry="2.4826" transform="matrix(-1 0 0 1 312.409 149.599)" fill="#CAFF4D"/>
<ellipse opacity="0.2" cx="2.40727" cy="2.4826" rx="2.40727" ry="2.4826" transform="matrix(-1 0 0 1 287.135 149.599)" fill="#CAFF4D"/>
<ellipse opacity="0.2" cx="2.40725" cy="2.4826" rx="2.40725" ry="2.4826" transform="matrix(-1 0 0 1 264.286 149.599)" fill="#CAFF4D"/>
<ellipse opacity="0.2" cx="2.40725" cy="2.4826" rx="2.40725" ry="2.4826" transform="matrix(-1 0 0 1 241.42 149.599)" fill="#CAFF4D"/>
<ellipse opacity="0.2" cx="2.40725" cy="2.4826" rx="2.40725" ry="2.4826" transform="matrix(-1 0 0 1 218.569 149.599)" fill="#CAFF4D"/>
<ellipse opacity="0.1" cx="1.20307" cy="1.2424" rx="1.20307" ry="1.2424" transform="matrix(-1 0 0 1 194.501 150.841)" fill="#CAFF4D"/>
<ellipse opacity="0.1" cx="1.20305" cy="1.2424" rx="1.20305" ry="1.2424" transform="matrix(-1 0 0 1 387 127.269)" fill="#CAFF4D"/>
<ellipse opacity="0.3" cx="2.40725" cy="2.4826" rx="2.40725" ry="2.4826" transform="matrix(-1 0 0 1 362.931 126.026)" fill="#CAFF4D"/>
<ellipse opacity="0.3" cx="3.60916" cy="3.72215" rx="3.60916" ry="3.72215" transform="matrix(-1 0 0 1 338.876 124.784)" fill="#CAFF4D"/>
<ellipse opacity="0.3" cx="3.60918" cy="3.72215" rx="3.60918" ry="3.72215" transform="matrix(-1 0 0 1 313.602 124.784)" fill="#CAFF4D"/>
<ellipse opacity="0.3" cx="3.60918" cy="3.72215" rx="3.60918" ry="3.72215" transform="matrix(-1 0 0 1 288.34 124.784)" fill="#CAFF4D"/>
<ellipse opacity="0.3" cx="3.60916" cy="3.72215" rx="3.60916" ry="3.72215" transform="matrix(-1 0 0 1 265.491 124.784)" fill="#CAFF4D"/>
<ellipse opacity="0.3" cx="3.60918" cy="3.72215" rx="3.60918" ry="3.72215" transform="matrix(-1 0 0 1 242.625 124.784)" fill="#CAFF4D"/>
<ellipse opacity="0.2" cx="2.40725" cy="2.4826" rx="2.40725" ry="2.4826" transform="matrix(-1 0 0 1 218.569 126.026)" fill="#CAFF4D"/>
<ellipse opacity="0.1" cx="1.20307" cy="1.2424" rx="1.20307" ry="1.2424" transform="matrix(-1 0 0 1 194.501 127.269)" fill="#CAFF4D"/>
<ellipse opacity="0.1" cx="1.20305" cy="1.2424" rx="1.20305" ry="1.2424" transform="matrix(-1 0 0 1 387 103.689)" fill="#CAFF4D"/>
<ellipse opacity="0.3" cx="2.40725" cy="2.4826" rx="2.40725" ry="2.4826" transform="matrix(-1 0 0 1 362.931 102.447)" fill="#CAFF4D"/>
<ellipse opacity="0.3" cx="3.60916" cy="3.72215" rx="3.60916" ry="3.72215" transform="matrix(-1 0 0 1 338.876 101.213)" fill="#CAFF4D"/>
<ellipse opacity="0.5" cx="4.81225" cy="4.96287" rx="4.81225" ry="4.96287" transform="matrix(-1 0 0 1 314.807 99.9702)" fill="#CAFF4D"/>
<ellipse opacity="0.5" cx="4.81223" cy="4.96287" rx="4.81223" ry="4.96287" transform="matrix(-1 0 0 1 289.545 99.9702)" fill="#CAFF4D"/>
<ellipse opacity="0.5" cx="4.81223" cy="4.96287" rx="4.81223" ry="4.96287" transform="matrix(-1 0 0 1 266.695 99.9702)" fill="#CAFF4D"/>
<ellipse opacity="0.3" cx="3.60918" cy="3.72215" rx="3.60918" ry="3.72215" transform="matrix(-1 0 0 1 242.625 101.213)" fill="#CAFF4D"/>
<ellipse opacity="0.2" cx="2.40725" cy="2.4826" rx="2.40725" ry="2.4826" transform="matrix(-1 0 0 1 218.569 102.447)" fill="#CAFF4D"/>
<ellipse opacity="0.1" cx="1.20307" cy="1.2424" rx="1.20307" ry="1.2424" transform="matrix(-1 0 0 1 194.501 103.689)" fill="#CAFF4D"/>
<ellipse opacity="0.1" cx="1.20305" cy="1.2424" rx="1.20305" ry="1.2424" transform="matrix(-1 0 0 1 387 80.1177)" fill="#CAFF4D"/>
<ellipse opacity="0.3" cx="2.40725" cy="2.48259" rx="2.40725" ry="2.48259" transform="matrix(-1 0 0 1 362.931 78.876)" fill="#CAFF4D"/>
<ellipse opacity="0.3" cx="3.60916" cy="3.72215" rx="3.60916" ry="3.72215" transform="matrix(-1 0 0 1 338.876 77.6348)" fill="#CAFF4D"/>
<ellipse opacity="0.5" cx="4.81225" cy="4.96287" rx="4.81225" ry="4.96287" transform="matrix(-1 0 0 1 314.807 76.3921)" fill="#CAFF4D"/>
<ellipse opacity="0.6" cx="6.0153" cy="6.20358" rx="6.0153" ry="6.20358" transform="matrix(-1 0 0 1 290.75 75.1567)" fill="#CAFF4D"/>
<ellipse opacity="0.5" cx="4.81223" cy="4.96287" rx="4.81223" ry="4.96287" transform="matrix(-1 0 0 1 266.695 76.3921)" fill="#CAFF4D"/>
<ellipse opacity="0.3" cx="3.60918" cy="3.72215" rx="3.60918" ry="3.72215" transform="matrix(-1 0 0 1 242.625 77.6348)" fill="#CAFF4D"/>
<ellipse opacity="0.2" cx="2.40725" cy="2.48259" rx="2.40725" ry="2.48259" transform="matrix(-1 0 0 1 218.569 78.876)" fill="#CAFF4D"/>
<ellipse opacity="0.1" cx="1.20307" cy="1.2424" rx="1.20307" ry="1.2424" transform="matrix(-1 0 0 1 194.501 80.1177)" fill="#CAFF4D"/>
<ellipse opacity="0.1" cx="1.20305" cy="1.2424" rx="1.20305" ry="1.2424" transform="matrix(-1 0 0 1 387 54.0625)" fill="#CAFF4D"/>
<ellipse opacity="0.3" cx="2.40725" cy="2.48259" rx="2.40725" ry="2.48259" transform="matrix(-1 0 0 1 362.931 52.8218)" fill="#CAFF4D"/>
<ellipse opacity="0.3" cx="3.60916" cy="3.72215" rx="3.60916" ry="3.72215" transform="matrix(-1 0 0 1 338.876 51.5786)" fill="#CAFF4D"/>
<ellipse opacity="0.5" cx="4.81225" cy="4.96286" rx="4.81225" ry="4.96286" transform="matrix(-1 0 0 1 314.807 50.3364)" fill="#CAFF4D"/>
<ellipse opacity="0.5" cx="4.81223" cy="4.96286" rx="4.81223" ry="4.96286" transform="matrix(-1 0 0 1 289.545 50.3364)" fill="#CAFF4D"/>
<ellipse opacity="0.5" cx="4.81223" cy="4.96286" rx="4.81223" ry="4.96286" transform="matrix(-1 0 0 1 266.695 50.3364)" fill="#CAFF4D"/>
<ellipse opacity="0.3" cx="3.60918" cy="3.72215" rx="3.60918" ry="3.72215" transform="matrix(-1 0 0 1 242.625 51.5786)" fill="#CAFF4D"/>
<ellipse opacity="0.2" cx="2.40725" cy="2.48259" rx="2.40725" ry="2.48259" transform="matrix(-1 0 0 1 218.569 52.8218)" fill="#CAFF4D"/>
<ellipse opacity="0.1" cx="1.20307" cy="1.2424" rx="1.20307" ry="1.2424" transform="matrix(-1 0 0 1 194.501 54.0625)" fill="#CAFF4D"/>
<ellipse opacity="0.1" cx="1.20305" cy="1.2424" rx="1.20305" ry="1.2424" transform="matrix(-1 0 0 1 387 28.0073)" fill="#CAFF4D"/>
<ellipse opacity="0.3" cx="2.40725" cy="2.4826" rx="2.40725" ry="2.4826" transform="matrix(-1 0 0 1 362.931 26.7651)" fill="#CAFF4D"/>
<ellipse opacity="0.3" cx="3.60916" cy="3.72215" rx="3.60916" ry="3.72215" transform="matrix(-1 0 0 1 338.876 25.5229)" fill="#CAFF4D"/>
<ellipse opacity="0.3" cx="3.60918" cy="3.72215" rx="3.60918" ry="3.72215" transform="matrix(-1 0 0 1 313.602 25.5229)" fill="#CAFF4D"/>
<ellipse opacity="0.3" cx="3.60918" cy="3.72215" rx="3.60918" ry="3.72215" transform="matrix(-1 0 0 1 288.34 25.5229)" fill="#CAFF4D"/>
<ellipse opacity="0.3" cx="3.60916" cy="3.72215" rx="3.60916" ry="3.72215" transform="matrix(-1 0 0 1 265.491 25.5229)" fill="#CAFF4D"/>
<ellipse opacity="0.3" cx="3.60918" cy="3.72215" rx="3.60918" ry="3.72215" transform="matrix(-1 0 0 1 242.625 25.5229)" fill="#CAFF4D"/>
<ellipse opacity="0.2" cx="2.40725" cy="2.4826" rx="2.40725" ry="2.4826" transform="matrix(-1 0 0 1 218.569 26.7651)" fill="#CAFF4D"/>
<ellipse opacity="0.1" cx="1.20307" cy="1.2424" rx="1.20307" ry="1.2424" transform="matrix(-1 0 0 1 194.501 28.0073)" fill="#CAFF4D"/>
<ellipse opacity="0.1" cx="1.20305" cy="1.2424" rx="1.20305" ry="1.2424" transform="matrix(-1 0 0 1 387 1.95166)" fill="#CAFF4D"/>
<ellipse opacity="0.3" cx="2.40725" cy="2.4826" rx="2.40725" ry="2.4826" transform="matrix(-1 0 0 1 362.931 0.711426)" fill="#CAFF4D"/>
<ellipse opacity="0.2" cx="2.40725" cy="2.4826" rx="2.40725" ry="2.4826" transform="matrix(-1 0 0 1 337.671 0.711426)" fill="#CAFF4D"/>
<ellipse opacity="0.2" cx="2.40725" cy="2.4826" rx="2.40725" ry="2.4826" transform="matrix(-1 0 0 1 312.409 0.711426)" fill="#CAFF4D"/>
<ellipse opacity="0.2" cx="2.40727" cy="2.4826" rx="2.40727" ry="2.4826" transform="matrix(-1 0 0 1 287.135 0.711426)" fill="#CAFF4D"/>
<ellipse opacity="0.2" cx="2.40725" cy="2.4826" rx="2.40725" ry="2.4826" transform="matrix(-1 0 0 1 241.42 0.711426)" fill="#CAFF4D"/>
<ellipse opacity="0.2" cx="2.40725" cy="2.4826" rx="2.40725" ry="2.4826" transform="matrix(-1 0 0 1 218.569 0.711426)" fill="#CAFF4D"/>
<ellipse opacity="0.1" cx="1.20307" cy="1.2424" rx="1.20307" ry="1.2424" transform="matrix(-1 0 0 1 194.501 1.95166)" fill="#CAFF4D"/>
<ellipse opacity="0.1" cx="1.20305" cy="1.2424" rx="1.20305" ry="1.2424" transform="matrix(-1 0 0 1 194.905 150.841)" fill="#CAFF4D" fill-opacity="0.3"/>
<ellipse opacity="0.3" cx="2.40725" cy="2.4826" rx="2.40725" ry="2.4826" transform="matrix(-1 0 0 1 170.836 149.599)" fill="#CAFF4D" fill-opacity="0.3"/>
<ellipse opacity="0.2" cx="2.40725" cy="2.4826" rx="2.40725" ry="2.4826" transform="matrix(-1 0 0 1 145.576 149.599)" fill="#CAFF4D" fill-opacity="0.3"/>
<ellipse opacity="0.2" cx="2.40725" cy="2.4826" rx="2.40725" ry="2.4826" transform="matrix(-1 0 0 1 120.314 149.599)" fill="#CAFF4D" fill-opacity="0.3"/>
<ellipse opacity="0.2" cx="2.40727" cy="2.4826" rx="2.40727" ry="2.4826" transform="matrix(-1 0 0 1 95.04 149.599)" fill="#CAFF4D" fill-opacity="0.3"/>
<ellipse opacity="0.2" cx="2.40725" cy="2.4826" rx="2.40725" ry="2.4826" transform="matrix(-1 0 0 1 72.1914 149.599)" fill="#CAFF4D" fill-opacity="0.3"/>
<ellipse opacity="0.2" cx="2.40725" cy="2.4826" rx="2.40725" ry="2.4826" transform="matrix(-1 0 0 1 49.3252 149.599)" fill="#CAFF4D" fill-opacity="0.3"/>
<ellipse opacity="0.2" cx="2.40725" cy="2.4826" rx="2.40725" ry="2.4826" transform="matrix(-1 0 0 1 26.4746 149.599)" fill="#CAFF4D" fill-opacity="0.3"/>
<ellipse opacity="0.1" cx="1.20307" cy="1.2424" rx="1.20307" ry="1.2424" transform="matrix(-1 0 0 1 2.40625 150.841)" fill="#CAFF4D" fill-opacity="0.3"/>
<ellipse opacity="0.1" cx="1.20305" cy="1.2424" rx="1.20305" ry="1.2424" transform="matrix(-1 0 0 1 194.905 127.269)" fill="#CAFF4D" fill-opacity="0.3"/>
<ellipse opacity="0.3" cx="2.40725" cy="2.4826" rx="2.40725" ry="2.4826" transform="matrix(-1 0 0 1 170.836 126.026)" fill="#CAFF4D" fill-opacity="0.3"/>
<ellipse opacity="0.3" cx="3.60916" cy="3.72215" rx="3.60916" ry="3.72215" transform="matrix(-1 0 0 1 146.781 124.784)" fill="#CAFF4D" fill-opacity="0.3"/>
<ellipse opacity="0.3" cx="3.60918" cy="3.72215" rx="3.60918" ry="3.72215" transform="matrix(-1 0 0 1 121.506 124.784)" fill="#CAFF4D" fill-opacity="0.3"/>
<ellipse opacity="0.3" cx="3.60918" cy="3.72215" rx="3.60918" ry="3.72215" transform="matrix(-1 0 0 1 96.2451 124.784)" fill="#CAFF4D" fill-opacity="0.3"/>
<ellipse opacity="0.3" cx="3.60916" cy="3.72215" rx="3.60916" ry="3.72215" transform="matrix(-1 0 0 1 73.3965 124.784)" fill="#CAFF4D" fill-opacity="0.3"/>
<ellipse opacity="0.3" cx="3.60918" cy="3.72215" rx="3.60918" ry="3.72215" transform="matrix(-1 0 0 1 50.5303 124.784)" fill="#CAFF4D" fill-opacity="0.3"/>
<ellipse opacity="0.2" cx="2.40725" cy="2.4826" rx="2.40725" ry="2.4826" transform="matrix(-1 0 0 1 26.4746 126.026)" fill="#CAFF4D" fill-opacity="0.3"/>
<ellipse opacity="0.1" cx="1.20307" cy="1.2424" rx="1.20307" ry="1.2424" transform="matrix(-1 0 0 1 2.40625 127.269)" fill="#CAFF4D" fill-opacity="0.3"/>
<ellipse opacity="0.1" cx="1.20305" cy="1.2424" rx="1.20305" ry="1.2424" transform="matrix(-1 0 0 1 194.905 103.689)" fill="#CAFF4D" fill-opacity="0.3"/>
<ellipse opacity="0.3" cx="2.40725" cy="2.4826" rx="2.40725" ry="2.4826" transform="matrix(-1 0 0 1 170.836 102.447)" fill="#CAFF4D" fill-opacity="0.3"/>
<ellipse opacity="0.3" cx="3.60916" cy="3.72215" rx="3.60916" ry="3.72215" transform="matrix(-1 0 0 1 146.781 101.213)" fill="#CAFF4D" fill-opacity="0.3"/>
<ellipse opacity="0.5" cx="4.81225" cy="4.96287" rx="4.81225" ry="4.96287" transform="matrix(-1 0 0 1 122.711 99.9702)" fill="#CAFF4D" fill-opacity="0.3"/>
<ellipse opacity="0.5" cx="4.81223" cy="4.96287" rx="4.81223" ry="4.96287" transform="matrix(-1 0 0 1 97.4502 99.9702)" fill="#CAFF4D" fill-opacity="0.3"/>
<ellipse opacity="0.5" cx="4.81223" cy="4.96287" rx="4.81223" ry="4.96287" transform="matrix(-1 0 0 1 74.6006 99.9702)" fill="#CAFF4D" fill-opacity="0.3"/>
<ellipse opacity="0.3" cx="3.60918" cy="3.72215" rx="3.60918" ry="3.72215" transform="matrix(-1 0 0 1 50.5303 101.213)" fill="#CAFF4D" fill-opacity="0.3"/>
<ellipse opacity="0.2" cx="2.40725" cy="2.4826" rx="2.40725" ry="2.4826" transform="matrix(-1 0 0 1 26.4746 102.447)" fill="#CAFF4D" fill-opacity="0.3"/>
<ellipse opacity="0.1" cx="1.20307" cy="1.2424" rx="1.20307" ry="1.2424" transform="matrix(-1 0 0 1 2.40625 103.689)" fill="#CAFF4D" fill-opacity="0.3"/>
<ellipse opacity="0.1" cx="1.20305" cy="1.2424" rx="1.20305" ry="1.2424" transform="matrix(-1 0 0 1 194.905 80.1177)" fill="#CAFF4D" fill-opacity="0.3"/>
<ellipse opacity="0.3" cx="2.40725" cy="2.48259" rx="2.40725" ry="2.48259" transform="matrix(-1 0 0 1 170.836 78.876)" fill="#CAFF4D" fill-opacity="0.3"/>
<ellipse opacity="0.3" cx="3.60916" cy="3.72215" rx="3.60916" ry="3.72215" transform="matrix(-1 0 0 1 146.781 77.6348)" fill="#CAFF4D" fill-opacity="0.3"/>
<ellipse opacity="0.5" cx="4.81225" cy="4.96287" rx="4.81225" ry="4.96287" transform="matrix(-1 0 0 1 122.711 76.3921)" fill="#CAFF4D" fill-opacity="0.3"/>
<ellipse opacity="0.6" cx="6.0153" cy="6.20358" rx="6.0153" ry="6.20358" transform="matrix(-1 0 0 1 98.6553 75.1567)" fill="#CAFF4D" fill-opacity="0.3"/>
<ellipse opacity="0.5" cx="4.81223" cy="4.96287" rx="4.81223" ry="4.96287" transform="matrix(-1 0 0 1 74.6006 76.3921)" fill="#CAFF4D" fill-opacity="0.3"/>
<ellipse opacity="0.3" cx="3.60918" cy="3.72215" rx="3.60918" ry="3.72215" transform="matrix(-1 0 0 1 50.5303 77.6348)" fill="#CAFF4D" fill-opacity="0.3"/>
<ellipse opacity="0.2" cx="2.40725" cy="2.48259" rx="2.40725" ry="2.48259" transform="matrix(-1 0 0 1 26.4746 78.876)" fill="#CAFF4D" fill-opacity="0.3"/>
<ellipse opacity="0.1" cx="1.20307" cy="1.2424" rx="1.20307" ry="1.2424" transform="matrix(-1 0 0 1 2.40625 80.1177)" fill="#CAFF4D" fill-opacity="0.3"/>
<ellipse opacity="0.1" cx="1.20305" cy="1.2424" rx="1.20305" ry="1.2424" transform="matrix(-1 0 0 1 194.905 54.0625)" fill="#CAFF4D" fill-opacity="0.3"/>
<ellipse opacity="0.3" cx="2.40725" cy="2.48259" rx="2.40725" ry="2.48259" transform="matrix(-1 0 0 1 170.836 52.8218)" fill="#CAFF4D" fill-opacity="0.3"/>
<ellipse opacity="0.3" cx="3.60916" cy="3.72215" rx="3.60916" ry="3.72215" transform="matrix(-1 0 0 1 146.781 51.5786)" fill="#CAFF4D" fill-opacity="0.3"/>
<ellipse opacity="0.5" cx="4.81225" cy="4.96286" rx="4.81225" ry="4.96286" transform="matrix(-1 0 0 1 122.711 50.3364)" fill="#CAFF4D" fill-opacity="0.3"/>
<ellipse opacity="0.5" cx="4.81223" cy="4.96286" rx="4.81223" ry="4.96286" transform="matrix(-1 0 0 1 97.4502 50.3364)" fill="#CAFF4D" fill-opacity="0.3"/>
<ellipse opacity="0.5" cx="4.81223" cy="4.96286" rx="4.81223" ry="4.96286" transform="matrix(-1 0 0 1 74.6006 50.3364)" fill="#CAFF4D" fill-opacity="0.3"/>
<ellipse opacity="0.3" cx="3.60918" cy="3.72215" rx="3.60918" ry="3.72215" transform="matrix(-1 0 0 1 50.5303 51.5786)" fill="#CAFF4D" fill-opacity="0.3"/>
<ellipse opacity="0.2" cx="2.40725" cy="2.48259" rx="2.40725" ry="2.48259" transform="matrix(-1 0 0 1 26.4746 52.8218)" fill="#CAFF4D" fill-opacity="0.3"/>
<ellipse opacity="0.1" cx="1.20307" cy="1.2424" rx="1.20307" ry="1.2424" transform="matrix(-1 0 0 1 2.40625 54.0625)" fill="#CAFF4D" fill-opacity="0.3"/>
<ellipse opacity="0.1" cx="1.20305" cy="1.2424" rx="1.20305" ry="1.2424" transform="matrix(-1 0 0 1 194.905 28.0073)" fill="#CAFF4D" fill-opacity="0.3"/>
<ellipse opacity="0.3" cx="2.40725" cy="2.4826" rx="2.40725" ry="2.4826" transform="matrix(-1 0 0 1 170.836 26.7651)" fill="#CAFF4D" fill-opacity="0.3"/>
<ellipse opacity="0.3" cx="3.60916" cy="3.72215" rx="3.60916" ry="3.72215" transform="matrix(-1 0 0 1 146.781 25.5229)" fill="#CAFF4D" fill-opacity="0.3"/>
<ellipse opacity="0.3" cx="3.60918" cy="3.72215" rx="3.60918" ry="3.72215" transform="matrix(-1 0 0 1 121.506 25.5229)" fill="#CAFF4D" fill-opacity="0.3"/>
<ellipse opacity="0.3" cx="3.60918" cy="3.72215" rx="3.60918" ry="3.72215" transform="matrix(-1 0 0 1 96.2451 25.5229)" fill="#CAFF4D" fill-opacity="0.3"/>
<ellipse opacity="0.3" cx="3.60916" cy="3.72215" rx="3.60916" ry="3.72215" transform="matrix(-1 0 0 1 73.3965 25.5229)" fill="#CAFF4D" fill-opacity="0.3"/>
<ellipse opacity="0.3" cx="3.60918" cy="3.72215" rx="3.60918" ry="3.72215" transform="matrix(-1 0 0 1 50.5303 25.5229)" fill="#CAFF4D" fill-opacity="0.3"/>
<ellipse opacity="0.2" cx="2.40725" cy="2.4826" rx="2.40725" ry="2.4826" transform="matrix(-1 0 0 1 26.4746 26.7651)" fill="#CAFF4D" fill-opacity="0.3"/>
<ellipse opacity="0.1" cx="1.20307" cy="1.2424" rx="1.20307" ry="1.2424" transform="matrix(-1 0 0 1 2.40625 28.0073)" fill="#CAFF4D" fill-opacity="0.3"/>
<ellipse opacity="0.1" cx="1.20305" cy="1.2424" rx="1.20305" ry="1.2424" transform="matrix(-1 0 0 1 194.905 1.95166)" fill="#CAFF4D" fill-opacity="0.3"/>
<ellipse opacity="0.3" cx="2.40725" cy="2.4826" rx="2.40725" ry="2.4826" transform="matrix(-1 0 0 1 170.836 0.711426)" fill="#CAFF4D" fill-opacity="0.3"/>
<ellipse opacity="0.2" cx="2.40725" cy="2.4826" rx="2.40725" ry="2.4826" transform="matrix(-1 0 0 1 145.576 0.711426)" fill="#CAFF4D" fill-opacity="0.3"/>
<ellipse opacity="0.2" cx="2.40725" cy="2.4826" rx="2.40725" ry="2.4826" transform="matrix(-1 0 0 1 120.314 0.711426)" fill="#CAFF4D" fill-opacity="0.3"/>
<ellipse opacity="0.2" cx="2.40727" cy="2.4826" rx="2.40727" ry="2.4826" transform="matrix(-1 0 0 1 95.04 0.711426)" fill="#CAFF4D" fill-opacity="0.3"/>
<ellipse opacity="0.2" cx="2.40725" cy="2.4826" rx="2.40725" ry="2.4826" transform="matrix(-1 0 0 1 72.1914 0.711426)" fill="#CAFF4D" fill-opacity="0.3"/>
<ellipse opacity="0.2" cx="2.40725" cy="2.4826" rx="2.40725" ry="2.4826" transform="matrix(-1 0 0 1 49.3252 0.711426)" fill="#CAFF4D" fill-opacity="0.3"/>
<ellipse opacity="0.2" cx="2.40725" cy="2.4826" rx="2.40725" ry="2.4826" transform="matrix(-1 0 0 1 26.4746 0.711426)" fill="#CAFF4D" fill-opacity="0.3"/>
<ellipse opacity="0.1" cx="1.20307" cy="1.2424" rx="1.20307" ry="1.2424" transform="matrix(-1 0 0 1 2.40625 1.95166)" fill="#CAFF4D" fill-opacity="0.3"/>
<ellipse opacity="0.1" cx="1.20305" cy="1.2424" rx="1.20305" ry="1.2424" transform="matrix(-1 0 0 1 774 150.841)" fill="#CAFF4D"/>
<ellipse opacity="0.3" cx="2.40725" cy="2.4826" rx="2.40725" ry="2.4826" transform="matrix(-1 0 0 1 749.931 149.599)" fill="#CAFF4D"/>
<ellipse opacity="0.2" cx="2.40725" cy="2.4826" rx="2.40725" ry="2.4826" transform="matrix(-1 0 0 1 724.671 149.599)" fill="#CAFF4D"/>
<ellipse opacity="0.2" cx="2.40725" cy="2.4826" rx="2.40725" ry="2.4826" transform="matrix(-1 0 0 1 699.409 149.599)" fill="#CAFF4D"/>
<ellipse opacity="0.2" cx="2.40727" cy="2.4826" rx="2.40727" ry="2.4826" transform="matrix(-1 0 0 1 674.135 149.599)" fill="#CAFF4D"/>
<ellipse opacity="0.2" cx="2.40725" cy="2.4826" rx="2.40725" ry="2.4826" transform="matrix(-1 0 0 1 651.286 149.599)" fill="#CAFF4D"/>
<ellipse opacity="0.2" cx="2.40725" cy="2.4826" rx="2.40725" ry="2.4826" transform="matrix(-1 0 0 1 628.42 149.599)" fill="#CAFF4D"/>
<ellipse opacity="0.2" cx="2.40725" cy="2.4826" rx="2.40725" ry="2.4826" transform="matrix(-1 0 0 1 605.569 149.599)" fill="#CAFF4D"/>
<ellipse opacity="0.1" cx="1.20307" cy="1.2424" rx="1.20307" ry="1.2424" transform="matrix(-1 0 0 1 581.501 150.841)" fill="#CAFF4D"/>
<ellipse opacity="0.1" cx="1.20305" cy="1.2424" rx="1.20305" ry="1.2424" transform="matrix(-1 0 0 1 774 127.269)" fill="#CAFF4D"/>
<ellipse opacity="0.3" cx="2.40725" cy="2.4826" rx="2.40725" ry="2.4826" transform="matrix(-1 0 0 1 749.931 126.026)" fill="#CAFF4D"/>
<ellipse opacity="0.3" cx="3.60916" cy="3.72215" rx="3.60916" ry="3.72215" transform="matrix(-1 0 0 1 725.876 124.784)" fill="#CAFF4D"/>
<ellipse opacity="0.3" cx="3.60918" cy="3.72215" rx="3.60918" ry="3.72215" transform="matrix(-1 0 0 1 700.602 124.784)" fill="#CAFF4D"/>
<ellipse opacity="0.3" cx="3.60918" cy="3.72215" rx="3.60918" ry="3.72215" transform="matrix(-1 0 0 1 675.34 124.784)" fill="#CAFF4D"/>
<ellipse opacity="0.3" cx="3.60916" cy="3.72215" rx="3.60916" ry="3.72215" transform="matrix(-1 0 0 1 652.491 124.784)" fill="#CAFF4D"/>
<ellipse opacity="0.3" cx="3.60918" cy="3.72215" rx="3.60918" ry="3.72215" transform="matrix(-1 0 0 1 629.625 124.784)" fill="#CAFF4D"/>
<ellipse opacity="0.2" cx="2.40725" cy="2.4826" rx="2.40725" ry="2.4826" transform="matrix(-1 0 0 1 605.569 126.026)" fill="#CAFF4D"/>
<ellipse opacity="0.1" cx="1.20307" cy="1.2424" rx="1.20307" ry="1.2424" transform="matrix(-1 0 0 1 581.501 127.269)" fill="#CAFF4D"/>
<ellipse opacity="0.1" cx="1.20305" cy="1.2424" rx="1.20305" ry="1.2424" transform="matrix(-1 0 0 1 774 103.689)" fill="#CAFF4D"/>
<ellipse opacity="0.3" cx="2.40725" cy="2.4826" rx="2.40725" ry="2.4826" transform="matrix(-1 0 0 1 749.931 102.447)" fill="#CAFF4D"/>
<ellipse opacity="0.3" cx="3.60916" cy="3.72215" rx="3.60916" ry="3.72215" transform="matrix(-1 0 0 1 725.876 101.213)" fill="#CAFF4D"/>
<ellipse opacity="0.5" cx="4.81225" cy="4.96287" rx="4.81225" ry="4.96287" transform="matrix(-1 0 0 1 701.807 99.9702)" fill="#CAFF4D"/>
<ellipse opacity="0.5" cx="4.81223" cy="4.96287" rx="4.81223" ry="4.96287" transform="matrix(-1 0 0 1 676.545 99.9702)" fill="#CAFF4D"/>
<ellipse opacity="0.5" cx="4.81223" cy="4.96287" rx="4.81223" ry="4.96287" transform="matrix(-1 0 0 1 653.695 99.9702)" fill="#CAFF4D"/>
<ellipse opacity="0.3" cx="3.60918" cy="3.72215" rx="3.60918" ry="3.72215" transform="matrix(-1 0 0 1 629.625 101.213)" fill="#CAFF4D"/>
<ellipse opacity="0.2" cx="2.40725" cy="2.4826" rx="2.40725" ry="2.4826" transform="matrix(-1 0 0 1 605.569 102.447)" fill="#CAFF4D"/>
<ellipse opacity="0.1" cx="1.20307" cy="1.2424" rx="1.20307" ry="1.2424" transform="matrix(-1 0 0 1 581.501 103.689)" fill="#CAFF4D"/>
<ellipse opacity="0.1" cx="1.20305" cy="1.2424" rx="1.20305" ry="1.2424" transform="matrix(-1 0 0 1 774 80.1177)" fill="#CAFF4D"/>
<ellipse opacity="0.3" cx="2.40725" cy="2.48259" rx="2.40725" ry="2.48259" transform="matrix(-1 0 0 1 749.931 78.876)" fill="#CAFF4D"/>
<ellipse opacity="0.3" cx="3.60916" cy="3.72215" rx="3.60916" ry="3.72215" transform="matrix(-1 0 0 1 725.876 77.6348)" fill="#CAFF4D"/>
<ellipse opacity="0.5" cx="4.81225" cy="4.96287" rx="4.81225" ry="4.96287" transform="matrix(-1 0 0 1 701.807 76.3921)" fill="#CAFF4D"/>
<ellipse opacity="0.6" cx="6.0153" cy="6.20358" rx="6.0153" ry="6.20358" transform="matrix(-1 0 0 1 677.75 75.1567)" fill="#CAFF4D"/>
<ellipse opacity="0.5" cx="4.81223" cy="4.96287" rx="4.81223" ry="4.96287" transform="matrix(-1 0 0 1 653.695 76.3921)" fill="#CAFF4D"/>
<ellipse opacity="0.3" cx="3.60918" cy="3.72215" rx="3.60918" ry="3.72215" transform="matrix(-1 0 0 1 629.625 77.6348)" fill="#CAFF4D"/>
<ellipse opacity="0.2" cx="2.40725" cy="2.48259" rx="2.40725" ry="2.48259" transform="matrix(-1 0 0 1 605.569 78.876)" fill="#CAFF4D"/>
<ellipse opacity="0.1" cx="1.20307" cy="1.2424" rx="1.20307" ry="1.2424" transform="matrix(-1 0 0 1 581.501 80.1177)" fill="#CAFF4D"/>
<ellipse opacity="0.1" cx="1.20305" cy="1.2424" rx="1.20305" ry="1.2424" transform="matrix(-1 0 0 1 774 54.0625)" fill="#CAFF4D"/>
<ellipse opacity="0.3" cx="2.40725" cy="2.48259" rx="2.40725" ry="2.48259" transform="matrix(-1 0 0 1 749.931 52.8218)" fill="#CAFF4D"/>
<ellipse opacity="0.3" cx="3.60916" cy="3.72215" rx="3.60916" ry="3.72215" transform="matrix(-1 0 0 1 725.876 51.5786)" fill="#CAFF4D"/>
<ellipse opacity="0.5" cx="4.81225" cy="4.96286" rx="4.81225" ry="4.96286" transform="matrix(-1 0 0 1 701.807 50.3364)" fill="#CAFF4D"/>
<ellipse opacity="0.5" cx="4.81223" cy="4.96286" rx="4.81223" ry="4.96286" transform="matrix(-1 0 0 1 676.545 50.3364)" fill="#CAFF4D"/>
<ellipse opacity="0.5" cx="4.81223" cy="4.96286" rx="4.81223" ry="4.96286" transform="matrix(-1 0 0 1 653.695 50.3364)" fill="#CAFF4D"/>
<ellipse opacity="0.3" cx="3.60918" cy="3.72215" rx="3.60918" ry="3.72215" transform="matrix(-1 0 0 1 629.625 51.5786)" fill="#CAFF4D"/>
<ellipse opacity="0.2" cx="2.40725" cy="2.48259" rx="2.40725" ry="2.48259" transform="matrix(-1 0 0 1 605.569 52.8218)" fill="#CAFF4D"/>
<ellipse opacity="0.1" cx="1.20307" cy="1.2424" rx="1.20307" ry="1.2424" transform="matrix(-1 0 0 1 581.501 54.0625)" fill="#CAFF4D"/>
<ellipse opacity="0.1" cx="1.20305" cy="1.2424" rx="1.20305" ry="1.2424" transform="matrix(-1 0 0 1 774 28.0073)" fill="#CAFF4D"/>
<ellipse opacity="0.3" cx="2.40725" cy="2.4826" rx="2.40725" ry="2.4826" transform="matrix(-1 0 0 1 749.931 26.7651)" fill="#CAFF4D"/>
<ellipse opacity="0.3" cx="3.60916" cy="3.72215" rx="3.60916" ry="3.72215" transform="matrix(-1 0 0 1 725.876 25.5229)" fill="#CAFF4D"/>
<ellipse opacity="0.3" cx="3.60918" cy="3.72215" rx="3.60918" ry="3.72215" transform="matrix(-1 0 0 1 700.602 25.5229)" fill="#CAFF4D"/>
<ellipse opacity="0.3" cx="3.60918" cy="3.72215" rx="3.60918" ry="3.72215" transform="matrix(-1 0 0 1 675.34 25.5229)" fill="#CAFF4D"/>
<ellipse opacity="0.3" cx="3.60916" cy="3.72215" rx="3.60916" ry="3.72215" transform="matrix(-1 0 0 1 652.491 25.5229)" fill="#CAFF4D"/>
<ellipse opacity="0.3" cx="3.60918" cy="3.72215" rx="3.60918" ry="3.72215" transform="matrix(-1 0 0 1 629.625 25.5229)" fill="#CAFF4D"/>
<ellipse opacity="0.2" cx="2.40725" cy="2.4826" rx="2.40725" ry="2.4826" transform="matrix(-1 0 0 1 605.569 26.7651)" fill="#CAFF4D"/>
<ellipse opacity="0.1" cx="1.20307" cy="1.2424" rx="1.20307" ry="1.2424" transform="matrix(-1 0 0 1 581.501 28.0073)" fill="#CAFF4D"/>
<ellipse opacity="0.1" cx="1.20305" cy="1.2424" rx="1.20305" ry="1.2424" transform="matrix(-1 0 0 1 774 1.95166)" fill="#CAFF4D"/>
<ellipse opacity="0.3" cx="2.40725" cy="2.4826" rx="2.40725" ry="2.4826" transform="matrix(-1 0 0 1 749.931 0.711426)" fill="#CAFF4D"/>
<ellipse opacity="0.2" cx="2.40725" cy="2.4826" rx="2.40725" ry="2.4826" transform="matrix(-1 0 0 1 724.671 0.711426)" fill="#CAFF4D"/>
<ellipse opacity="0.2" cx="2.40725" cy="2.4826" rx="2.40725" ry="2.4826" transform="matrix(-1 0 0 1 699.409 0.711426)" fill="#CAFF4D"/>
<ellipse opacity="0.2" cx="2.40727" cy="2.4826" rx="2.40727" ry="2.4826" transform="matrix(-1 0 0 1 674.135 0.711426)" fill="#CAFF4D"/>
<ellipse opacity="0.2" cx="2.40725" cy="2.4826" rx="2.40725" ry="2.4826" transform="matrix(-1 0 0 1 651.286 0.711426)" fill="#CAFF4D"/>
<ellipse opacity="0.2" cx="2.40725" cy="2.4826" rx="2.40725" ry="2.4826" transform="matrix(-1 0 0 1 628.42 0.711426)" fill="#CAFF4D"/>
<ellipse opacity="0.2" cx="2.40725" cy="2.4826" rx="2.40725" ry="2.4826" transform="matrix(-1 0 0 1 605.569 0.711426)" fill="#CAFF4D"/>
<ellipse opacity="0.1" cx="1.20307" cy="1.2424" rx="1.20307" ry="1.2424" transform="matrix(-1 0 0 1 581.501 1.95166)" fill="#CAFF4D"/>
<ellipse opacity="0.1" cx="1.20305" cy="1.2424" rx="1.20305" ry="1.2424" transform="matrix(-1 0 0 1 581.905 150.841)" fill="#CAFF4D" fill-opacity="0.3"/>
<ellipse opacity="0.3" cx="2.40725" cy="2.4826" rx="2.40725" ry="2.4826" transform="matrix(-1 0 0 1 557.836 149.599)" fill="#CAFF4D" fill-opacity="0.3"/>
<ellipse opacity="0.2" cx="2.40725" cy="2.4826" rx="2.40725" ry="2.4826" transform="matrix(-1 0 0 1 532.576 149.599)" fill="#CAFF4D" fill-opacity="0.3"/>
<ellipse opacity="0.2" cx="2.40725" cy="2.4826" rx="2.40725" ry="2.4826" transform="matrix(-1 0 0 1 507.314 149.599)" fill="#CAFF4D" fill-opacity="0.3"/>
<ellipse opacity="0.2" cx="2.40727" cy="2.4826" rx="2.40727" ry="2.4826" transform="matrix(-1 0 0 1 482.04 149.599)" fill="#CAFF4D" fill-opacity="0.3"/>
<ellipse opacity="0.2" cx="2.40725" cy="2.4826" rx="2.40725" ry="2.4826" transform="matrix(-1 0 0 1 459.191 149.599)" fill="#CAFF4D" fill-opacity="0.3"/>
<ellipse opacity="0.2" cx="2.40725" cy="2.4826" rx="2.40725" ry="2.4826" transform="matrix(-1 0 0 1 436.325 149.599)" fill="#CAFF4D" fill-opacity="0.3"/>
<ellipse opacity="0.2" cx="2.40725" cy="2.4826" rx="2.40725" ry="2.4826" transform="matrix(-1 0 0 1 413.475 149.599)" fill="#CAFF4D" fill-opacity="0.3"/>
<ellipse opacity="0.1" cx="1.20307" cy="1.2424" rx="1.20307" ry="1.2424" transform="matrix(-1 0 0 1 389.406 150.841)" fill="#CAFF4D" fill-opacity="0.3"/>
<ellipse opacity="0.1" cx="1.20305" cy="1.2424" rx="1.20305" ry="1.2424" transform="matrix(-1 0 0 1 581.905 127.269)" fill="#CAFF4D" fill-opacity="0.3"/>
<ellipse opacity="0.3" cx="2.40725" cy="2.4826" rx="2.40725" ry="2.4826" transform="matrix(-1 0 0 1 557.836 126.026)" fill="#CAFF4D" fill-opacity="0.3"/>
<ellipse opacity="0.3" cx="3.60916" cy="3.72215" rx="3.60916" ry="3.72215" transform="matrix(-1 0 0 1 533.781 124.784)" fill="#CAFF4D" fill-opacity="0.3"/>
<ellipse opacity="0.3" cx="3.60918" cy="3.72215" rx="3.60918" ry="3.72215" transform="matrix(-1 0 0 1 508.506 124.784)" fill="#CAFF4D" fill-opacity="0.3"/>
<ellipse opacity="0.3" cx="3.60918" cy="3.72215" rx="3.60918" ry="3.72215" transform="matrix(-1 0 0 1 483.245 124.784)" fill="#CAFF4D" fill-opacity="0.3"/>
<ellipse opacity="0.3" cx="3.60916" cy="3.72215" rx="3.60916" ry="3.72215" transform="matrix(-1 0 0 1 460.396 124.784)" fill="#CAFF4D" fill-opacity="0.3"/>
<ellipse opacity="0.3" cx="3.60918" cy="3.72215" rx="3.60918" ry="3.72215" transform="matrix(-1 0 0 1 437.53 124.784)" fill="#CAFF4D" fill-opacity="0.3"/>
<ellipse opacity="0.2" cx="2.40725" cy="2.4826" rx="2.40725" ry="2.4826" transform="matrix(-1 0 0 1 413.475 126.026)" fill="#CAFF4D" fill-opacity="0.3"/>
<ellipse opacity="0.1" cx="1.20307" cy="1.2424" rx="1.20307" ry="1.2424" transform="matrix(-1 0 0 1 389.406 127.269)" fill="#CAFF4D" fill-opacity="0.3"/>
<ellipse opacity="0.1" cx="1.20305" cy="1.2424" rx="1.20305" ry="1.2424" transform="matrix(-1 0 0 1 581.905 103.689)" fill="#CAFF4D" fill-opacity="0.3"/>
<ellipse opacity="0.3" cx="2.40725" cy="2.4826" rx="2.40725" ry="2.4826" transform="matrix(-1 0 0 1 557.836 102.447)" fill="#CAFF4D" fill-opacity="0.3"/>
<ellipse opacity="0.3" cx="3.60916" cy="3.72215" rx="3.60916" ry="3.72215" transform="matrix(-1 0 0 1 533.781 101.213)" fill="#CAFF4D" fill-opacity="0.3"/>
<ellipse opacity="0.5" cx="4.81225" cy="4.96287" rx="4.81225" ry="4.96287" transform="matrix(-1 0 0 1 509.711 99.9702)" fill="#CAFF4D" fill-opacity="0.3"/>
<ellipse opacity="0.5" cx="4.81223" cy="4.96287" rx="4.81223" ry="4.96287" transform="matrix(-1 0 0 1 484.45 99.9702)" fill="#CAFF4D" fill-opacity="0.3"/>
<ellipse opacity="0.5" cx="4.81223" cy="4.96287" rx="4.81223" ry="4.96287" transform="matrix(-1 0 0 1 461.601 99.9702)" fill="#CAFF4D" fill-opacity="0.3"/>
<ellipse opacity="0.3" cx="3.60918" cy="3.72215" rx="3.60918" ry="3.72215" transform="matrix(-1 0 0 1 437.53 101.213)" fill="#CAFF4D" fill-opacity="0.3"/>
<ellipse opacity="0.2" cx="2.40725" cy="2.4826" rx="2.40725" ry="2.4826" transform="matrix(-1 0 0 1 413.475 102.447)" fill="#CAFF4D" fill-opacity="0.3"/>
<ellipse opacity="0.1" cx="1.20307" cy="1.2424" rx="1.20307" ry="1.2424" transform="matrix(-1 0 0 1 389.406 103.689)" fill="#CAFF4D" fill-opacity="0.3"/>
<ellipse opacity="0.1" cx="1.20305" cy="1.2424" rx="1.20305" ry="1.2424" transform="matrix(-1 0 0 1 581.905 80.1177)" fill="#CAFF4D" fill-opacity="0.3"/>
<ellipse opacity="0.3" cx="2.40725" cy="2.48259" rx="2.40725" ry="2.48259" transform="matrix(-1 0 0 1 557.836 78.876)" fill="#CAFF4D" fill-opacity="0.3"/>
<ellipse opacity="0.3" cx="3.60916" cy="3.72215" rx="3.60916" ry="3.72215" transform="matrix(-1 0 0 1 533.781 77.6348)" fill="#CAFF4D" fill-opacity="0.3"/>
<ellipse opacity="0.5" cx="4.81225" cy="4.96287" rx="4.81225" ry="4.96287" transform="matrix(-1 0 0 1 509.711 76.3921)" fill="#CAFF4D" fill-opacity="0.3"/>
<ellipse opacity="0.6" cx="6.0153" cy="6.20358" rx="6.0153" ry="6.20358" transform="matrix(-1 0 0 1 485.655 75.1567)" fill="#CAFF4D" fill-opacity="0.3"/>
<ellipse opacity="0.5" cx="4.81223" cy="4.96287" rx="4.81223" ry="4.96287" transform="matrix(-1 0 0 1 461.601 76.3921)" fill="#CAFF4D" fill-opacity="0.3"/>
<ellipse opacity="0.3" cx="3.60918" cy="3.72215" rx="3.60918" ry="3.72215" transform="matrix(-1 0 0 1 437.53 77.6348)" fill="#CAFF4D" fill-opacity="0.3"/>
<ellipse opacity="0.2" cx="2.40725" cy="2.48259" rx="2.40725" ry="2.48259" transform="matrix(-1 0 0 1 413.475 78.876)" fill="#CAFF4D" fill-opacity="0.3"/>
<ellipse opacity="0.1" cx="1.20307" cy="1.2424" rx="1.20307" ry="1.2424" transform="matrix(-1 0 0 1 389.406 80.1177)" fill="#CAFF4D" fill-opacity="0.3"/>
<ellipse opacity="0.1" cx="1.20305" cy="1.2424" rx="1.20305" ry="1.2424" transform="matrix(-1 0 0 1 581.905 54.0625)" fill="#CAFF4D" fill-opacity="0.3"/>
<ellipse opacity="0.3" cx="2.40725" cy="2.48259" rx="2.40725" ry="2.48259" transform="matrix(-1 0 0 1 557.836 52.8218)" fill="#CAFF4D" fill-opacity="0.3"/>
<ellipse opacity="0.3" cx="3.60916" cy="3.72215" rx="3.60916" ry="3.72215" transform="matrix(-1 0 0 1 533.781 51.5786)" fill="#CAFF4D" fill-opacity="0.3"/>
<ellipse opacity="0.5" cx="4.81225" cy="4.96286" rx="4.81225" ry="4.96286" transform="matrix(-1 0 0 1 509.711 50.3364)" fill="#CAFF4D" fill-opacity="0.3"/>
<ellipse opacity="0.5" cx="4.81223" cy="4.96286" rx="4.81223" ry="4.96286" transform="matrix(-1 0 0 1 484.45 50.3364)" fill="#CAFF4D" fill-opacity="0.3"/>
<ellipse opacity="0.5" cx="4.81223" cy="4.96286" rx="4.81223" ry="4.96286" transform="matrix(-1 0 0 1 461.601 50.3364)" fill="#CAFF4D" fill-opacity="0.3"/>
<ellipse opacity="0.3" cx="3.60918" cy="3.72215" rx="3.60918" ry="3.72215" transform="matrix(-1 0 0 1 437.53 51.5786)" fill="#CAFF4D" fill-opacity="0.3"/>
<ellipse opacity="0.2" cx="2.40725" cy="2.48259" rx="2.40725" ry="2.48259" transform="matrix(-1 0 0 1 413.475 52.8218)" fill="#CAFF4D" fill-opacity="0.3"/>
<ellipse opacity="0.1" cx="1.20307" cy="1.2424" rx="1.20307" ry="1.2424" transform="matrix(-1 0 0 1 389.406 54.0625)" fill="#CAFF4D" fill-opacity="0.3"/>
<ellipse opacity="0.1" cx="1.20305" cy="1.2424" rx="1.20305" ry="1.2424" transform="matrix(-1 0 0 1 581.905 28.0073)" fill="#CAFF4D" fill-opacity="0.3"/>
<ellipse opacity="0.3" cx="2.40725" cy="2.4826" rx="2.40725" ry="2.4826" transform="matrix(-1 0 0 1 557.836 26.7651)" fill="#CAFF4D" fill-opacity="0.3"/>
<ellipse opacity="0.3" cx="3.60916" cy="3.72215" rx="3.60916" ry="3.72215" transform="matrix(-1 0 0 1 533.781 25.5229)" fill="#CAFF4D" fill-opacity="0.3"/>
<ellipse opacity="0.3" cx="3.60918" cy="3.72215" rx="3.60918" ry="3.72215" transform="matrix(-1 0 0 1 508.506 25.5229)" fill="#CAFF4D" fill-opacity="0.3"/>
<ellipse opacity="0.3" cx="3.60918" cy="3.72215" rx="3.60918" ry="3.72215" transform="matrix(-1 0 0 1 483.245 25.5229)" fill="#CAFF4D" fill-opacity="0.3"/>
<ellipse opacity="0.3" cx="3.60916" cy="3.72215" rx="3.60916" ry="3.72215" transform="matrix(-1 0 0 1 460.396 25.5229)" fill="#CAFF4D" fill-opacity="0.3"/>
<ellipse opacity="0.3" cx="3.60918" cy="3.72215" rx="3.60918" ry="3.72215" transform="matrix(-1 0 0 1 437.53 25.5229)" fill="#CAFF4D" fill-opacity="0.3"/>
<ellipse opacity="0.2" cx="2.40725" cy="2.4826" rx="2.40725" ry="2.4826" transform="matrix(-1 0 0 1 413.475 26.7651)" fill="#CAFF4D" fill-opacity="0.3"/>
<ellipse opacity="0.1" cx="1.20307" cy="1.2424" rx="1.20307" ry="1.2424" transform="matrix(-1 0 0 1 389.406 28.0073)" fill="#CAFF4D" fill-opacity="0.3"/>
<ellipse opacity="0.1" cx="1.20305" cy="1.2424" rx="1.20305" ry="1.2424" transform="matrix(-1 0 0 1 581.905 1.95166)" fill="#CAFF4D" fill-opacity="0.3"/>
<ellipse opacity="0.3" cx="2.40725" cy="2.4826" rx="2.40725" ry="2.4826" transform="matrix(-1 0 0 1 557.836 0.711426)" fill="#CAFF4D" fill-opacity="0.3"/>
<ellipse opacity="0.2" cx="2.40725" cy="2.4826" rx="2.40725" ry="2.4826" transform="matrix(-1 0 0 1 532.576 0.711426)" fill="#CAFF4D" fill-opacity="0.3"/>
<ellipse opacity="0.2" cx="2.40725" cy="2.4826" rx="2.40725" ry="2.4826" transform="matrix(-1 0 0 1 507.314 0.711426)" fill="#CAFF4D" fill-opacity="0.3"/>
<ellipse opacity="0.2" cx="2.40727" cy="2.4826" rx="2.40727" ry="2.4826" transform="matrix(-1 0 0 1 482.04 0.711426)" fill="#CAFF4D" fill-opacity="0.3"/>
<ellipse opacity="0.2" cx="2.40725" cy="2.4826" rx="2.40725" ry="2.4826" transform="matrix(-1 0 0 1 459.191 0.711426)" fill="#CAFF4D" fill-opacity="0.3"/>
<ellipse opacity="0.2" cx="2.40725" cy="2.4826" rx="2.40725" ry="2.4826" transform="matrix(-1 0 0 1 436.325 0.711426)" fill="#CAFF4D" fill-opacity="0.3"/>
<ellipse opacity="0.2" cx="2.40725" cy="2.4826" rx="2.40725" ry="2.4826" transform="matrix(-1 0 0 1 413.475 0.711426)" fill="#CAFF4D" fill-opacity="0.3"/>
<ellipse opacity="0.1" cx="1.20307" cy="1.2424" rx="1.20307" ry="1.2424" transform="matrix(-1 0 0 1 389.406 1.95166)" fill="#CAFF4D" fill-opacity="0.3"/>
<ellipse opacity="0.1" cx="1.20305" cy="1.2424" rx="1.20305" ry="1.2424" transform="matrix(-1 0 0 1 1161 150.841)" fill="#CAFF4D"/>
<ellipse opacity="0.3" cx="2.40725" cy="2.4826" rx="2.40725" ry="2.4826" transform="matrix(-1 0 0 1 1136.93 149.599)" fill="#CAFF4D"/>
<ellipse opacity="0.2" cx="2.40725" cy="2.4826" rx="2.40725" ry="2.4826" transform="matrix(-1 0 0 1 1111.67 149.599)" fill="#CAFF4D"/>
<ellipse opacity="0.2" cx="2.40725" cy="2.4826" rx="2.40725" ry="2.4826" transform="matrix(-1 0 0 1 1086.41 149.599)" fill="#CAFF4D"/>
<ellipse opacity="0.2" cx="2.40727" cy="2.4826" rx="2.40727" ry="2.4826" transform="matrix(-1 0 0 1 1061.13 149.599)" fill="#CAFF4D"/>
<ellipse opacity="0.2" cx="2.40725" cy="2.4826" rx="2.40725" ry="2.4826" transform="matrix(-1 0 0 1 1038.29 149.599)" fill="#CAFF4D"/>
<ellipse opacity="0.2" cx="2.40725" cy="2.4826" rx="2.40725" ry="2.4826" transform="matrix(-1 0 0 1 1015.42 149.599)" fill="#CAFF4D"/>
<ellipse opacity="0.2" cx="2.40725" cy="2.4826" rx="2.40725" ry="2.4826" transform="matrix(-1 0 0 1 992.569 149.599)" fill="#CAFF4D"/>
<ellipse opacity="0.1" cx="1.20307" cy="1.2424" rx="1.20307" ry="1.2424" transform="matrix(-1 0 0 1 968.501 150.841)" fill="#CAFF4D"/>
<ellipse opacity="0.1" cx="1.20305" cy="1.2424" rx="1.20305" ry="1.2424" transform="matrix(-1 0 0 1 1161 127.269)" fill="#CAFF4D"/>
<ellipse opacity="0.3" cx="2.40725" cy="2.4826" rx="2.40725" ry="2.4826" transform="matrix(-1 0 0 1 1136.93 126.026)" fill="#CAFF4D"/>
<ellipse opacity="0.3" cx="3.60916" cy="3.72215" rx="3.60916" ry="3.72215" transform="matrix(-1 0 0 1 1112.88 124.784)" fill="#CAFF4D"/>
<ellipse opacity="0.3" cx="3.60918" cy="3.72215" rx="3.60918" ry="3.72215" transform="matrix(-1 0 0 1 1087.6 124.784)" fill="#CAFF4D"/>
<ellipse opacity="0.3" cx="3.60918" cy="3.72215" rx="3.60918" ry="3.72215" transform="matrix(-1 0 0 1 1062.34 124.784)" fill="#CAFF4D"/>
<ellipse opacity="0.3" cx="3.60916" cy="3.72215" rx="3.60916" ry="3.72215" transform="matrix(-1 0 0 1 1039.49 124.784)" fill="#CAFF4D"/>
<ellipse opacity="0.3" cx="3.60918" cy="3.72215" rx="3.60918" ry="3.72215" transform="matrix(-1 0 0 1 1016.62 124.784)" fill="#CAFF4D"/>
<ellipse opacity="0.2" cx="2.40725" cy="2.4826" rx="2.40725" ry="2.4826" transform="matrix(-1 0 0 1 992.569 126.026)" fill="#CAFF4D"/>
<ellipse opacity="0.1" cx="1.20307" cy="1.2424" rx="1.20307" ry="1.2424" transform="matrix(-1 0 0 1 968.501 127.269)" fill="#CAFF4D"/>
<ellipse opacity="0.1" cx="1.20305" cy="1.2424" rx="1.20305" ry="1.2424" transform="matrix(-1 0 0 1 1161 103.689)" fill="#CAFF4D"/>
<ellipse opacity="0.3" cx="2.40725" cy="2.4826" rx="2.40725" ry="2.4826" transform="matrix(-1 0 0 1 1136.93 102.447)" fill="#CAFF4D"/>
<ellipse opacity="0.3" cx="3.60916" cy="3.72215" rx="3.60916" ry="3.72215" transform="matrix(-1 0 0 1 1112.88 101.213)" fill="#CAFF4D"/>
<ellipse opacity="0.5" cx="4.81225" cy="4.96287" rx="4.81225" ry="4.96287" transform="matrix(-1 0 0 1 1088.81 99.9702)" fill="#CAFF4D"/>
<ellipse opacity="0.5" cx="4.81223" cy="4.96287" rx="4.81223" ry="4.96287" transform="matrix(-1 0 0 1 1063.54 99.9702)" fill="#CAFF4D"/>
<ellipse opacity="0.5" cx="4.81223" cy="4.96287" rx="4.81223" ry="4.96287" transform="matrix(-1 0 0 1 1040.7 99.9702)" fill="#CAFF4D"/>
<ellipse opacity="0.3" cx="3.60918" cy="3.72215" rx="3.60918" ry="3.72215" transform="matrix(-1 0 0 1 1016.62 101.213)" fill="#CAFF4D"/>
<ellipse opacity="0.2" cx="2.40725" cy="2.4826" rx="2.40725" ry="2.4826" transform="matrix(-1 0 0 1 992.569 102.447)" fill="#CAFF4D"/>
<ellipse opacity="0.1" cx="1.20307" cy="1.2424" rx="1.20307" ry="1.2424" transform="matrix(-1 0 0 1 968.501 103.689)" fill="#CAFF4D"/>
<ellipse opacity="0.1" cx="1.20305" cy="1.2424" rx="1.20305" ry="1.2424" transform="matrix(-1 0 0 1 1161 80.1177)" fill="#CAFF4D"/>
<ellipse opacity="0.3" cx="2.40725" cy="2.48259" rx="2.40725" ry="2.48259" transform="matrix(-1 0 0 1 1136.93 78.876)" fill="#CAFF4D"/>
<ellipse opacity="0.3" cx="3.60916" cy="3.72215" rx="3.60916" ry="3.72215" transform="matrix(-1 0 0 1 1112.88 77.6348)" fill="#CAFF4D"/>
<ellipse opacity="0.5" cx="4.81225" cy="4.96287" rx="4.81225" ry="4.96287" transform="matrix(-1 0 0 1 1088.81 76.3921)" fill="#CAFF4D"/>
<ellipse opacity="0.6" cx="6.0153" cy="6.20358" rx="6.0153" ry="6.20358" transform="matrix(-1 0 0 1 1064.75 75.1567)" fill="#CAFF4D"/>
<ellipse opacity="0.5" cx="4.81223" cy="4.96287" rx="4.81223" ry="4.96287" transform="matrix(-1 0 0 1 1040.7 76.3921)" fill="#CAFF4D"/>
<ellipse opacity="0.3" cx="3.60918" cy="3.72215" rx="3.60918" ry="3.72215" transform="matrix(-1 0 0 1 1016.62 77.6348)" fill="#CAFF4D"/>
<ellipse opacity="0.2" cx="2.40725" cy="2.48259" rx="2.40725" ry="2.48259" transform="matrix(-1 0 0 1 992.569 78.876)" fill="#CAFF4D"/>
<ellipse opacity="0.1" cx="1.20307" cy="1.2424" rx="1.20307" ry="1.2424" transform="matrix(-1 0 0 1 968.501 80.1177)" fill="#CAFF4D"/>
<ellipse opacity="0.1" cx="1.20305" cy="1.2424" rx="1.20305" ry="1.2424" transform="matrix(-1 0 0 1 1161 54.0625)" fill="#CAFF4D"/>
<ellipse opacity="0.3" cx="2.40725" cy="2.48259" rx="2.40725" ry="2.48259" transform="matrix(-1 0 0 1 1136.93 52.8218)" fill="#CAFF4D"/>
<ellipse opacity="0.3" cx="3.60916" cy="3.72215" rx="3.60916" ry="3.72215" transform="matrix(-1 0 0 1 1112.88 51.5786)" fill="#CAFF4D"/>
<ellipse opacity="0.5" cx="4.81225" cy="4.96286" rx="4.81225" ry="4.96286" transform="matrix(-1 0 0 1 1088.81 50.3364)" fill="#CAFF4D"/>
<ellipse opacity="0.5" cx="4.81223" cy="4.96286" rx="4.81223" ry="4.96286" transform="matrix(-1 0 0 1 1063.54 50.3364)" fill="#CAFF4D"/>
<ellipse opacity="0.5" cx="4.81223" cy="4.96286" rx="4.81223" ry="4.96286" transform="matrix(-1 0 0 1 1040.7 50.3364)" fill="#CAFF4D"/>
<ellipse opacity="0.3" cx="3.60918" cy="3.72215" rx="3.60918" ry="3.72215" transform="matrix(-1 0 0 1 1016.62 51.5786)" fill="#CAFF4D"/>
<ellipse opacity="0.2" cx="2.40725" cy="2.48259" rx="2.40725" ry="2.48259" transform="matrix(-1 0 0 1 992.569 52.8218)" fill="#CAFF4D"/>
<ellipse opacity="0.1" cx="1.20307" cy="1.2424" rx="1.20307" ry="1.2424" transform="matrix(-1 0 0 1 968.501 54.0625)" fill="#CAFF4D"/>
<ellipse opacity="0.1" cx="1.20305" cy="1.2424" rx="1.20305" ry="1.2424" transform="matrix(-1 0 0 1 1161 28.0073)" fill="#CAFF4D"/>
<ellipse opacity="0.3" cx="2.40725" cy="2.4826" rx="2.40725" ry="2.4826" transform="matrix(-1 0 0 1 1136.93 26.7651)" fill="#CAFF4D"/>
<ellipse opacity="0.3" cx="3.60916" cy="3.72215" rx="3.60916" ry="3.72215" transform="matrix(-1 0 0 1 1112.88 25.5229)" fill="#CAFF4D"/>
<ellipse opacity="0.3" cx="3.60918" cy="3.72215" rx="3.60918" ry="3.72215" transform="matrix(-1 0 0 1 1087.6 25.5229)" fill="#CAFF4D"/>
<ellipse opacity="0.3" cx="3.60918" cy="3.72215" rx="3.60918" ry="3.72215" transform="matrix(-1 0 0 1 1062.34 25.5229)" fill="#CAFF4D"/>
<ellipse opacity="0.3" cx="3.60916" cy="3.72215" rx="3.60916" ry="3.72215" transform="matrix(-1 0 0 1 1039.49 25.5229)" fill="#CAFF4D"/>
<ellipse opacity="0.3" cx="3.60918" cy="3.72215" rx="3.60918" ry="3.72215" transform="matrix(-1 0 0 1 1016.62 25.5229)" fill="#CAFF4D"/>
<ellipse opacity="0.2" cx="2.40725" cy="2.4826" rx="2.40725" ry="2.4826" transform="matrix(-1 0 0 1 992.569 26.7651)" fill="#CAFF4D"/>
<ellipse opacity="0.1" cx="1.20307" cy="1.2424" rx="1.20307" ry="1.2424" transform="matrix(-1 0 0 1 968.501 28.0073)" fill="#CAFF4D"/>
<ellipse opacity="0.1" cx="1.20305" cy="1.2424" rx="1.20305" ry="1.2424" transform="matrix(-1 0 0 1 1161 1.95166)" fill="#CAFF4D"/>
<ellipse opacity="0.3" cx="2.40725" cy="2.4826" rx="2.40725" ry="2.4826" transform="matrix(-1 0 0 1 1136.93 0.711426)" fill="#CAFF4D"/>
<ellipse opacity="0.2" cx="2.40725" cy="2.4826" rx="2.40725" ry="2.4826" transform="matrix(-1 0 0 1 1111.67 0.711426)" fill="#CAFF4D"/>
<ellipse opacity="0.2" cx="2.40725" cy="2.4826" rx="2.40725" ry="2.4826" transform="matrix(-1 0 0 1 1086.41 0.711426)" fill="#CAFF4D"/>
<ellipse opacity="0.2" cx="2.40727" cy="2.4826" rx="2.40727" ry="2.4826" transform="matrix(-1 0 0 1 1061.13 0.711426)" fill="#CAFF4D"/>
<ellipse opacity="0.2" cx="2.40725" cy="2.4826" rx="2.40725" ry="2.4826" transform="matrix(-1 0 0 1 1038.29 0.711426)" fill="#CAFF4D"/>
<ellipse opacity="0.2" cx="2.40725" cy="2.4826" rx="2.40725" ry="2.4826" transform="matrix(-1 0 0 1 1015.42 0.711426)" fill="#CAFF4D"/>
<ellipse opacity="0.2" cx="2.40725" cy="2.4826" rx="2.40725" ry="2.4826" transform="matrix(-1 0 0 1 992.569 0.711426)" fill="#CAFF4D"/>
<ellipse opacity="0.1" cx="1.20307" cy="1.2424" rx="1.20307" ry="1.2424" transform="matrix(-1 0 0 1 968.501 1.95166)" fill="#CAFF4D"/>
<ellipse opacity="0.1" cx="1.20305" cy="1.2424" rx="1.20305" ry="1.2424" transform="matrix(-1 0 0 1 968.905 150.841)" fill="#CAFF4D" fill-opacity="0.3"/>
<ellipse opacity="0.3" cx="2.40725" cy="2.4826" rx="2.40725" ry="2.4826" transform="matrix(-1 0 0 1 944.836 149.599)" fill="#CAFF4D" fill-opacity="0.3"/>
<ellipse opacity="0.2" cx="2.40725" cy="2.4826" rx="2.40725" ry="2.4826" transform="matrix(-1 0 0 1 919.576 149.599)" fill="#CAFF4D" fill-opacity="0.3"/>
<ellipse opacity="0.2" cx="2.40725" cy="2.4826" rx="2.40725" ry="2.4826" transform="matrix(-1 0 0 1 894.314 149.599)" fill="#CAFF4D" fill-opacity="0.3"/>
<ellipse opacity="0.2" cx="2.40727" cy="2.4826" rx="2.40727" ry="2.4826" transform="matrix(-1 0 0 1 869.04 149.599)" fill="#CAFF4D" fill-opacity="0.3"/>
<ellipse opacity="0.2" cx="2.40725" cy="2.4826" rx="2.40725" ry="2.4826" transform="matrix(-1 0 0 1 846.191 149.599)" fill="#CAFF4D" fill-opacity="0.3"/>
<ellipse opacity="0.2" cx="2.40725" cy="2.4826" rx="2.40725" ry="2.4826" transform="matrix(-1 0 0 1 823.325 149.599)" fill="#CAFF4D" fill-opacity="0.3"/>
<ellipse opacity="0.2" cx="2.40725" cy="2.4826" rx="2.40725" ry="2.4826" transform="matrix(-1 0 0 1 800.475 149.599)" fill="#CAFF4D" fill-opacity="0.3"/>
<ellipse opacity="0.1" cx="1.20307" cy="1.2424" rx="1.20307" ry="1.2424" transform="matrix(-1 0 0 1 776.406 150.841)" fill="#CAFF4D" fill-opacity="0.3"/>
<ellipse opacity="0.1" cx="1.20305" cy="1.2424" rx="1.20305" ry="1.2424" transform="matrix(-1 0 0 1 968.905 127.269)" fill="#CAFF4D" fill-opacity="0.3"/>
<ellipse opacity="0.3" cx="2.40725" cy="2.4826" rx="2.40725" ry="2.4826" transform="matrix(-1 0 0 1 944.836 126.026)" fill="#CAFF4D" fill-opacity="0.3"/>
<ellipse opacity="0.3" cx="3.60916" cy="3.72215" rx="3.60916" ry="3.72215" transform="matrix(-1 0 0 1 920.781 124.784)" fill="#CAFF4D" fill-opacity="0.3"/>
<ellipse opacity="0.3" cx="3.60918" cy="3.72215" rx="3.60918" ry="3.72215" transform="matrix(-1 0 0 1 895.506 124.784)" fill="#CAFF4D" fill-opacity="0.3"/>
<ellipse opacity="0.3" cx="3.60918" cy="3.72215" rx="3.60918" ry="3.72215" transform="matrix(-1 0 0 1 870.245 124.784)" fill="#CAFF4D" fill-opacity="0.3"/>
<ellipse opacity="0.3" cx="3.60916" cy="3.72215" rx="3.60916" ry="3.72215" transform="matrix(-1 0 0 1 847.396 124.784)" fill="#CAFF4D" fill-opacity="0.3"/>
<ellipse opacity="0.3" cx="3.60918" cy="3.72215" rx="3.60918" ry="3.72215" transform="matrix(-1 0 0 1 824.53 124.784)" fill="#CAFF4D" fill-opacity="0.3"/>
<ellipse opacity="0.2" cx="2.40725" cy="2.4826" rx="2.40725" ry="2.4826" transform="matrix(-1 0 0 1 800.475 126.026)" fill="#CAFF4D" fill-opacity="0.3"/>
<ellipse opacity="0.1" cx="1.20307" cy="1.2424" rx="1.20307" ry="1.2424" transform="matrix(-1 0 0 1 776.406 127.269)" fill="#CAFF4D" fill-opacity="0.3"/>
<ellipse opacity="0.1" cx="1.20305" cy="1.2424" rx="1.20305" ry="1.2424" transform="matrix(-1 0 0 1 968.905 103.689)" fill="#CAFF4D" fill-opacity="0.3"/>
<ellipse opacity="0.3" cx="2.40725" cy="2.4826" rx="2.40725" ry="2.4826" transform="matrix(-1 0 0 1 944.836 102.447)" fill="#CAFF4D" fill-opacity="0.3"/>
<ellipse opacity="0.3" cx="3.60916" cy="3.72215" rx="3.60916" ry="3.72215" transform="matrix(-1 0 0 1 920.781 101.213)" fill="#CAFF4D" fill-opacity="0.3"/>
<ellipse opacity="0.5" cx="4.81225" cy="4.96287" rx="4.81225" ry="4.96287" transform="matrix(-1 0 0 1 896.711 99.9702)" fill="#CAFF4D" fill-opacity="0.3"/>
<ellipse opacity="0.5" cx="4.81223" cy="4.96287" rx="4.81223" ry="4.96287" transform="matrix(-1 0 0 1 871.45 99.9702)" fill="#CAFF4D" fill-opacity="0.3"/>
<ellipse opacity="0.5" cx="4.81223" cy="4.96287" rx="4.81223" ry="4.96287" transform="matrix(-1 0 0 1 848.601 99.9702)" fill="#CAFF4D" fill-opacity="0.3"/>
<ellipse opacity="0.3" cx="3.60918" cy="3.72215" rx="3.60918" ry="3.72215" transform="matrix(-1 0 0 1 824.53 101.213)" fill="#CAFF4D" fill-opacity="0.3"/>
<ellipse opacity="0.2" cx="2.40725" cy="2.4826" rx="2.40725" ry="2.4826" transform="matrix(-1 0 0 1 800.475 102.447)" fill="#CAFF4D" fill-opacity="0.3"/>
<ellipse opacity="0.1" cx="1.20307" cy="1.2424" rx="1.20307" ry="1.2424" transform="matrix(-1 0 0 1 776.406 103.689)" fill="#CAFF4D" fill-opacity="0.3"/>
<ellipse opacity="0.1" cx="1.20305" cy="1.2424" rx="1.20305" ry="1.2424" transform="matrix(-1 0 0 1 968.905 80.1177)" fill="#CAFF4D" fill-opacity="0.3"/>
<ellipse opacity="0.3" cx="2.40725" cy="2.48259" rx="2.40725" ry="2.48259" transform="matrix(-1 0 0 1 944.836 78.876)" fill="#CAFF4D" fill-opacity="0.3"/>
<ellipse opacity="0.3" cx="3.60916" cy="3.72215" rx="3.60916" ry="3.72215" transform="matrix(-1 0 0 1 920.781 77.6348)" fill="#CAFF4D" fill-opacity="0.3"/>
<ellipse opacity="0.5" cx="4.81225" cy="4.96287" rx="4.81225" ry="4.96287" transform="matrix(-1 0 0 1 896.711 76.3921)" fill="#CAFF4D" fill-opacity="0.3"/>
<ellipse opacity="0.6" cx="6.0153" cy="6.20358" rx="6.0153" ry="6.20358" transform="matrix(-1 0 0 1 872.655 75.1567)" fill="#CAFF4D" fill-opacity="0.3"/>
<ellipse opacity="0.5" cx="4.81223" cy="4.96287" rx="4.81223" ry="4.96287" transform="matrix(-1 0 0 1 848.601 76.3921)" fill="#CAFF4D" fill-opacity="0.3"/>
<ellipse opacity="0.3" cx="3.60918" cy="3.72215" rx="3.60918" ry="3.72215" transform="matrix(-1 0 0 1 824.53 77.6348)" fill="#CAFF4D" fill-opacity="0.3"/>
<ellipse opacity="0.2" cx="2.40725" cy="2.48259" rx="2.40725" ry="2.48259" transform="matrix(-1 0 0 1 800.475 78.876)" fill="#CAFF4D" fill-opacity="0.3"/>
<ellipse opacity="0.1" cx="1.20307" cy="1.2424" rx="1.20307" ry="1.2424" transform="matrix(-1 0 0 1 776.406 80.1177)" fill="#CAFF4D" fill-opacity="0.3"/>
<ellipse opacity="0.1" cx="1.20305" cy="1.2424" rx="1.20305" ry="1.2424" transform="matrix(-1 0 0 1 968.905 54.0625)" fill="#CAFF4D" fill-opacity="0.3"/>
<ellipse opacity="0.3" cx="2.40725" cy="2.48259" rx="2.40725" ry="2.48259" transform="matrix(-1 0 0 1 944.836 52.8218)" fill="#CAFF4D" fill-opacity="0.3"/>
<ellipse opacity="0.3" cx="3.60916" cy="3.72215" rx="3.60916" ry="3.72215" transform="matrix(-1 0 0 1 920.781 51.5786)" fill="#CAFF4D" fill-opacity="0.3"/>
<ellipse opacity="0.5" cx="4.81225" cy="4.96286" rx="4.81225" ry="4.96286" transform="matrix(-1 0 0 1 896.711 50.3364)" fill="#CAFF4D" fill-opacity="0.3"/>
<ellipse opacity="0.5" cx="4.81223" cy="4.96286" rx="4.81223" ry="4.96286" transform="matrix(-1 0 0 1 871.45 50.3364)" fill="#CAFF4D" fill-opacity="0.3"/>
<ellipse opacity="0.5" cx="4.81223" cy="4.96286" rx="4.81223" ry="4.96286" transform="matrix(-1 0 0 1 848.601 50.3364)" fill="#CAFF4D" fill-opacity="0.3"/>
<ellipse opacity="0.3" cx="3.60918" cy="3.72215" rx="3.60918" ry="3.72215" transform="matrix(-1 0 0 1 824.53 51.5786)" fill="#CAFF4D" fill-opacity="0.3"/>
<ellipse opacity="0.2" cx="2.40725" cy="2.48259" rx="2.40725" ry="2.48259" transform="matrix(-1 0 0 1 800.475 52.8218)" fill="#CAFF4D" fill-opacity="0.3"/>
<ellipse opacity="0.1" cx="1.20307" cy="1.2424" rx="1.20307" ry="1.2424" transform="matrix(-1 0 0 1 776.406 54.0625)" fill="#CAFF4D" fill-opacity="0.3"/>
<ellipse opacity="0.1" cx="1.20305" cy="1.2424" rx="1.20305" ry="1.2424" transform="matrix(-1 0 0 1 968.905 28.0073)" fill="#CAFF4D" fill-opacity="0.3"/>
<ellipse opacity="0.3" cx="2.40725" cy="2.4826" rx="2.40725" ry="2.4826" transform="matrix(-1 0 0 1 944.836 26.7651)" fill="#CAFF4D" fill-opacity="0.3"/>
<ellipse opacity="0.3" cx="3.60916" cy="3.72215" rx="3.60916" ry="3.72215" transform="matrix(-1 0 0 1 920.781 25.5229)" fill="#CAFF4D" fill-opacity="0.3"/>
<ellipse opacity="0.3" cx="3.60918" cy="3.72215" rx="3.60918" ry="3.72215" transform="matrix(-1 0 0 1 895.506 25.5229)" fill="#CAFF4D" fill-opacity="0.3"/>
<ellipse opacity="0.3" cx="3.60918" cy="3.72215" rx="3.60918" ry="3.72215" transform="matrix(-1 0 0 1 870.245 25.5229)" fill="#CAFF4D" fill-opacity="0.3"/>
<ellipse opacity="0.3" cx="3.60916" cy="3.72215" rx="3.60916" ry="3.72215" transform="matrix(-1 0 0 1 847.396 25.5229)" fill="#CAFF4D" fill-opacity="0.3"/>
<ellipse opacity="0.3" cx="3.60918" cy="3.72215" rx="3.60918" ry="3.72215" transform="matrix(-1 0 0 1 824.53 25.5229)" fill="#CAFF4D" fill-opacity="0.3"/>
<ellipse opacity="0.2" cx="2.40725" cy="2.4826" rx="2.40725" ry="2.4826" transform="matrix(-1 0 0 1 800.475 26.7651)" fill="#CAFF4D" fill-opacity="0.3"/>
<ellipse opacity="0.1" cx="1.20307" cy="1.2424" rx="1.20307" ry="1.2424" transform="matrix(-1 0 0 1 776.406 28.0073)" fill="#CAFF4D" fill-opacity="0.3"/>
<ellipse opacity="0.1" cx="1.20305" cy="1.2424" rx="1.20305" ry="1.2424" transform="matrix(-1 0 0 1 968.905 1.95166)" fill="#CAFF4D" fill-opacity="0.3"/>
<ellipse opacity="0.3" cx="2.40725" cy="2.4826" rx="2.40725" ry="2.4826" transform="matrix(-1 0 0 1 944.836 0.711426)" fill="#CAFF4D" fill-opacity="0.3"/>
<ellipse opacity="0.2" cx="2.40725" cy="2.4826" rx="2.40725" ry="2.4826" transform="matrix(-1 0 0 1 919.576 0.711426)" fill="#CAFF4D" fill-opacity="0.3"/>
<ellipse opacity="0.2" cx="2.40725" cy="2.4826" rx="2.40725" ry="2.4826" transform="matrix(-1 0 0 1 894.314 0.711426)" fill="#CAFF4D" fill-opacity="0.3"/>
<ellipse opacity="0.2" cx="2.40727" cy="2.4826" rx="2.40727" ry="2.4826" transform="matrix(-1 0 0 1 869.04 0.711426)" fill="#CAFF4D" fill-opacity="0.3"/>
<ellipse opacity="0.2" cx="2.40725" cy="2.4826" rx="2.40725" ry="2.4826" transform="matrix(-1 0 0 1 846.191 0.711426)" fill="#CAFF4D" fill-opacity="0.3"/>
<ellipse opacity="0.2" cx="2.40725" cy="2.4826" rx="2.40725" ry="2.4826" transform="matrix(-1 0 0 1 823.325 0.711426)" fill="#CAFF4D" fill-opacity="0.3"/>
<ellipse opacity="0.2" cx="2.40725" cy="2.4826" rx="2.40725" ry="2.4826" transform="matrix(-1 0 0 1 800.475 0.711426)" fill="#CAFF4D" fill-opacity="0.3"/>
<ellipse opacity="0.1" cx="1.20307" cy="1.2424" rx="1.20307" ry="1.2424" transform="matrix(-1 0 0 1 776.406 1.95166)" fill="#CAFF4D" fill-opacity="0.3"/>
</svg>