<svg width="224" height="204" viewBox="0 0 224 204" fill="none" xmlns="http://www.w3.org/2000/svg">
<g clip-path="url(#clip0_2160_2506)">
<g clip-path="url(#clip1_2160_2506)">
<path d="M65.219 125.486C64.895 125.38 64.5565 125.229 64.2122 125.037C63.8689 124.846 63.5194 124.613 63.1723 124.346C62.8257 124.078 62.4809 123.775 62.1464 123.44C61.8118 123.105 61.487 122.738 61.1803 122.344C60.7175 121.748 60.3386 121.144 60.0492 120.561C59.7581 119.974 59.5568 119.405 59.452 118.885C59.3463 118.361 59.3385 117.886 59.4363 117.491C59.535 117.092 59.7414 116.774 60.0634 116.572C60.1723 116.503 60.291 116.451 60.4183 116.412C60.5459 116.374 60.6821 116.35 60.8258 116.341C60.9698 116.332 61.1213 116.337 61.2789 116.356C61.4369 116.375 61.6011 116.408 61.7703 116.454C62.106 116.546 62.4609 116.69 62.8252 116.881C63.1906 117.073 63.565 117.313 63.9382 117.594C64.312 117.877 64.6842 118.201 65.0445 118.562C65.4048 118.923 65.7525 119.32 66.0777 119.747C66.5665 120.389 66.9564 121.036 67.2425 121.655C67.5269 122.271 67.7078 122.856 67.7819 123.381C67.8554 123.901 67.8237 124.359 67.6839 124.727C67.5456 125.091 67.3013 125.365 66.9486 125.522C66.8309 125.574 66.7048 125.611 66.5716 125.634C66.4388 125.657 66.2988 125.666 66.1529 125.662C66.0074 125.658 65.856 125.641 65.6998 125.611C65.5439 125.582 65.3833 125.54 65.219 125.486Z" fill="#A8E21E"/>
<path d="M52.7028 103.424C52.5804 103.4 52.4534 103.365 52.3224 103.318C52.1915 103.272 52.0566 103.214 51.9184 103.145C51.7804 103.076 51.6389 102.995 51.4947 102.903C51.3507 102.811 51.2038 102.708 51.0548 102.593C50.6152 102.254 50.1975 101.844 49.8176 101.394C49.4372 100.943 49.0937 100.449 48.8038 99.942C48.5128 99.4328 48.2751 98.9086 48.1081 98.3991C47.9402 97.8863 47.8436 97.3873 47.8367 96.9327C47.8316 96.6295 47.8664 96.3647 47.9364 96.1398C48.0068 95.9138 48.1129 95.7283 48.2498 95.585C48.3873 95.441 48.556 95.3396 48.7508 95.2828C48.9465 95.2257 49.1685 95.2134 49.4117 95.2478C49.5366 95.2655 49.6671 95.2954 49.8024 95.3379C49.9379 95.3804 50.0783 95.4355 50.2227 95.5033C50.3673 95.5712 50.516 95.6519 50.6681 95.7456C50.8203 95.8393 50.9757 95.946 51.1337 96.0658C51.6007 96.4199 52.0444 96.8543 52.4459 97.3356C52.8469 97.8163 53.2045 98.3423 53.5008 98.8805C53.7959 99.4164 54.0293 99.963 54.184 100.488C54.3376 101.009 54.4132 101.508 54.3943 101.953C54.3818 102.245 54.3292 102.495 54.2423 102.703C54.1559 102.909 54.0354 103.075 53.8865 103.197C53.7383 103.32 53.5617 103.4 53.3623 103.438C53.1636 103.476 52.9421 103.471 52.7028 103.424Z" fill="#A8E21E"/>
<path d="M47.5156 80.7077C47.3415 80.7016 47.1605 80.6782 46.9734 80.637C46.7868 80.5959 46.594 80.537 46.3959 80.4601C46.1981 80.3832 45.9949 80.2883 45.7871 80.1749C45.5795 80.0616 45.3672 79.9298 45.1509 79.7791C44.4715 79.3059 43.8145 78.6889 43.2059 77.9766C42.5962 77.263 42.0324 76.4505 41.5419 75.5869C41.0484 74.7183 40.6272 73.7945 40.3076 72.8648C39.985 71.9262 39.7648 70.9783 39.6787 70.0725C39.6193 69.448 39.6274 68.8833 39.6962 68.3849C39.7656 67.8822 39.8968 67.4471 40.0828 67.0864C40.2704 66.7228 40.5135 66.4349 40.8049 66.23C41.0984 66.0236 41.4405 65.9016 41.8234 65.8709C42.0025 65.8566 42.1904 65.8623 42.3863 65.8887C42.5827 65.9152 42.7871 65.9624 42.9985 66.0312C43.2104 66.1001 43.4293 66.1905 43.6543 66.3031C43.8797 66.4159 44.1112 66.5509 44.3477 66.7087C45.0939 67.2066 45.8176 67.8821 46.4848 68.6752C47.1507 69.4668 47.7569 70.3716 48.2712 71.329C48.7822 72.2802 49.2004 73.2794 49.4958 74.2676C49.7882 75.2458 49.9594 76.21 49.9819 77.1043C49.997 77.7078 49.9434 78.2401 49.8305 78.6975C49.7186 79.151 49.5484 79.5311 49.329 79.8342C49.1113 80.135 48.845 80.3604 48.5388 80.507C48.2348 80.6526 47.8909 80.7206 47.5156 80.7077Z" fill="#A8E21E"/>
<path d="M81.3195 141.581C81.1848 141.528 81.0474 141.467 80.908 141.398C80.7688 141.329 80.6276 141.253 80.4852 141.168C80.343 141.083 80.1995 140.991 80.0556 140.891C79.9118 140.791 79.7675 140.683 79.6235 140.567C79.1994 140.227 78.817 139.851 78.4878 139.463C78.1583 139.075 77.8812 138.672 77.6689 138.279C77.4558 137.884 77.3076 137.497 77.2372 137.141C77.1663 136.783 77.1741 136.456 77.2741 136.184C77.3407 136.003 77.444 135.857 77.5782 135.747C77.7131 135.636 77.879 135.56 78.0703 135.519C78.2623 135.477 78.4798 135.471 78.7165 135.499C78.9542 135.528 79.2112 135.591 79.4812 135.688C79.62 135.738 79.7622 135.797 79.9069 135.865C80.0518 135.933 80.1992 136.009 80.3482 136.095C80.4974 136.181 80.6482 136.275 80.7998 136.379C80.9514 136.482 81.1037 136.594 81.2558 136.715C81.7057 137.071 82.1103 137.468 82.4559 137.879C82.801 138.29 83.0863 138.714 83.2989 139.126C83.5106 139.536 83.6497 139.934 83.7039 140.294C83.7578 140.653 83.7278 140.973 83.6024 141.232C83.5195 141.402 83.4007 141.534 83.2525 141.631C83.105 141.728 82.9285 141.788 82.7292 141.815C82.5308 141.842 82.3097 141.835 82.0723 141.795C81.8358 141.755 81.5828 141.684 81.3195 141.581Z" fill="#A8E21E"/>
<path d="M102.473 153.789C101.764 153.496 101.073 153.113 100.429 152.671C99.7876 152.23 99.1902 151.728 98.6659 151.195C98.1414 150.662 97.688 150.096 97.3355 149.527C96.9815 148.956 96.7278 148.38 96.6056 147.828C96.483 147.271 96.5056 146.791 96.6533 146.399C96.8024 146.003 97.0792 145.697 97.4632 145.493C97.8512 145.287 98.3487 145.186 98.9337 145.204C99.5245 145.222 100.204 145.362 100.948 145.637C101.699 145.916 102.441 146.305 103.138 146.769C103.838 147.236 104.49 147.776 105.059 148.354C105.627 148.932 106.109 149.547 106.471 150.161C106.832 150.773 107.071 151.382 107.157 151.953C107.242 152.521 107.168 152.995 106.962 153.368C106.758 153.737 106.427 154.005 105.994 154.165C105.567 154.323 105.041 154.376 104.442 154.314C103.85 154.253 103.185 154.081 102.473 153.789Z" fill="#A8E21E"/>
<path d="M76.0333 123.449C75.4444 123.277 74.8381 123.027 74.2294 122.707C73.6238 122.39 73.0144 122.002 72.4159 121.554C71.819 121.106 71.2314 120.596 70.6674 120.031C70.1033 119.466 69.5613 118.844 69.0557 118.171C68.292 117.156 67.6801 116.116 67.2262 115.101C66.7677 114.076 66.4682 113.071 66.3375 112.139C66.2049 111.193 66.2454 110.32 66.4713 109.575C66.7009 108.819 67.1223 108.194 67.7488 107.766C67.9615 107.621 68.191 107.503 68.4352 107.411C68.6808 107.319 68.9412 107.254 69.2143 107.214C69.4887 107.175 69.7757 107.162 70.0732 107.174C70.372 107.187 70.6812 107.225 70.9984 107.288C71.6299 107.413 72.2922 107.637 72.9668 107.951C73.6452 108.267 74.3344 108.674 75.015 109.163C75.6976 109.654 76.3696 110.226 77.0114 110.87C77.6531 111.513 78.2625 112.227 78.82 113C79.6561 114.158 80.292 115.333 80.7248 116.46C81.1529 117.575 81.3804 118.638 81.4087 119.589C81.4365 120.527 81.2709 121.354 80.9152 122.017C80.5654 122.67 80.032 123.163 79.3179 123.45C79.0808 123.545 78.8312 123.615 78.5713 123.66C78.3127 123.705 78.0439 123.726 77.7668 123.723C77.4911 123.721 77.2071 123.696 76.9169 123.65C76.628 123.604 76.3328 123.536 76.0333 123.449Z" fill="#A8E21E"/>
<path d="M100.241 141.155C99.0866 140.752 97.9632 140.181 96.9154 139.492C95.8738 138.808 94.9002 138.004 94.0402 137.129C93.1798 136.253 92.4277 135.3 91.8315 134.317C91.2313 133.327 90.7854 132.3 90.5453 131.285C90.3024 130.254 90.2932 129.327 90.4891 128.532C90.6881 127.723 91.0994 127.049 91.6938 126.543C92.2986 126.028 93.0931 125.685 94.0446 125.553C95.0122 125.418 96.1403 125.501 97.3903 125.837C98.6615 126.182 99.9282 126.752 101.126 127.489C102.332 128.231 103.46 129.137 104.445 130.143C105.43 131.149 106.265 132.247 106.89 133.374C107.51 134.492 107.918 135.63 108.06 136.723C108.198 137.802 108.064 138.731 107.707 139.486C107.356 140.228 106.79 140.801 106.06 141.186C105.343 141.564 104.466 141.76 103.474 141.758C102.497 141.755 101.407 141.56 100.241 141.155Z" fill="#A8E21E"/>
<path d="M125.836 157.788C125.146 157.522 124.491 157.181 123.897 156.791C123.304 156.402 122.77 155.965 122.318 155.503C121.866 155.042 121.495 154.556 121.232 154.071C120.967 153.585 120.81 153.098 120.786 152.637C120.762 152.172 120.877 151.777 121.107 151.459C121.339 151.139 121.688 150.898 122.129 150.746C122.574 150.593 123.113 150.53 123.721 150.568C124.334 150.606 125.015 150.747 125.738 151.001C126.467 151.259 127.167 151.606 127.806 152.013C128.447 152.421 129.025 152.888 129.51 153.383C129.994 153.878 130.384 154.399 130.648 154.917C130.912 155.432 131.051 155.942 131.039 156.416C131.027 156.887 130.866 157.276 130.588 157.578C130.312 157.878 129.92 158.09 129.443 158.21C128.97 158.329 128.413 158.356 127.8 158.287C127.192 158.218 126.528 158.054 125.836 157.788Z" fill="#A8E21E"/>
<path d="M68.3321 96.8077C68.018 96.7656 67.6962 96.6984 67.3682 96.6058C67.0415 96.5136 66.7084 96.3961 66.3706 96.2531C66.0337 96.1105 65.6918 95.9424 65.3464 95.7484C65.0017 95.5548 64.6532 95.3353 64.3023 95.0894C63.2014 94.3179 62.1744 93.3547 61.2545 92.2688C60.3321 91.18 59.5108 89.9603 58.828 88.6783C58.1387 87.3844 57.5862 86.0192 57.2123 84.6538C56.8327 83.2679 56.6351 81.8746 56.6667 80.5505C56.6886 79.6319 56.8195 78.8048 57.0467 78.0784C57.277 77.3421 57.6062 76.7095 58.0209 76.1911C58.4411 75.6658 58.9487 75.2581 59.5289 74.9789C60.116 74.6964 60.7765 74.546 61.4943 74.5384C61.831 74.5348 62.18 74.5627 62.5396 74.6231C62.9006 74.6838 63.2721 74.7772 63.6522 74.9043C64.0335 75.0318 64.4232 75.1933 64.8194 75.3894C65.2166 75.5861 65.6199 75.8176 66.0275 76.0848C67.315 76.9287 68.5148 78.043 69.5749 79.3291C70.6317 80.6114 71.5409 82.0539 72.2566 83.5577C72.9647 85.0457 73.4785 86.5837 73.7584 88.0773C74.0338 89.5466 74.0815 90.9654 73.868 92.2475C73.7249 93.1071 73.4735 93.8489 73.1334 94.4706C72.798 95.084 72.3761 95.5808 71.886 95.9592C71.4021 96.3329 70.8511 96.5915 70.2501 96.7331C69.6556 96.8731 69.011 96.8988 68.3321 96.8077Z" fill="#A8E21E"/>
<path d="M95.2979 119.783C94.1615 119.509 93.0178 119.099 91.8933 118.568C90.7786 118.041 89.6782 117.392 88.6173 116.635C87.5612 115.881 86.5396 115.016 85.5774 114.05C84.615 113.084 83.7073 112.014 82.8793 110.846C81.6245 109.077 80.6607 107.238 79.9896 105.411C79.3069 103.553 78.9215 101.693 78.8453 99.9247C78.7672 98.1131 79.0135 96.3878 79.603 94.8598C80.21 93.2861 81.183 91.9164 82.5436 90.8807C83.0102 90.5255 83.5073 90.2211 84.0309 89.9668C84.5599 89.7099 85.1155 89.5044 85.6934 89.3495C86.2768 89.1932 86.8825 89.0886 87.506 89.035C88.1348 88.9808 88.7811 88.9785 89.4401 89.0271C90.7585 89.1242 92.1239 89.4244 93.4966 89.9177C94.8841 90.4163 96.2724 91.1099 97.6195 91.985C98.9741 92.865 100.28 93.9238 101.493 95.1439C102.705 96.3639 103.818 97.7377 104.789 99.2442C106.237 101.494 107.216 103.802 107.746 106.027C108.265 108.206 108.349 110.286 108.032 112.149C107.723 113.961 107.036 115.557 106.005 116.839C105.005 118.084 103.684 119.031 102.071 119.6C101.54 119.787 100.994 119.927 100.437 120.023C99.8846 120.118 99.321 120.17 98.75 120.18C98.1836 120.191 97.6093 120.162 97.0308 120.094C96.4566 120.027 95.8778 119.923 95.2979 119.783Z" fill="#A8E21E"/>
<path d="M125.636 137.265C125.152 137.125 124.668 136.963 124.186 136.779C123.707 136.596 123.23 136.391 122.757 136.165C122.286 135.939 121.82 135.692 121.361 135.423C120.902 135.155 120.45 134.865 120.007 134.555C118.618 133.58 117.438 132.48 116.487 131.32C115.534 130.156 114.803 128.922 114.322 127.685C113.836 126.434 113.602 125.17 113.652 123.963C113.704 122.735 114.051 121.558 114.734 120.508C115.208 119.779 115.814 119.158 116.527 118.647C117.252 118.129 118.088 117.726 119.008 117.442C119.941 117.154 120.961 116.989 122.038 116.952C123.13 116.914 124.278 117.007 125.451 117.235C126.001 117.342 126.557 117.479 127.114 117.646C127.674 117.813 128.235 118.011 128.793 118.239C129.354 118.468 129.912 118.727 130.463 119.017C131.016 119.308 131.562 119.629 132.098 119.98C133.789 121.091 135.203 122.393 136.3 123.787C137.393 125.177 138.161 126.645 138.579 128.096C138.993 129.529 139.061 130.934 138.767 132.222C138.479 133.485 137.844 134.628 136.852 135.57C136.188 136.2 135.407 136.699 134.544 137.072C133.694 137.439 132.764 137.685 131.783 137.814C130.816 137.941 129.798 137.955 128.759 137.861C127.733 137.767 126.683 137.567 125.636 137.265Z" fill="#A8E21E"/>
<path d="M53.8518 53.6033C53.2815 53.695 52.6792 53.5809 52.0771 53.2973C51.4772 53.0148 50.875 52.5628 50.3021 51.9751C49.729 51.3873 49.1829 50.6613 48.6958 49.8291C48.2066 48.9933 47.7749 48.0469 47.4339 47.021C47.0894 45.9846 46.8695 44.9626 46.7678 43.9997C46.665 43.0265 46.6828 42.1123 46.8152 41.3052C46.9492 40.4889 47.2004 39.7822 47.5627 39.2364C47.9288 38.6848 48.4078 38.2984 48.9919 38.1308C49.5829 37.9646 50.2219 38.0369 50.8705 38.3118C51.522 38.5879 52.1801 39.0673 52.806 39.7109C53.4318 40.3544 54.0225 41.1591 54.5397 42.0841C55.0544 43.0048 55.494 44.0405 55.8215 45.1494C56.1458 46.2501 56.328 47.3149 56.3813 48.2959C56.434 49.2662 56.3605 50.1535 56.1738 50.9137C55.9892 51.6653 55.694 52.2928 55.3005 52.7549C54.9109 53.2122 54.4245 53.5083 53.8518 53.6033Z" fill="#A8E21E"/>
<path d="M88.4215 80.1987C86.9028 80.1632 85.4046 79.7499 83.988 79.037C82.5832 78.33 81.2461 77.3221 80.0387 76.0816C78.8307 74.8405 77.7419 73.3557 76.8376 71.6896C75.9249 70.0079 75.192 68.1264 74.7111 66.104C74.2198 64.0418 74.0334 62.0149 74.1244 60.1059C74.2176 58.1522 74.6016 56.3157 75.2492 54.694C75.9135 53.031 76.8554 51.5932 78.043 50.4941C79.26 49.3678 80.7318 48.6003 82.4158 48.3158C84.1401 48.0312 85.9049 48.278 87.6112 48.9772C89.3347 49.6835 90.9804 50.8438 92.4482 52.3625C93.9152 53.8802 95.1889 55.7396 96.1757 57.8342C97.1516 59.9057 97.8368 62.1858 98.1497 64.5657C98.4578 66.8995 98.3764 69.0934 97.9773 71.0544C97.588 72.9674 96.8972 74.6545 95.972 76.0396C95.0698 77.3904 93.9439 78.4551 92.652 79.1685C91.3891 79.8659 89.9632 80.2299 88.4215 80.1987Z" fill="#A8E21E"/>
<path d="M122.938 103.826C121.739 103.667 120.556 103.369 119.416 102.944C118.284 102.523 117.191 101.976 116.162 101.313C115.137 100.653 114.171 99.8756 113.289 98.9892C112.408 98.1027 111.607 97.1033 110.914 95.9975C109.865 94.3219 109.152 92.5471 108.763 90.7584C108.367 88.9413 108.301 87.096 108.56 85.3181C108.824 83.5 109.429 81.7425 110.373 80.1556C111.342 78.5256 112.671 77.0706 114.357 75.9178C114.934 75.5238 115.534 75.1778 116.153 74.8797C116.778 74.5787 117.422 74.3267 118.08 74.1231C118.744 73.9177 119.421 73.7618 120.108 73.6548C120.8 73.547 121.502 73.489 122.206 73.4801C123.616 73.4624 125.037 73.6408 126.429 74.0089C127.834 74.3805 129.205 74.9437 130.497 75.689C131.796 76.4381 133.011 77.3673 134.097 78.4638C135.183 79.5601 136.136 80.8176 136.913 82.2197C138.077 84.3168 138.728 86.5186 138.913 88.6841C139.095 90.8098 138.826 92.8834 138.162 94.7827C137.514 96.6357 136.493 98.3142 135.153 99.7154C133.849 101.079 132.245 102.177 130.386 102.924C129.774 103.17 129.152 103.37 128.526 103.526C127.906 103.681 127.28 103.794 126.653 103.865C126.03 103.936 125.406 103.967 124.784 103.959C124.166 103.952 123.55 103.907 122.938 103.826Z" fill="#A8E21E"/>
<path d="M150.495 152.272C150.112 152.149 149.732 152.011 149.356 151.86C148.982 151.709 148.611 151.544 148.247 151.366C147.883 151.189 147.526 150.997 147.176 150.793C146.827 150.588 146.486 150.371 146.155 150.14C145.116 149.416 144.268 148.628 143.62 147.82C142.971 147.011 142.52 146.177 142.281 145.363C142.04 144.543 142.013 143.739 142.217 142.999C142.424 142.25 142.868 141.563 143.571 140.988C144.056 140.59 144.635 140.272 145.285 140.031C145.941 139.788 146.671 139.625 147.451 139.542C148.24 139.458 149.079 139.455 149.945 139.533C150.82 139.611 151.72 139.772 152.622 140.013C153.044 140.127 153.467 140.257 153.886 140.406C154.307 140.555 154.725 140.721 155.138 140.905C155.551 141.089 155.959 141.291 156.358 141.509C156.758 141.729 157.149 141.965 157.528 142.218C158.725 143.016 159.687 143.903 160.397 144.817C161.106 145.73 161.559 146.665 161.746 147.566C161.932 148.459 161.854 149.312 161.508 150.073C161.165 150.824 160.562 151.48 159.695 151.993C159.111 152.338 158.445 152.595 157.723 152.769C157.009 152.941 156.239 153.032 155.437 153.046C154.643 153.06 153.818 152.999 152.984 152.868C152.157 152.737 151.32 152.537 150.495 152.272Z" fill="#A8E21E"/>
<path d="M168.797 125.722C168.383 125.641 167.974 125.543 167.572 125.426C167.171 125.31 166.778 125.176 166.394 125.024C166.01 124.873 165.636 124.703 165.274 124.516C164.913 124.329 164.563 124.124 164.227 123.902C163.238 123.246 162.463 122.494 161.904 121.694C161.344 120.893 160.998 120.039 160.875 119.179C160.751 118.312 160.852 117.437 161.189 116.601C161.53 115.755 162.114 114.947 162.956 114.229C163.517 113.749 164.159 113.339 164.86 113C165.569 112.658 166.338 112.39 167.145 112.197C167.961 112.002 168.816 111.883 169.687 111.844C170.565 111.805 171.459 111.846 172.345 111.969C172.802 112.032 173.256 112.117 173.704 112.224C174.154 112.332 174.598 112.461 175.032 112.613C175.467 112.765 175.892 112.939 176.305 113.136C176.718 113.333 177.117 113.553 177.5 113.794C178.631 114.51 179.501 115.35 180.102 116.252C180.701 117.153 181.029 118.11 181.083 119.063C181.137 120.009 180.922 120.946 180.439 121.817C179.962 122.677 179.226 123.47 178.235 124.14C177.588 124.578 176.872 124.937 176.112 125.218C175.359 125.496 174.562 125.698 173.743 125.825C172.932 125.952 172.099 126.005 171.265 125.987C170.437 125.968 169.608 125.88 168.797 125.722Z" fill="#A8E21E"/>
<path d="M172.418 54.3553C166.344 51.4741 159.084 54.0628 156.203 60.1373C153.321 66.2118 155.91 73.4718 161.985 76.353C168.059 79.2342 175.319 76.6455 178.2 70.571C181.081 64.4965 178.493 57.2365 172.418 54.3553Z" fill="#A8E21E"/>
<path d="M67.9101 18.1479C68.5917 24.8364 73.1587 29.8494 78.1106 29.3447C83.0626 28.84 86.5243 23.0088 85.8427 16.3203C85.161 9.63182 80.5941 4.61884 75.6421 5.12352C70.6902 5.6282 67.2284 11.4594 67.9101 18.1479Z" fill="#A8E21E"/>
<path d="M128.836 13.4841C123.575 11.2288 117.134 14.4775 114.449 20.7402C111.764 27.003 113.853 33.9082 119.113 36.1635C124.374 38.4188 130.815 35.1701 133.5 28.9074C136.185 22.6446 134.097 15.7394 128.836 13.4841Z" fill="#A8E21E"/>
</g>
</g>
<defs>
<clipPath id="clip0_2160_2506">
<rect width="224" height="204" fill="white"/>
</clipPath>
<clipPath id="clip1_2160_2506">
<rect width="173" height="216.25" fill="white" transform="translate(156 195.525) rotate(-154.625)"/>
</clipPath>
</defs>
</svg>